<svg xmlns="http://www.w3.org/2000/svg" viewBox="0 0 3000 3000" width="3000" height="3000"><g transform="translate(826.8 732.0) rotate(0.0 632.4 376.79999999999995) scale(1.1999510456404532 1.198467564563146)"><svg width="1054.043" height="628.803" viewBox="0 0 1054.043 628.803"><path d="m821.89 408.158 42.212 24.349.081-40.86c-24.585-14.174-48.65-30.693-76.344-38.123-22.713-6.094-46.729-7.676-70.102-5.392-39.762 3.885-125.947 34.934-92.413 90.677 14.615 24.295 47.156 36.861 70.502 50.352l-.041 40.883c-32.646-18.875-102.88-49.852-68.496-99.103 24.823-35.556 78.605-44.417 118.886-42.747 26.185 1.086 52.8 6.905 75.716 19.964z" fill="#fff"/><path d="M695.784 531.043a1 1 0 0 1-.5-.134c-3.318-1.918-7.042-3.972-10.985-6.145-25.377-13.989-60.131-33.148-66.304-59.662-2.177-9.35-.573-19.005 4.767-28.779-7.375-13.8-7.988-27.002-1.81-39.288 14.755-29.344 65.422-46.845 96.687-49.899 24.1-2.354 48.463-.479 70.458 5.422 22.545 6.049 42.885 18.195 62.556 29.941 4.595 2.744 9.346 5.581 14.029 8.281a1 1 0 0 1 .5.868l-.081 40.86a.996.996 0 0 1-.5.864.996.996 0 0 1-.999 0l-42.209-24.347c-20.985-11.959-46.307-18.633-75.261-19.833-20.168-.835-88.299-.258-118.024 42.32a62.883 62.883 0 0 0-3.061 4.823c.362.651.74 1.304 1.133 1.958 11.344 18.857 34.075 30.795 54.13 41.327 5.658 2.972 11.003 5.778 16.015 8.675a1 1 0 0 1 .5.867l-.041 40.883a.999.999 0 0 1-1 .999zm-71.862-92.639c-4.619 8.949-5.958 17.749-3.98 26.245 5.971 25.646 40.274 44.556 65.322 58.364 3.37 1.858 6.581 3.627 9.522 5.305l.038-38.58c-4.833-2.775-9.993-5.484-15.444-8.348-20.287-10.654-43.281-22.729-54.914-42.066a69.026 69.026 0 0 1-.544-.92zm113.982-90.255c-6.674 0-13.381.325-20.072.978-29.923 2.924-80.839 20.458-95.095 48.808-5.699 11.334-5.29 23.536 1.205 36.327a66.297 66.297 0 0 1 2.525-3.893c30.308-43.412 99.317-44.022 119.747-43.173 29.275 1.214 54.903 7.975 76.169 20.095l.004.002 40.716 23.486.076-38.554c-4.534-2.621-9.116-5.357-13.554-8.007-19.553-11.676-39.772-23.75-62.049-29.727-15.663-4.202-32.547-6.341-49.674-6.341z"/><path d="M1052.917 323.093 864.102 432.508c-24.578-14.177-48.636-30.7-76.326-38.132-22.708-6.095-46.718-7.677-70.085-5.393-39.78 3.888-125.909 34.954-92.391 90.698 14.609 24.297 47.143 36.868 70.485 50.364l-168.701 97.759-168.702-97.759c-24.597 14.221-48.682 30.797-76.406 38.254-22.756 6.121-46.816 7.71-70.235 5.416-39.847-3.903-121.683-35.818-92.262-90.898 13.367-25.024 47.207-36.821 70.587-50.308L1.126 323.021l201.33-115.838L453.81 62.562c41.924-24.122 94.193-29.146 137.637-4.985 74.425 41.392 147.709 84.987 221.522 127.457l235.792 135.667 4.156 2.391z" fill="#fff"/><path d="M527.083 628.803a.997.997 0 0 1-.501-.135l-168.201-97.469c-4.521 2.62-9.098 5.361-13.53 8.014-19.687 11.789-40.044 23.978-62.617 30.05-22.039 5.927-46.449 7.811-70.593 5.445-29.729-2.912-78.664-20.221-94.375-49.585-7.146-13.356-6.7-27.75 1.328-42.779 10.459-19.58 33.435-31.259 53.707-41.563 5.565-2.829 10.851-5.516 15.756-8.28L.625 323.886a1.002 1.002 0 0 1 .002-1.732L453.311 61.696c21.416-12.322 45.17-19.49 68.694-20.73 24.878-1.313 49.056 4.131 69.926 15.738 49.628 27.601 99.559 56.653 147.847 84.749 24.133 14.042 49.088 28.561 73.688 42.715l239.949 138.059a.998.998 0 0 1 .002 1.732L864.602 433.374a.998.998 0 0 1-1.001 0c-4.697-2.709-9.455-5.552-14.056-8.301-19.547-11.678-39.759-23.754-62.03-29.731-21.761-5.841-45.873-7.695-69.729-5.364-29.909 2.924-80.807 20.458-95.066 48.81-6.3 12.525-5.144 26.11 3.435 40.378 11.34 18.859 34.067 30.801 54.118 41.336 5.657 2.972 11 5.78 16.011 8.677a1 1 0 0 1 .001 1.731l-168.701 97.759a.997.997 0 0 1-.501.135zm-168.702-99.759c.173 0 .346.045.501.135l168.201 97.469 166.698-96.599c-4.541-2.577-9.362-5.11-14.437-7.777-20.283-10.658-43.273-22.737-54.901-42.077-8.956-14.894-10.136-29.128-3.508-42.307 14.759-29.345 65.408-46.847 96.659-49.901 24.094-2.356 48.451-.48 70.441 5.423 22.54 6.05 42.873 18.198 62.537 29.946 4.432 2.647 9.008 5.382 13.529 7.997l186.816-108.256L812.47 185.902c-24.604-14.157-49.562-28.677-73.697-42.72-48.28-28.091-98.203-57.138-147.813-84.729-40.755-22.666-91.839-20.806-136.652 4.978L3.126 323.024l187.44 108.618a1 1 0 0 1-.001 1.731c-5.369 3.097-11.192 6.057-17.356 9.19-20.009 10.17-42.687 21.698-52.849 40.723-7.693 14.403-8.141 28.162-1.329 40.893 15.363 28.714 63.52 45.67 92.807 48.539 23.907 2.342 48.07.479 69.878-5.387 22.303-5.999 42.539-18.116 62.109-29.834 4.602-2.755 9.36-5.604 14.057-8.32.155-.089.328-.134.5-.134z"/><path d="m527.083 627.803 168.701-97.76.041-40.883-168.742 97.736z"/><path d="M527.083 628.803a.998.998 0 0 1-1-1v-40.907c0-.357.19-.687.499-.865l168.742-97.736a1 1 0 0 1 1.501.867l-.041 40.883c0 .356-.19.686-.499.864l-168.701 97.759a.997.997 0 0 1-.501.135zm1-41.33v38.595l166.702-96.601.038-38.571z"/><path d="m358.381 530.043 168.702 97.76v-40.907L358.341 489.16z" fill="#fff"/><path d="M527.083 628.803a.997.997 0 0 1-.501-.135L357.88 530.909a1.003 1.003 0 0 1-.499-.864l-.041-40.883a1.001 1.001 0 0 1 1.501-.867l168.743 97.736a.999.999 0 0 1 .499.865v40.907a1 1 0 0 1-1 1zM359.38 529.467l166.703 96.601v-38.595l-166.741-96.577z"/><path d="M285.489 567.12c26.135-8.235 49.009-23.269 72.892-37.077l-.041-40.883c-24.604 14.218-48.696 30.79-76.425 38.245l3.573 39.715z"/><path d="M285.489 568.121a1 1 0 0 1-.996-.91l-3.573-39.715a1.002 1.002 0 0 1 .736-1.056c22.308-5.998 42.549-18.112 62.124-29.827 4.603-2.754 9.363-5.603 14.061-8.318a.998.998 0 0 1 1.5.865l.041 40.883c0 .357-.19.688-.5.867a1438.127 1438.127 0 0 0-12.303 7.221c-19.204 11.355-39.061 23.098-60.79 29.944a.993.993 0 0 1-.3.046zm-2.502-39.971 3.387 37.638c21.051-6.828 40.433-18.289 59.188-29.38 3.864-2.285 7.854-4.644 11.82-6.941l-.038-38.572c-4.197 2.443-8.429 4.976-12.536 7.434-19.456 11.644-39.567 23.68-61.82 29.821z"/><path d="M283.993 526.673c-22.762 6.12-48.904 8.44-72.329 6.147-32.551-3.187-94.652-27.135-98.362-65.303v44.478c-.055 10.164.341 19.68 18.93 33.948 40.251 30.895 93.531 34.092 138.965 24.884 4.884-.99 9.64-2.24 14.293-3.707l-1.496-40.447z" fill="#fff"/><path d="M226.723 576.386c-29.764 0-64.888-6.459-95.101-29.649-19.429-14.913-19.374-24.996-19.321-34.747v-44.473a1 1 0 0 1 1.995-.097c3.584 36.88 64.417 61.169 97.465 64.404 22.929 2.244 49.163.015 71.971-6.118a1.002 1.002 0 0 1 1.26.929l1.497 40.448c.017.45-.27.855-.699.991a142.007 142.007 0 0 1-14.395 3.733c-11.68 2.367-27.26 4.579-44.671 4.579zm-112.422-99.69v35.299c-.05 9.269-.103 18.847 18.539 33.155 47.258 36.274 106.846 31.043 138.157 24.697 4.433-.899 8.959-2.06 13.464-3.453l-1.422-38.434c-22.746 5.949-48.717 8.083-71.473 5.855-18.466-1.808-42.169-9.522-60.385-19.655-14.164-7.878-30.978-20.39-36.879-37.464zm749.801-44.189 188.815-109.414.126-40.834-188.861 109.388z"/><path d="M864.102 433.507a1.003 1.003 0 0 1-1-1.002l.081-40.86c0-.356.191-.685.499-.863l188.861-109.389a1 1 0 0 1 1.501.869l-.126 40.834a.996.996 0 0 1-.499.862L864.604 433.373a.997.997 0 0 1-.501.135zm1.08-41.283-.076 38.545 186.814-108.254.119-38.519-186.856 108.228z"/><path d="m1.126 323.021 188.938 109.486-.08-40.86L1 282.187z" fill="#fff"/><path d="M190.065 433.507a.997.997 0 0 1-.501-.135L.625 323.886a.998.998 0 0 1-.499-.862L0 282.19a1.002 1.002 0 0 1 1.501-.869l188.983 109.46a.998.998 0 0 1 .499.863l.081 40.86a1.001 1.001 0 0 1-1 1.002zM2.124 322.444 189.061 430.77l-.077-38.545-186.978-108.3.119 38.519z"/><path d="m864.182 391.647 188.861-109.389-201.36-115.8L600.29 21.885c-41.925-24.111-94.169-29.306-137.669-5.171-74.479 41.323-147.76 84.975-221.594 127.437L5.158 279.796 1 282.187l188.984 109.46c-21.822 12.582-49.971 23.896-66.209 44.073-17.388 21.607-12.292 48.354 7.475 66.265 35.767 32.408 94.442 37.155 139.885 27.949 32.32-6.548 59.062-24.511 87.206-40.774l168.742 97.736 168.742-97.736c-21.8-12.597-49.939-23.921-66.128-44.128-16.8-20.969-12.552-46.809 6.189-64.781 35.207-33.763 95.537-38.476 141.193-29.246 32.277 6.526 58.983 24.429 87.104 40.642z" fill="#fff"/><path d="M527.083 587.896a.997.997 0 0 1-.501-.135L358.34 490.315a1536.198 1536.198 0 0 0-11.801 6.927c-23.333 13.791-47.459 28.051-75.206 33.672-24.252 4.913-50.508 5.496-73.932 1.638-27.108-4.463-50.215-14.777-66.823-29.825-21.45-19.436-24.497-46.616-7.582-67.633 12.582-15.635 31.837-25.79 50.459-35.61 5.08-2.679 9.906-5.224 14.523-7.842L.499 283.053a.998.998 0 0 1 .002-1.732l240.027-138.037c24.606-14.151 49.564-28.674 73.7-42.719 48.299-28.106 98.243-57.17 147.908-84.725 41.319-22.924 93.151-20.988 138.653 5.179l452.753 260.374a.998.998 0 0 1 .002 1.732l-188.86 109.389a.998.998 0 0 1-1.001 0c-4.134-2.383-8.3-4.84-12.329-7.216-24.223-14.285-47.102-27.778-74.474-33.312-41.937-8.478-103.847-5.974-140.303 28.987-19.253 18.464-21.705 43.957-6.101 63.435 12.283 15.331 31.333 25.397 49.756 35.131 5.652 2.987 10.991 5.808 16.093 8.756a1 1 0 0 1 .001 1.731l-168.742 97.736a.997.997 0 0 1-.501.135zM358.34 488.16c.173 0 .346.045.501.135l168.242 97.445 166.738-96.575c-4.616-2.623-9.442-5.173-14.523-7.858-18.603-9.83-37.84-19.995-50.382-35.65-16.289-20.332-13.767-46.906 6.276-66.128 37.014-35.496 99.671-38.08 142.084-29.504 27.702 5.6 51.794 19.809 75.093 33.549 3.862 2.278 7.85 4.629 11.811 6.917l186.861-108.23L599.792 22.752c-44.889-25.815-95.986-27.745-136.685-5.164-49.648 27.545-99.583 56.603-147.873 84.705-24.139 14.047-49.099 28.572-73.709 42.724L3.001 282.19l187.484 108.592a.999.999 0 0 1-.001 1.731c-5.104 2.942-10.442 5.758-16.095 8.739-18.442 9.726-37.512 19.783-49.834 35.095-16.208 20.139-13.247 46.219 7.367 64.897 37.198 33.705 98.136 35.991 139.015 27.71 27.417-5.555 50.329-19.097 74.586-33.434 4.025-2.379 8.188-4.84 12.318-7.227.155-.089.328-.134.5-.134z"/></svg></g><g transform="translate(1572.0 1194.0) rotate(0.0 610.2 390.0) scale(1.1993195600922584 1.1995165025789605)"><svg width="1017.577" height="650.262" viewBox="0 0 1017.577 650.262"><path d="M990.253 380.855 527.252 649.261 337.345 539.199c21.798-12.603 49.934-23.932 66.119-44.144 16.795-20.974 12.556-46.821-6.182-64.8-35.192-33.767-95.509-38.487-141.156-29.254-32.273 6.528-58.974 24.436-87.089 40.653L1.126 344.342l168.711-97.084c-21.664-12.526-49.113-24.085-65.613-43.832-9.576-11.46-10.139-22.833-10.139-22.833l-1.519-50.457s15.421 11.418 19.728 7.561c35.756-32.023 94.086-36.793 139.326-27.661 32.075 6.475 58.59 24.25 86.53 40.366L526.947 41.76l215.574 124.018c81.432 46.847 163.219 93.13 244.317 140.554 11.777 6.887 23.673 15.688 27.706 29.407 5.725 19.474-8.617 35.747-24.292 45.116z" fill="#fff"/><path d="M527.252 650.262a.997.997 0 0 1-.501-.135L336.844 540.065a1 1 0 0 1 .001-1.731c5.101-2.949 10.438-5.771 16.089-8.758 18.421-9.739 37.47-19.81 49.75-35.145 15.603-19.485 13.154-44.985-6.095-63.453-36.447-34.971-98.338-37.476-140.265-28.996-27.367 5.536-50.24 19.031-74.456 33.318-4.03 2.377-8.196 4.836-12.332 7.221-.31.179-.692.178-1.001 0L.625 345.207a1.002 1.002 0 0 1 .002-1.732l167.203-96.216c-4.386-2.499-8.942-4.941-13.736-7.511-18.542-9.939-37.716-20.217-50.637-35.681-9.68-11.584-10.346-22.947-10.37-23.425l-1.52-50.476a1.001 1.001 0 0 1 1.595-.834c5.71 4.226 15.771 10.032 18.465 7.62 16.612-14.878 39.646-25.081 66.611-29.505 23.338-3.83 49.47-3.258 73.58 1.608 27.547 5.561 51.49 19.685 74.645 33.345 3.822 2.254 7.769 4.582 11.689 6.848L526.449 40.894a.997.997 0 0 1 .997 0L743.02 164.913c27.144 15.616 54.783 31.43 81.513 46.723 53.461 30.588 108.742 62.217 162.81 93.834 11.552 6.755 23.931 15.601 28.16 29.988 7.301 24.837-17.089 41.685-24.738 46.257l-.012.007-463.001 268.406a.997.997 0 0 1-.501.135zM339.347 539.205l187.905 108.901 462.496-268.114c7.347-4.393 30.73-20.521 23.837-43.971-4.032-13.717-16.038-22.269-27.251-28.826-54.06-31.613-109.337-63.24-162.793-93.825-26.73-15.293-54.371-31.108-81.517-46.725L526.949 42.914 338.651 151.269a1 1 0 0 1-.998 0 1444.766 1444.766 0 0 1-12.205-7.146c-24.071-14.2-46.808-27.612-74.024-33.106-40.597-8.194-101.219-5.929-138.462 27.426-4.04 3.617-14.759-3.13-19.334-6.315l1.458 48.436c.005.09.679 11.18 9.907 22.222 12.672 15.167 31.672 25.351 50.047 35.201 5.36 2.873 10.423 5.587 15.299 8.406a1 1 0 0 1-.001 1.733L3.126 344.345 169.038 440.5c3.962-2.29 7.951-4.643 11.813-6.922 23.293-13.743 47.379-27.953 75.076-33.556 42.4-8.577 105.042-5.994 142.046 29.512 20.038 19.226 22.558 45.808 6.271 66.146-12.54 15.659-31.775 25.829-50.377 35.663-5.08 2.685-9.905 5.236-14.521 7.86z"/><path d="M169.036 441.655c24.58-14.177 48.64-30.7 76.332-38.133 22.708-6.095 46.717-7.678 70.085-5.394 39.784 3.888 121.992 35.38 88.472 91.124-14.611 24.299-43.236 36.45-66.581 49.947l-.043-40.884c21.802-12.599 49.945-23.923 66.136-44.132 16.8-20.97 14.908-48.857-3.833-66.831-35.205-33.764-97.887-36.43-143.542-27.199-32.279 6.526-58.987 24.429-87.11 40.643l.084 40.86z" fill="#fff"/><path d="M337.344 540.2a.999.999 0 0 1-1-.999l-.042-40.884c0-.357.19-.688.5-.867 5.103-2.949 10.441-5.77 16.094-8.756 18.425-9.736 37.478-19.803 49.762-35.136a53.409 53.409 0 0 0 4.226-6.091c-.074-.151-.148-.302-.224-.452-14.217-28.268-61.95-45.022-91.304-47.891-23.857-2.332-47.968-.476-69.728 5.365-22.272 5.978-42.486 18.054-62.034 29.732-4.602 2.749-9.36 5.592-14.058 8.301a.997.997 0 0 1-1.499-.864l-.084-40.86c0-.358.19-.689.5-.868a1453 1453 0 0 0 12.314-7.207c23.301-13.74 47.395-27.948 75.097-33.549 44.12-8.921 108.419-7.081 144.433 27.458 17.064 16.366 20.254 40.864 8.845 60.934 6.033 13.166 4.569 27.355-4.36 42.204-12.179 20.254-33.565 31.937-54.246 43.234-4.419 2.414-8.592 4.693-12.691 7.063a1.005 1.005 0 0 1-.5.134zm.958-41.307.04 38.58c3.637-2.076 7.341-4.099 11.234-6.226 20.448-11.17 41.591-22.72 53.491-42.509 8.275-13.762 9.889-26.889 4.812-39.067a55.736 55.736 0 0 1-3.662 5.138c-12.543 15.656-31.783 25.822-50.388 35.653-5.45 2.88-10.608 5.605-15.527 8.432zm-43.007-102.747c6.735 0 13.504.328 20.255.987 29.553 2.888 77.504 19.743 92.514 48.239 10.154-19.045 6.888-41.916-9.152-57.299-35.456-34.005-99.006-35.765-142.651-26.941-27.373 5.535-50.253 19.027-74.478 33.312-3.867 2.28-7.859 4.635-11.83 6.927l.08 38.551c4.197-2.438 8.428-4.966 12.535-7.419 19.666-11.749 40-23.896 62.541-29.947 15.828-4.248 32.886-6.411 50.186-6.411z"/><path d="m1.126 344.342 167.91 97.313-.084-40.86L1 303.506z" fill="#fff"/><path d="M169.036 442.655a.997.997 0 0 1-.501-.135L.625 345.207a.998.998 0 0 1-.499-.862L0 303.509a1.002 1.002 0 0 1 1.502-.869l167.952 97.29a1 1 0 0 1 .499.863l.084 40.86a1.001 1.001 0 0 1-1 1.002zM2.124 343.764l165.909 96.153-.08-38.545L2.006 305.244l.119 38.521z"/><path d="m337.344 539.2 189.908 110.062.004-40.911-189.954-110.036z" fill="#fff"/><path d="M527.252 650.262a.997.997 0 0 1-.501-.135L336.844 540.065a1.003 1.003 0 0 1-.499-.864l-.042-40.884a1.001 1.001 0 0 1 1.501-.867l189.955 110.035a1 1 0 0 1 .499.865l-.005 40.911a1 1 0 0 1-1 1zM338.344 538.623l187.908 108.903.005-38.6-187.953-108.875z"/><path d="M1014.67 294.906c7.108 24.104-15.119 38.731-33.226 49.222-77.194 44.728-452.885 263.468-454.188 264.223l-.005 40.911 440.8-255.536c16.896-9.795 39.93-19.441 46.304-39.533 4.808-15.155.315-59.287.315-59.287z"/><path d="M527.252 650.262a.998.998 0 0 1-1-1l.005-40.911c0-.357.19-.687.499-.865l15.066-8.771c306.684-178.539 408.071-237.461 439.121-255.452 15.45-8.952 31.363-19.599 33.786-35.143-.499-7.578-1.039-12.96-1.054-13.113a1 1 0 0 1 1.954-.384c1.394 4.727 1.67 9.11 1.101 13.167.962 14.316 1.783 36.605-1.421 46.705-5.526 17.417-23.161 27.083-38.721 35.611-2.815 1.543-5.475 3-8.034 4.484l-440.8 255.536a.997.997 0 0 1-.501.135zm1.005-41.336-.005 38.6L967.55 392.86c2.58-1.496 5.25-2.959 8.076-4.508 15.23-8.348 32.492-17.809 37.776-34.462 2.652-8.36 2.407-25.955 1.684-39.745-5.684 14.938-22.671 24.781-33.14 30.848-31.049 17.991-132.436 76.912-439.118 255.45l-14.571 8.483z"/><path d="M527.256 608.351s356.517-205.76 441.54-255.025c16.897-9.79 40.647-23.119 45.684-39.971 7.296-24.406-14.207-40.192-32.536-50.731l-230.88-132.758L530.886 3.262 526.952 1 338.108 109.615c-24.433-14.087-48.318-30.484-75.846-37.855-22.624-6.058-46.542-7.619-69.822-5.354-39.094 3.803-123.832 33.261-93.514 88.461 13.859 25.234 47.286 37.976 70.826 51.579L1 303.506l167.952 97.29c24.587-14.175 48.654-30.693 76.351-38.124 22.714-6.094 46.729-7.675 70.102-5.393 39.767 3.884 122.597 33.056 92.406 90.68-11.448 21.85-70.51 50.356-70.51 50.356L527.256 608.35z" fill="#87c159"/><path d="M527.257 609.35a.997.997 0 0 1-.501-.135L336.801 499.18a1.001 1.001 0 0 1 .067-1.766c.587-.284 58.895-28.612 70.058-49.92 7.94-15.156 8.449-29.35 1.511-42.189-15.765-29.176-65.489-44.332-93.128-47.031-23.862-2.33-47.98-.476-69.746 5.363-22.277 5.977-42.497 18.05-62.05 29.725-4.603 2.749-9.362 5.59-14.06 8.299a1.003 1.003 0 0 1-1.001 0L.499 304.371a1.002 1.002 0 0 1 .002-1.732l167.243-96.191c-4.491-2.545-9.276-5.053-14.313-7.692-20.758-10.877-44.285-23.206-55.38-43.407-8.028-14.616-8.678-28.504-1.933-41.28 15.085-28.572 65.352-45.654 96.227-48.658 24.027-2.338 48.293-.477 70.177 5.383 22.415 6.002 42.619 18.066 62.158 29.733 4.398 2.626 8.94 5.339 13.43 7.933L526.455.133a1 1 0 0 1 .998 0l454.991 261.624c19.271 11.081 40.437 26.991 32.995 51.884-5.005 16.745-27.924 30.008-44.659 39.692l-1.482.858c-84.052 48.702-437.977 252.968-441.542 255.025a1.003 1.003 0 0 1-.5.134zM339.424 498.388l187.834 108.807c15.296-8.828 358.449-206.881 441.038-254.734l1.483-.858c16.444-9.517 38.966-22.55 43.744-38.534 7.04-23.548-13.444-38.865-32.076-49.578L526.953 2.154 338.607 110.482a1 1 0 0 1-.998 0c-4.664-2.689-9.387-5.509-13.955-8.236-19.421-11.597-39.504-23.589-61.65-29.519-21.653-5.797-45.674-7.64-69.466-5.325-30.43 2.96-79.913 19.686-94.651 47.601-6.412 12.144-5.767 25.394 1.917 39.383 10.805 19.673 34.048 31.853 54.556 42.599 5.624 2.947 10.935 5.73 15.894 8.596a1 1 0 0 1-.001 1.733L3.001 303.509l165.953 96.131c4.522-2.614 9.101-5.348 13.533-7.994 19.671-11.746 40.011-23.891 62.557-29.94 21.996-5.9 46.359-7.776 70.458-5.422 28.049 2.74 78.56 18.213 94.694 48.071 7.273 13.46 6.769 28.287-1.499 44.068-10.513 20.066-59.338 45.04-69.273 49.966z"/></svg></g><g transform="translate(214.79999999999998 1316.3999999999999) rotate(0.0 925.8000000000001 559.1999999999999) scale(1.1996563524900838 1.1987883491149502)"><svg width="1543.442" height="932.942" viewBox="0 0 1543.442 932.942"><path d="M892.967 563.86c-47.477 27.188-115.928 27.632-164.351 2.452-15.908-8.272-31.193-17.908-46.713-26.881L491.98 649.502 307.337 542.463 52.211 394.564c-17.221-9.983-41.11-19.897-47.51-40.41-7.778-24.929 15.129-40.678 33.816-51.428l233.097-134.099L488.21 44.021l3.907-2.248 188.977 108.746c-21.691 12.512-49.618 23.694-65.716 43.788-17.633 22.01-11.579 48.836 8.657 66.588 35.871 31.468 93.733 36.13 138.761 27.021 32.136-6.5 58.684-24.338 86.661-40.514l168.762 97.113-167.96 97.343c23.612 13.619 56.647 26.279 71.068 51.121 16.661 28.7-3.43 56.283-28.361 70.881z" fill="#fff"/><path d="M491.981 650.502a.997.997 0 0 1-.501-.135L51.71 395.429c-2.667-1.546-5.455-3.069-8.406-4.68-15.952-8.713-34.032-18.588-39.557-36.297-7.664-24.562 13.024-40.369 34.272-52.593l453.6-260.953c.309-.177.688-.177.997 0l188.977 108.746a1 1 0 0 1 .001 1.733c-5.083 2.932-10.397 5.733-16.023 8.699-18.291 9.641-37.204 19.61-49.412 34.848-16.244 20.276-12.813 46.482 8.537 65.211 37.392 32.801 97.655 34.934 137.903 26.793 27.273-5.517 50.044-18.981 74.152-33.235 3.989-2.359 8.113-4.797 12.207-7.164a.996.996 0 0 1 .999 0l168.762 97.113a.998.998 0 0 1 .002 1.732l-166.457 96.471c4.549 2.575 9.38 5.106 14.465 7.77 20.601 10.793 43.952 23.025 55.462 42.855 16.589 28.577-2.472 56.876-28.72 72.246l-.008.005c-22.99 13.166-52.22 20.622-82.305 20.996-29.812.371-59.317-6.208-83.004-18.525-10.899-5.668-21.663-12.067-32.072-18.256-4.642-2.76-9.436-5.61-14.179-8.357L492.482 650.368a.997.997 0 0 1-.501.135zm.137-607.575L39.016 303.593c-20.561 11.828-40.603 27.05-33.36 50.263 5.285 16.937 22.988 26.606 38.607 35.137 2.962 1.618 5.761 3.146 8.45 4.705l439.268 254.647 189.421-109.781a.997.997 0 0 1 1.002 0c4.917 2.843 9.891 5.8 14.701 8.66 10.385 6.174 21.124 12.559 31.973 18.2 48.328 25.131 117.044 24.109 163.392-2.432 25.388-14.87 43.889-42.128 27.993-69.511-11.221-19.33-34.299-31.42-54.661-42.087-5.668-2.969-11.022-5.774-16.042-8.669a.999.999 0 0 1-.001-1.731l166.462-96.474-166.761-95.962c-3.921 2.271-7.868 4.605-11.691 6.865-23.189 13.712-47.169 27.89-74.773 33.474-23.96 4.847-49.947 5.455-73.171 1.712-26.793-4.317-49.771-14.332-66.447-28.962-22.21-19.483-25.737-46.796-8.778-67.965 12.468-15.563 31.568-25.631 50.04-35.367 5.052-2.663 9.853-5.193 14.446-7.798L492.118 42.926z"/><path d="M3.026 304.138s.322 36.145.14 39.009c-1.275 20.045 18.453 33.682 34.89 43.211l453.925 263.144-.005-40.923L52.098 353.704c-17.221-9.979-49.072-49.566-49.072-49.566z" fill="#fff"/><path d="M491.981 650.502a.994.994 0 0 1-.501-.135L37.554 387.222C20.404 377.28.882 363.279 2.167 343.083c.178-2.795-.138-38.575-.142-38.936a.999.999 0 0 1 1.78-.635c.317.395 31.931 39.556 48.794 49.327l439.878 254.875a1 1 0 0 1 .499.865l.005 40.923a1.002 1.002 0 0 1-1 1.001zM4.05 306.978c.072 8.646.267 33.81.113 36.232-1.208 18.99 16.708 32.03 34.394 42.282l452.424 262.274-.005-38.611-439.38-254.586c-15.027-8.707-40.511-39.029-47.546-47.591zm604.173-99.166c7.225-20.665 24.448-31.509 72.871-57.294l.042-40.8c-21.696 12.508-49.627 23.686-65.731 43.777-17.638 22.005-49.712 60.443 8.659 66.571l-15.841-12.255z"/><path d="M624.065 221.067a1.23 1.23 0 0 1-.105-.005c-18.565-1.949-29.37-7.166-33.03-15.948-6.233-14.955 10.477-35.774 22.678-50.976l1.017-1.268c12.473-15.56 31.576-25.625 50.051-35.358 5.61-2.956 10.91-5.748 15.961-8.66a1 1 0 0 1 1.5.867l-.042 40.8a1 1 0 0 1-.53.882c-47.313 25.194-64.834 35.98-72.156 56.064l15.268 11.811a.999.999 0 0 1-.612 1.791zm56.069-109.624c-4.628 2.624-9.45 5.164-14.527 7.839-18.293 9.638-37.21 19.604-49.422 34.839l-1.018 1.269c-11.217 13.975-28.168 35.095-22.392 48.954 3.075 7.376 12.423 12.178 27.81 14.295l-12.974-10.036a1 1 0 0 1-.332-1.121c7.384-21.121 24.864-32.02 72.815-57.565z"/><path d="m1018.221 344.515-168.762-97.113-1.897-40.449 168.61 97.738z" fill="#fff"/><path d="M1018.22 345.515a1 1 0 0 1-.499-.133l-168.762-97.113a.999.999 0 0 1-.5-.82L846.563 207a1 1 0 0 1 1.5-.912l168.61 97.738c.293.17.48.476.497.814l2.048 39.824a1 1 0 0 1-.998 1.051zm-167.789-98.707 166.696 95.924-1.926-37.448-166.554-96.547 1.785 38.071z"/><path d="m850.26 441.858 167.961-97.343-2.049-39.824-165.827 96.295z" fill="#fff"/><path d="M850.26 442.858a1.003 1.003 0 0 1-1-1.002l.084-40.872c0-.356.19-.684.498-.863l165.828-96.295a.998.998 0 0 1 1.501.814l2.048 39.824a.999.999 0 0 1-.497.917l-167.96 97.343a.997.997 0 0 1-.501.135zm1.083-41.296-.08 38.558 165.927-96.164-1.933-37.578z"/><path d="M888.619 525.409c25.631-13.557 49.688-40.65 34.154-70.929-13.551-26.414-48.279-39.572-72.428-53.494l165.827-96.295-168.61-97.738c-24.463 14.137-46.395 30.216-73.97 37.616-22.68 6.087-46.659 7.655-69.997 5.379-39.198-3.823-123.974-33.429-93.417-88.692 13.943-25.216 47.378-37.943 70.958-51.538L492.113 1 307.557 107.121 52.55 253.752c-17.19 9.884-40.511 19.553-47.607 39.559-8.886 25.053 14.211 41.304 32.995 52.188L271.26 480.691l216.805 125.622 3.911 2.266 189.97-110.044c26.811 15.494 52.606 33.033 83.216 39.913 24.107 5.419 49.376 6.206 73.798 2.491 17.218-2.619 34.157-7.5 49.659-15.53z" fill="#fff"/><path d="M491.976 609.579a.997.997 0 0 1-.501-.135L37.436 346.364C17.209 334.644-4.87 317.985 4 292.977c6.116-17.243 23.934-26.915 39.655-35.448 2.943-1.597 5.722-3.106 8.396-4.644L491.614.133c.308-.177.688-.177.997 0l189.023 108.718a1 1 0 0 1 .001 1.733c-4.964 2.862-10.279 5.641-15.906 8.584-20.532 10.738-43.804 22.908-54.677 42.571-7.756 14.026-8.438 27.317-2.028 39.502 14.716 27.976 64.217 44.742 94.667 47.711 23.851 2.326 47.932.476 69.641-5.35 21.279-5.711 38.925-16.47 57.608-27.862 5.235-3.192 10.647-6.492 16.12-9.655.31-.179.691-.179 1.002 0l168.61 97.738a.999.999 0 0 1 .001 1.73l-164.326 95.423c4.517 2.555 9.34 5.076 14.416 7.73 21.556 11.271 45.988 24.047 56.898 45.314 7.183 14.001 6.605 28.767-1.67 42.702-6.791 11.434-18.477 21.935-32.906 29.567l-.008.004c-14.564 7.544-31.376 12.803-49.968 15.631-24.592 3.74-50.239 2.874-74.167-2.504-25.749-5.788-48.44-19.268-70.384-32.304a1321.589 1321.589 0 0 0-12.613-7.43L492.475 609.44a.997.997 0 0 1-.501.135zm.137-607.425L53.049 254.619c-2.695 1.55-5.485 3.064-8.439 4.668-15.404 8.362-32.864 17.839-38.724 34.359-8.329 23.483 11.782 38.953 32.554 50.988l453.537 262.789 189.469-109.754a1 1 0 0 1 1.002 0c4.398 2.542 8.839 5.18 13.134 7.731 21.81 12.956 44.362 26.354 69.801 32.072 23.69 5.325 49.081 6.181 73.428 2.479 18.375-2.795 34.978-7.986 49.347-15.429 14.106-7.462 25.512-17.697 32.116-28.818 7.906-13.313 8.463-27.411 1.61-40.768-10.621-20.702-34.754-33.321-56.046-44.455-5.662-2.961-11.011-5.757-15.992-8.629a.999.999 0 0 1-.002-1.731l164.337-95.429-166.618-96.583c-5.282 3.063-10.514 6.253-15.579 9.341-18.809 11.468-36.575 22.3-58.131 28.085-21.938 5.887-46.266 7.758-70.354 5.409-30.896-3.013-81.181-20.136-96.243-48.771-6.743-12.819-6.054-26.748 2.048-41.401 11.163-20.189 34.718-32.507 55.5-43.375 5.039-2.635 9.827-5.139 14.322-7.681L492.113 2.154z"/><path d="M1542.316 648.263 1341.105 764.89l-251.206 145.606c-42.158 24.436-94.953 29.547-138.672 5.09-74.412-41.628-147.624-85.567-221.391-128.324l-235.653-136.59-4.154-2.408 189.867-109.272c24.454 14.137 48.359 30.593 75.925 37.994 22.67 6.086 46.639 7.656 69.968 5.38 39.213-3.826 123.91-33.446 93.371-88.702-13.936-25.216-47.362-37.948-70.936-51.547l167.946-96.655 167.946 96.655c24.433-14.093 48.316-30.498 75.846-37.874 22.623-6.061 46.54-7.623 69.819-5.357 39.122 3.807 123.811 33.294 93.492 88.505-13.861 25.241-47.285 37.989-70.828 51.601l189.87 109.272z" fill="#fff"/><path d="M1013.838 932.57c-22.481 0-44.156-5.516-63.098-16.113-49.621-27.759-99.519-57.021-147.774-85.32-24.113-14.141-49.047-28.763-73.63-43.012L489.529 649.127a1.002 1.002 0 0 1 .002-1.732l189.867-109.272c.31-.178.69-.178 1 0 4.666 2.698 9.391 5.526 13.96 8.262 19.441 11.64 39.544 23.677 61.724 29.632 21.7 5.827 45.774 7.677 69.612 5.35 30.428-2.969 79.898-19.731 94.614-47.703 6.414-12.191 5.734-25.487-2.022-39.52-10.867-19.664-34.133-31.838-54.66-42.579-5.625-2.943-10.938-5.723-15.9-8.586a1 1 0 0 1 .001-1.733l167.946-96.655a1 1 0 0 1 .998 0l167.445 96.367c4.49-2.596 9.033-5.31 13.432-7.938 19.538-11.672 39.741-23.741 62.157-29.747 21.881-5.863 46.146-7.726 70.174-5.387 30.862 3.004 81.113 20.088 96.203 48.668 6.751 12.786 6.102 26.686-1.931 41.313-11.097 20.208-34.625 32.542-55.383 43.425-5.037 2.641-9.822 5.149-14.313 7.697l188.36 108.404a1 1 0 0 1 .002 1.732L1090.4 911.358c-21.535 12.482-45.464 19.749-69.199 21.013-2.461.131-4.92.197-7.365.197zM492.03 648.266l238.309 138.13c24.587 14.251 49.523 28.875 73.639 43.017 48.246 28.293 98.135 57.55 147.739 85.299 41.076 22.979 92.547 21.08 137.682-5.082l450.918-261.364-188.37-108.409a1 1 0 0 1-.001-1.733c4.959-2.867 10.271-5.652 15.894-8.6 20.508-10.752 43.752-22.938 54.559-42.616 7.688-14.001 8.333-27.263 1.916-39.417-14.743-27.923-64.211-44.651-94.628-47.611-23.792-2.316-47.811-.474-69.463 5.328-22.146 5.933-42.228 17.93-61.648 29.532-4.568 2.729-9.292 5.551-13.957 8.242a1.001 1.001 0 0 1-.999 0l-167.446-96.368-165.936 95.498c4.494 2.543 9.28 5.048 14.318 7.683 20.776 10.871 44.325 23.193 55.483 43.383 8.102 14.659 8.788 28.594 2.041 41.419-15.063 28.63-65.317 45.75-96.19 48.762-24.076 2.349-48.395.479-70.325-5.409-22.449-6.027-42.673-18.137-62.232-29.847-4.399-2.634-8.944-5.355-13.435-7.958L492.031 648.266z"/><path d="M912.926 504.644c12.804-13.569 17.799-30.834 6.213-51.788-13.941-25.214-47.376-37.941-70.953-51.534l.04 40.793c21.69 12.511 49.613 23.693 65.711 43.785 17.631 22.005 11.581 48.83-8.651 66.58l7.639-47.837z" fill="#fff"/><path d="M905.287 553.481a1 1 0 0 1-.987-1.158l7.639-47.837c.032-.198.122-.383.26-.529 2.633-2.791 4.85-5.647 6.648-8.566-1.511-3.048-3.405-6.014-5.689-8.865-12.208-15.237-31.12-25.206-49.41-34.847-5.625-2.965-10.938-5.766-16.021-8.698a.997.997 0 0 1-.5-.865l-.04-40.793a1.001 1.001 0 0 1 1.5-.867c4.928 2.841 10.225 5.611 15.833 8.544 20.781 10.868 44.334 23.185 55.496 43.373 8.53 15.428 8.893 29.887 1.117 43.13 9.005 19.212 3.581 41.267-15.185 57.73a.998.998 0 0 1-.66.248zm8.578-48.376-7.139 44.704c15.956-15.229 20.622-34.871 13.125-52.25-1.685 2.562-3.681 5.079-5.986 7.545zm-64.639-63.568c4.899 2.809 10.031 5.515 15.455 8.374 18.47 9.736 37.569 19.803 50.038 35.365a51.766 51.766 0 0 1 5.325 8.052c6.696-12.315 6.111-25.717-1.779-39.987-10.871-19.661-34.142-31.831-54.672-42.568-5.063-2.648-9.874-5.164-14.404-7.727l.038 38.491z"/><path d="m1184.118 442.116-167.946-96.655v-40.77l167.986 96.631z" fill="#fff"/><path d="M1184.117 443.116a1 1 0 0 1-.499-.133l-167.945-96.655a1 1 0 0 1-.501-.867v-40.77a1 1 0 0 1 1.499-.867l167.986 96.632c.311.178.502.51.501.868l-.041 40.793a.999.999 0 0 1-1 .999zm-166.945-98.233 165.947 95.505.038-38.487-165.985-95.481zm410.892 75.582s1.942 14.043-4.693 26.12c-13.861 25.232-47.309 37.988-70.845 51.589l-.08 40.816c21.67-12.528 49.581-23.716 65.631-43.839 9.704-12.167 10.864-20.747 11.619-30.171z"/><path d="M1352.446 539.99a1 1 0 0 1-1-1.002l.081-40.816c0-.356.191-.686.5-.864 4.957-2.865 10.268-5.647 15.89-8.594 20.517-10.751 43.772-22.938 54.579-42.611 3.697-6.73 4.655-14.162 4.802-19.258l-.233-6.344a1 1 0 0 1 1.991-.174c.035.251.389 2.943.258 6.899l1.383 37.717c.001.039 0 .078-.003.116-.801 10-2.181 18.612-11.833 30.715-12.428 15.582-31.507 25.658-49.958 35.402-5.608 2.962-10.906 5.76-15.955 8.679a.995.995 0 0 1-.5.134zm1.08-41.238-.076 38.51c4.625-2.629 9.445-5.174 14.518-7.854 18.269-9.648 37.16-19.625 49.328-34.881 9.281-11.636 10.625-19.939 11.399-29.569l-.977-26.658c-.769 2.884-1.88 5.872-3.469 8.766-11.098 20.201-34.636 32.536-55.404 43.419-5.415 2.838-10.54 5.523-15.319 8.267z"/><path d="m1076.229 918.299 3.358-1.826.015-40.907c-29.811 16.81-68.543 19.029-101.206 10.294-24.398-6.525-46.351-22.286-67.945-34.797L585.633 662.88l-95.728-55.46.126 40.843 243.43 141.098 159.652 92.538c22.962 13.309 45.903 29.574 70.495 39.87 34.571 14.474 79.129 13.665 112.621-3.47z" fill="#fff"/><path d="M1016.298 932.993c-18.272 0-36.623-3.412-53.076-10.301-17.335-7.258-33.974-17.543-50.064-27.49-6.743-4.168-13.715-8.478-20.546-12.438L489.529 649.127a1 1 0 0 1-.499-.862l-.126-40.843a1.002 1.002 0 0 1 1.502-.869l420.546 243.643c4.768 2.762 9.648 5.741 14.368 8.621 16.938 10.336 34.451 21.025 53.334 26.075 34.984 9.355 72.537 5.544 100.456-10.199a1 1 0 0 1 1.492.872l-.015 40.907c0 .366-.201.703-.522.878l-3.357 1.826a.437.437 0 0 0-.022.012c-17.922 9.169-39.101 13.803-60.387 13.803zM491.029 647.686l402.586 233.349c6.856 3.974 13.84 8.292 20.595 12.467 16.025 9.906 32.595 20.149 49.785 27.346 35.095 14.693 78.963 13.345 111.767-3.432l2.825-1.537.015-38.616c-28.198 15.299-65.604 18.888-100.463 9.564-19.162-5.125-36.801-15.889-53.859-26.3-4.71-2.875-9.581-5.847-14.329-8.598l-419.04-242.77.119 38.528z"/><path d="m1079.586 916.473 462.73-268.21.126-40.843-462.84 268.146z"/><path d="M1079.586 917.473a.999.999 0 0 1-1-1.001l.015-40.907a1 1 0 0 1 .499-.865l462.841-268.146a1 1 0 0 1 1.502.869l-.126 40.843a.997.997 0 0 1-.499.862l-462.73 268.21a.997.997 0 0 1-.501.135zm1.015-41.331-.015 38.595 460.731-267.052.119-38.528-460.835 266.984z"/><path d="m1079.602 875.566 462.841-268.146-189.916-109.246c21.662-12.518 49.599-23.717 65.647-43.829 17.579-22.031 11.364-48.804-8.874-66.475-35.882-31.33-93.597-35.988-138.569-26.915-32.087 6.474-58.619 24.25-86.572 40.367l-167.986-96.631-167.986 96.631c21.694 12.508 49.623 23.685 65.727 43.774 17.636 22.001 11.581 48.82-8.653 66.564-35.876 31.46-93.742 36.114-138.769 27.01-32.137-6.498-58.691-24.328-86.674-40.498L489.905 607.418l245.904 142.464 159.785 92.571c22.96 13.302 46.228 30.192 71.21 39.689 35.116 13.35 79.763 11.99 112.798-6.579z" fill="#adc4cb"/><path d="M1016.499 892.042c-17.042 0-34.251-2.957-50.051-8.963-17.915-6.811-35.008-17.438-51.538-27.716-6.516-4.051-13.253-8.24-19.818-12.043L489.404 608.285a1.002 1.002 0 0 1 .002-1.732l189.913-109.246c.309-.178.69-.178.999 0 4.094 2.366 8.22 4.804 12.21 7.161 24.112 14.249 46.887 27.707 74.162 33.222 40.251 8.139 100.52 6.007 137.911-26.782 21.35-18.722 24.779-44.919 8.532-65.187-12.212-15.235-31.128-25.2-49.42-34.838-5.627-2.964-10.942-5.765-16.026-8.696a1 1 0 0 1 .001-1.733l167.986-96.631a.997.997 0 0 1 .997 0l167.486 96.344c3.921-2.265 7.87-4.593 11.692-6.847 23.169-13.661 47.126-27.786 74.684-33.346 23.922-4.827 49.865-5.43 73.05-1.701 26.738 4.301 49.69 14.275 66.375 28.843 22.258 19.435 25.875 46.702 8.999 67.852-12.428 15.575-31.518 25.653-49.979 35.399-5.051 2.667-9.85 5.2-14.44 7.808l188.405 108.377a.998.998 0 0 1 .002 1.732L1080.104 876.43l-.011.006c-18.376 10.329-40.833 15.605-63.593 15.605zM491.905 607.423l404.19 234.167c6.592 3.819 13.343 8.016 19.871 12.075 16.45 10.227 33.459 20.803 51.193 27.545 36.366 13.825 80.312 11.267 111.951-6.515l461.333-267.272-188.414-108.382a1 1 0 0 1-.001-1.733c5.079-2.935 10.392-5.74 16.016-8.709 18.28-9.65 37.182-19.629 49.35-34.878 16.163-20.255 12.646-46.416-8.75-65.098-37.404-32.66-97.562-34.789-137.713-26.688-27.227 5.493-49.977 18.907-74.063 33.109a1445.768 1445.768 0 0 1-12.208 7.144 1 1 0 0 1-.998 0l-167.487-96.344-165.976 95.475c4.595 2.604 9.396 5.133 14.448 7.795 18.474 9.733 37.576 19.797 50.049 35.356 16.963 21.161 13.437 48.465-8.774 67.942-16.678 14.625-39.657 24.637-66.453 28.952-23.225 3.74-49.211 3.132-73.173-1.713-27.605-5.582-51.589-19.754-74.783-33.46-3.823-2.259-7.772-4.593-11.694-6.863L491.907 607.423z"/><path d="M886.639 525.783c25.631-13.557 49.688-40.65 34.154-70.929-13.551-26.414-48.279-39.572-72.428-53.494l167.808-96.67-168.61-97.738c-24.463 14.137-48.376 30.591-75.95 37.991-22.68 6.087-46.659 7.655-69.997 5.379-39.198-3.823-123.974-33.429-93.417-88.692 13.943-25.216 47.378-37.943 70.958-51.538L490.133 1.375 305.577 107.496 50.57 254.127c-17.19 9.884-40.511 19.553-47.607 39.559-8.886 25.053 14.211 41.304 32.995 52.188L269.28 481.066l218.885 126.827L677.838 498.55c26.811 15.494 54.735 33.393 85.345 40.274 24.107 5.419 49.376 6.206 73.798 2.491 17.218-2.619 34.157-7.5 49.659-15.53z" fill="#dbf301"/><path d="M488.164 608.892a.997.997 0 0 1-.501-.135L35.456 346.739C15.229 335.019-6.85 318.36 2.02 293.352c6.116-17.243 23.934-26.915 39.655-35.448 2.943-1.597 5.723-3.106 8.396-4.644L489.634.508a1 1 0 0 1 .997 0l189.023 108.718a1 1 0 0 1 .001 1.733c-4.964 2.863-10.28 5.642-15.907 8.585-20.532 10.737-43.803 22.907-54.676 42.57-7.755 14.026-8.438 27.317-2.028 39.502 14.716 27.976 64.218 44.742 94.667 47.711 23.852 2.326 47.933.476 69.641-5.35 22.189-5.955 42.301-17.992 61.751-29.633 4.568-2.734 9.292-5.562 13.958-8.258.31-.179.691-.179 1.002 0l168.61 97.738a.998.998 0 0 1-.002 1.731l-166.297 95.799c4.515 2.554 9.335 5.074 14.409 7.727 21.556 11.271 45.988 24.047 56.899 45.314 7.183 14.001 6.606 28.767-1.669 42.702-6.791 11.435-18.477 21.935-32.906 29.567l-.008.004c-14.564 7.544-31.376 12.804-49.968 15.631-24.592 3.74-50.239 2.874-74.167-2.504-27.018-6.073-51.787-20.584-75.741-34.618-3.146-1.843-6.273-3.675-9.386-5.476L488.664 608.756a1.003 1.003 0 0 1-.5.134zm1.969-606.364L51.069 254.994c-2.695 1.55-5.485 3.064-8.439 4.668-15.404 8.362-32.864 17.839-38.724 34.359-8.329 23.483 11.782 38.953 32.554 50.988l451.706 261.729 189.173-109.055c.31-.178.691-.178 1 0 3.281 1.896 6.578 3.828 9.896 5.771 23.821 13.957 48.454 28.388 75.168 34.393 23.689 5.324 49.081 6.182 73.428 2.478 18.376-2.795 34.979-7.986 49.349-15.43 14.105-7.462 25.51-17.696 32.114-28.816 7.906-13.313 8.462-27.411 1.61-40.768-10.621-20.702-34.754-33.321-56.046-44.455-5.663-2.961-11.011-5.757-15.992-8.629a1 1 0 0 1 .001-1.732l166.309-95.806-166.612-96.58c-4.489 2.601-9.032 5.32-13.431 7.952-19.568 11.711-39.801 23.822-62.26 29.849-21.938 5.887-46.265 7.758-70.354 5.409-30.896-3.013-81.181-20.136-96.243-48.771-6.743-12.819-6.054-26.748 2.048-41.401 11.163-20.189 34.717-32.507 55.499-43.375 5.04-2.635 9.827-5.139 14.323-7.682z"/></svg></g><g transform="translate(1286.3999999999999 562.8) rotate(0.0 138.60000000000002 224.39999999999998) scale(1.2005717008099097 1.2000192516457482)"><svg width="230.89" height="373.994" viewBox="0 0 230.89 373.994"><path d="M229.89 281.939c0-37.619-21.497-69.232-57.117-89.863l-68.363-33.771s-48.532-12.224-77.864 7.619C16.808 172.512 1 182.825 1 205.26v65.072c0 5.64 3.101 10.824 8.071 13.491l128.777 69.107s44.313 26.199 74.648 18.722c10.311-2.541 17.393-12.04 17.393-22.66v-67.054z" fill="#adc4cb"/><path d="M200.473 374.009c-28.561 0-61.544-19.279-63.133-20.218L8.598 284.704A16.288 16.288 0 0 1 0 270.332V205.26c0-22.602 15.967-33.393 25.507-39.841l.479-.324c29.364-19.864 78.18-7.884 78.669-7.761.069.017.135.042.199.073l68.363 33.771c37.212 21.551 57.674 53.772 57.674 90.76v67.054c0 11.279-7.465 20.996-18.154 23.631-3.913.964-8.041 1.386-12.263 1.386zM71.444 155.625c-14.633 0-31.447 2.406-44.337 11.126l-.48.325c-9.806 6.628-24.626 16.644-24.626 38.184v65.072a14.292 14.292 0 0 0 7.543 12.61l128.778 69.107c.417.246 34.107 19.935 62.343 19.937 4.013 0 7.911-.397 11.593-1.305 9.793-2.414 16.632-11.332 16.632-21.688v-67.054c0-36.244-20.107-67.851-56.618-88.998l-68.207-33.691c-1.34-.324-15.485-3.624-32.623-3.624z"/><path d="M143.374 356.947h-.017a1 1 0 0 1-.984-1.016l1.134-70.861c.009-.552.462-.966 1.016-.984a1 1 0 0 1 .984 1.016l-1.134 70.861a1 1 0 0 1-1 .984z"/><path d="m144.544 198.787 1.797-52.978L75.875 174.9l-1.294 28.31c-.223 4.888 1.131 9.752 4.015 13.705 5.86 8.032 18.679 18.142 43.992 10.01 19.116-6.141 21.634-18.657 21.956-28.137z" fill="#fff"/><path d="M105.335 230.9c-15.046 0-23.442-7.769-27.547-13.396-2.95-4.044-4.443-9.136-4.206-14.339l1.294-28.31a.999.999 0 0 1 .617-.878l70.466-29.091a1.002 1.002 0 0 1 1.381.958l-1.797 52.978c-.348 10.252-3.237 22.819-22.65 29.056-6.667 2.142-12.49 3.023-17.559 3.023zm-28.49-55.318-1.265 27.674c-.217 4.75 1.141 9.392 3.824 13.069 6.314 8.656 18.879 17.355 42.878 9.647 18.226-5.855 20.937-17.622 21.262-27.219l1.745-51.428z"/><path d="m37.382 56.843-1.563 70.009a56.483 56.483 0 0 0 30.342 51.339c31.036 16.193 70.05 3.281 82.373-29.484 0 0 15.736-20.913 18.727-28.308 4.446-10.993-6.908-114.424-91.396-103.903-36.833 4.587-38.483 40.348-38.483 40.348z" fill="#fff"/><path d="M94.522 186.166a62.342 62.342 0 0 1-28.823-7.088c-19.54-10.195-31.372-30.215-30.88-52.249l1.563-70.009v-.023c.017-.366 2.12-36.657 39.358-41.294 29.322-3.654 52.821 5.734 69.849 27.895 22.454 29.222 25.319 70.648 22.598 77.376-2.922 7.227-17.379 26.569-18.769 28.42-5.805 15.319-17.55 27.021-33.086 32.959a61.072 61.072 0 0 1-21.812 4.013zM38.382 56.878l-1.563 69.996c-.475 21.266 10.945 40.59 29.805 50.43 15.261 7.962 33.119 9.049 48.996 2.98 15.04-5.749 26.396-17.088 31.979-31.93.034-.089.08-.173.137-.249.156-.208 15.691-20.892 18.598-28.082 2.542-6.286-.718-47.283-22.329-75.407-16.566-21.559-39.447-30.685-68.017-27.129-35.454 4.415-37.529 37.804-37.607 39.391z"/><path d="M117.964 1.782C103.208-.238 70.124.626 52.886 17.079c-18.178 17.35-15.521 40.533-15.521 40.533s.005-6.93 8.426-13.687c9.312-7.473 16.782-6.06 16.782-6.06s15.236 17.958 54.775 25.639c24.382 4.737 23.157 36.771 23.157 36.771l.493 28.477 5.333 18.382-.049 7s35.097-1.728 33.277-90.769c-.628-30.728-21.455-56.088-61.595-61.583z" fill="#fff"/><path d="M146.283 155.134a1 1 0 0 1-1-1.007l.048-6.854-5.292-18.242a1.052 1.052 0 0 1-.04-.262l-.493-28.477c.012-.367.9-31.29-22.349-35.807C80.03 57.273 64.31 41.274 62.073 38.809c-1.465-.14-7.909-.32-15.656 5.896-7.897 6.336-8.052 12.848-8.052 12.913-.005.528-.42.963-.948.991a.992.992 0 0 1-1.046-.882c-.027-.237-2.501-23.878 15.824-41.37C68.725.579 100.666-1.596 118.1.791c19.319 2.645 35.296 10.125 46.205 21.632 10.309 10.875 15.929 25.025 16.254 40.921.76 37.153-4.674 63.863-16.151 79.39-8.728 11.807-17.698 12.379-18.076 12.398h-.049zm-4.287-26.533 5.296 18.254c.027.093.04.189.04.286l-.041 5.824c2.527-.543 9.188-2.765 15.662-11.628 7.633-10.452 16.537-32.459 15.606-77.951-.661-32.35-23.932-55.576-60.731-60.613C106.03 1.157 71.485.71 53.576 17.803 41.743 29.097 38.932 43.06 38.368 51.057c1.278-2.38 3.371-5.163 6.797-7.913 9.562-7.672 17.271-6.324 17.594-6.263.224.042.428.161.576.334.151.177 15.531 17.792 54.204 25.306 24.935 4.844 23.979 37.462 23.966 37.791l.492 28.289z"/><path d="M74.32 133.87a10.144 10.144 0 0 1-5.558 1.648c-5.627 0-10.189-4.562-10.189-10.189s4.562-10.189 10.189-10.189" fill="#fff"/><path d="M68.762 136.518c-6.17 0-11.189-5.02-11.189-11.189s5.02-11.189 11.189-11.189a1 1 0 0 1 0 2c-5.067 0-9.189 4.123-9.189 9.189s4.123 9.189 9.189 9.189a9.154 9.154 0 0 0 5.012-1.486 1 1 0 1 1 1.092 1.676 11.153 11.153 0 0 1-6.104 1.81z"/><path d="M57.048 147.45s10.046 13.127 26.693 7.687" fill="#fff"/><path d="M75.833 157.445c-12.226 0-19.493-9.274-19.58-9.388a1 1 0 0 1 1.588-1.217c.394.513 9.839 12.492 25.589 7.345a.999.999 0 1 1 .621 1.901c-2.939.96-5.685 1.358-8.218 1.358z"/><ellipse cx="55.729" cy="103.205" rx="2.843" ry="7.677"/><path d="M55.729 111.882c-2.523 0-3.843-4.365-3.843-8.678s1.32-8.677 3.843-8.677 3.843 4.365 3.843 8.677-1.32 8.678-3.843 8.678zm0-15.355c-.535 0-1.843 2.34-1.843 6.677s1.308 6.678 1.843 6.678 1.843-2.34 1.843-6.678-1.308-6.677-1.843-6.677z"/><ellipse cx="92.871" cy="118.56" rx="2.843" ry="7.677"/><path d="M92.871 127.237c-2.523 0-3.843-4.365-3.843-8.678s1.32-8.677 3.843-8.677 3.843 4.365 3.843 8.677-1.32 8.678-3.843 8.678zm0-15.355c-.535 0-1.843 2.34-1.843 6.677s1.308 6.678 1.843 6.678 1.843-2.34 1.843-6.678-1.308-6.677-1.843-6.677z"/><path d="M47.036 86.901s11.018-6.214 20.907 6.452" fill="#fff"/><path d="M67.945 94.353a1 1 0 0 1-.789-.385c-9.253-11.851-19.526-6.255-19.628-6.196a1 1 0 1 1-.982-1.742c.117-.066 11.888-6.482 22.187 6.708a.999.999 0 0 1-.788 1.615z"/><path d="M88.301 100.741s11.018-6.214 20.907 6.452" fill="#fff"/><path d="M109.209 108.193a1 1 0 0 1-.789-.385c-9.215-11.8-19.21-6.429-19.631-6.194-.48.267-1.09.096-1.36-.384a.998.998 0 0 1 .38-1.359c.118-.066 11.888-6.483 22.187 6.708a.999.999 0 0 1-.788 1.615z"/><path d="M140.506 131.757c1.642-14.034 10.375-18.594 18.187-16.692 7.812 1.901 12.257 11.204 9.927 20.778s-16.065 19.965-23.877 18.064" fill="#fff"/><path d="M146.727 155.13a9.393 9.393 0 0 1-2.221-.252 1 1 0 1 1 .473-1.943c3.33.811 8.37-.935 13.154-4.555 4.843-3.664 8.489-8.559 9.515-12.774 1.073-4.407.686-8.881-1.09-12.599-1.743-3.648-4.62-6.124-8.101-6.971-3.561-.867-7.095-.249-9.953 1.74-3.814 2.653-6.236 7.528-7.005 14.097a1 1 0 0 1-1.986-.232c1.057-9.039 4.852-13.421 7.849-15.506 3.334-2.32 7.443-3.044 11.568-2.042 4.076.992 7.426 3.852 9.433 8.052 1.974 4.132 2.411 9.08 1.229 13.934-1.147 4.713-4.979 9.908-10.251 13.896-4.396 3.325-8.937 5.155-12.613 5.155zM26.575 294.216h-.02a1.001 1.001 0 0 1-.981-1.019l1.1-57.733c.011-.552.497-.988 1.019-.981.552.011.991.467.981 1.019l-1.1 57.733a1 1 0 0 1-1 .981z"/></svg></g><g transform="translate(1598.3999999999999 624.0) rotate(0.0 139.80000000000007 235.19999999999993) scale(1.2087151997233276 1.205677758013502)"><svg width="231.32" height="390.154" viewBox="0 0 231.32 390.154"><ellipse cx="70.394" cy="44.848" fill="#fff" rx="41.989" ry="43.848"/><path d="M70.394 89.697c-23.705 0-42.99-20.119-42.99-44.849S46.69 0 70.394 0s42.989 20.119 42.989 44.848-19.285 44.849-42.989 44.849zm0-87.697c-22.602 0-40.99 19.222-40.99 42.848s18.388 42.849 40.99 42.849 40.989-19.222 40.989-42.849S92.996 2 70.394 2z"/><path d="M229.89 298.098c0-37.619-21.497-69.232-57.117-89.863l-68.363-33.771s-48.532-12.224-77.864 7.619C16.808 188.671 1 198.984 1 221.419v65.072c0 5.64 3.101 10.824 8.071 13.491l128.777 69.107s44.313 26.199 74.648 18.722c10.311-2.541 17.393-12.04 17.393-22.66v-67.054z" fill="#dbf301"/><path d="M200.474 390.169c-28.561 0-61.545-19.279-63.134-20.218L8.599 300.864A16.288 16.288 0 0 1 0 286.491v-65.072c0-22.601 15.967-33.392 25.506-39.84l.479-.324c29.362-19.865 78.18-7.884 78.669-7.761.069.017.135.042.199.073l68.363 33.771c37.212 21.551 57.673 53.772 57.673 90.76v67.054c0 11.279-7.465 20.996-18.154 23.631-3.913.964-8.041 1.386-12.263 1.386zM71.444 171.785c-14.633 0-31.447 2.406-44.337 11.126l-.481.325C16.82 189.863 2 199.88 2 221.419v65.072a14.29 14.29 0 0 0 7.544 12.61l128.777 69.107c.417.246 34.107 19.935 62.343 19.937 4.014 0 7.911-.397 11.593-1.305 9.793-2.414 16.632-11.332 16.632-21.688v-67.054c0-36.244-20.107-67.851-56.617-88.999l-68.207-33.691c-1.34-.324-15.485-3.624-32.623-3.624z"/><path d="M143.374 373.106h-.017a1 1 0 0 1-.984-1.016l1.134-70.861a1.014 1.014 0 0 1 1.016-.984 1 1 0 0 1 .984 1.016l-1.134 70.861a1 1 0 0 1-1 .984z"/><path d="m144.792 207.653 1.55-45.684-70.466 29.091-.089 25.874c-.027 7.974 4.902 15.115 12.357 17.945 10.526 3.996 22.357 8.285 34.247 3.31 16.697-6.987 22.063-20.569 22.401-30.536z" fill="#fff"/><path d="M110.936 241.433c-8.348 0-16.317-3.025-23.148-5.619-7.805-2.963-13.031-10.551-13.002-18.884l.088-25.874a.999.999 0 0 1 .618-.921l70.466-29.091a1.002 1.002 0 0 1 1.381.958l-1.55 45.685c-.176 5.187-2.355 22.779-23.014 31.424-3.977 1.665-7.95 2.322-11.84 2.322zM76.872 191.73l-.086 25.208c-.026 7.504 4.681 14.338 11.712 17.007 9.681 3.675 21.73 8.25 33.506 3.322 19.562-8.186 21.622-24.762 21.788-29.647l1.497-44.135z"/><path d="m37.382 73.002-1.563 70.009a56.483 56.483 0 0 0 30.342 51.339c31.036 16.193 70.05 3.281 82.373-29.484 0 0 15.736-20.913 18.727-28.308 4.446-10.993-6.93-114.599-91.396-103.903-23.343 2.956-38.483 40.348-38.483 40.348z" fill="#fff"/><path d="M94.522 202.325c-9.897 0-19.8-2.381-28.823-7.089-19.54-10.194-31.372-30.215-30.879-52.248l1.563-70.009a.973.973 0 0 1 .073-.353c.627-1.549 15.631-37.97 39.284-40.964 29.271-3.705 52.75 5.624 69.777 27.734 22.528 29.255 25.403 70.785 22.672 77.536-2.923 7.226-17.379 26.568-18.769 28.419-5.805 15.319-17.55 27.021-33.087 32.96a61.07 61.07 0 0 1-21.811 4.013zM38.378 73.212l-1.559 69.821c-.475 21.267 10.945 40.59 29.805 50.43 15.261 7.962 33.119 9.049 48.996 2.98 15.04-5.748 26.397-17.088 31.979-31.93.034-.089.08-.173.137-.249.156-.208 15.691-20.892 18.598-28.082 2.551-6.308-.72-47.41-22.402-75.566-16.562-21.508-39.421-30.583-67.941-26.97C54.28 36.395 39.51 70.521 38.379 73.211z"/><path d="M124.285 19.194a105.207 105.207 0 0 0-6.32-1.253c-14.694-2.429-47.84-1.156-65.079 15.297-18.178 17.35-15.521 40.533-15.521 40.533 9.672-16.603 35.743-10.516 35.743-10.516s3.989-4.381 10.428-8.943c6.492-4.601 12.882-7.707 12.882-7.707s-3.283 4.018-7.343 9.271c-4.182 5.411-7.821 9.3-7.821 9.3s50.094 18.167 51.665 54.188l8.08 25.547 5.333 18.382-.049 7s19.848-6.768 30.673-34.37c4.354-11.103 6.896-32.677 6.913-54.225.024-27.806-21.927-54.826-59.585-62.504z" fill="#fff"/><path d="M146.283 171.293a.998.998 0 0 1-1-1.007l.048-6.854-5.293-18.242-8.073-25.524a.984.984 0 0 1-.045-.258c-1.523-34.931-50.512-53.111-51.007-53.291a1.001 1.001 0 0 1-.389-1.623c.036-.039 3.658-3.921 7.759-9.228a514.04 514.04 0 0 1 4.292-5.475c-2.351 1.33-5.405 3.171-8.462 5.337-6.265 4.439-10.228 8.758-10.267 8.801a1.004 1.004 0 0 1-.966.301c-.254-.059-25.469-5.72-34.652 10.045a1.001 1.001 0 0 1-1.858-.39c-.027-.237-2.501-23.878 15.825-41.37 17.852-17.041 52.127-17.841 65.932-15.561 2.047.339 4.13.751 6.368 1.262 18.147 3.702 33.518 12.004 44.451 24.009 10.28 11.287 15.935 25.306 15.923 39.474-.019 22.393-2.76 43.821-6.982 54.589-10.869 27.714-30.453 34.668-31.281 34.951a.995.995 0 0 1-.323.054zm-12.371-52.105 8.041 25.421 5.34 18.405c.027.093.04.189.04.286l-.039 5.489c4.576-2.091 19.829-10.528 28.731-33.23 4.14-10.555 6.826-31.697 6.845-53.861.024-29.162-24.148-54.461-58.785-61.523l-.023-.005a104.09 104.09 0 0 0-6.261-1.241c-13.482-2.23-46.918-1.485-64.225 15.034C39.754 47.156 38.242 63.99 38.241 70.704c10.108-12.855 30.74-9.322 34.526-8.544 1.169-1.219 4.82-4.857 10.19-8.662 6.484-4.595 12.958-7.759 13.023-7.791a.999.999 0 0 1 1.211 1.532c-.033.04-3.322 4.068-7.325 9.25a151.89 151.89 0 0 1-6.896 8.287c8.123 3.294 49.403 21.63 50.941 54.413z"/><ellipse cx="188.331" cy="87.788" fill="#fff" rx="41.989" ry="43.848"/><path d="M188.331 132.637c-23.705 0-42.99-20.119-42.99-44.849s19.285-44.848 42.99-44.848 42.989 20.119 42.989 44.848-19.285 44.849-42.989 44.849zm0-87.697c-22.602 0-40.99 19.222-40.99 42.848s18.388 42.849 40.99 42.849 40.989-19.222 40.989-42.849-18.388-42.848-40.989-42.848z"/><path d="M74.32 150.029a10.144 10.144 0 0 1-5.558 1.648c-5.627 0-10.189-4.562-10.189-10.189s4.562-10.189 10.189-10.189" fill="#fff"/><path d="M68.762 152.677c-6.17 0-11.189-5.02-11.189-11.189s5.02-11.189 11.189-11.189a1 1 0 0 1 0 2c-5.067 0-9.189 4.123-9.189 9.189s4.123 9.189 9.189 9.189a9.154 9.154 0 0 0 5.012-1.486 1.001 1.001 0 0 1 1.092 1.676 11.148 11.148 0 0 1-6.104 1.81z"/><path d="M57.048 163.609s10.046 13.127 26.693 7.687" fill="#fff"/><path d="M75.833 173.605c-12.226 0-19.493-9.274-19.58-9.388A1 1 0 0 1 57.841 163c.394.513 9.84 12.492 25.589 7.345a1 1 0 0 1 .621 1.901c-2.939.96-5.685 1.358-8.218 1.358z"/><ellipse cx="55.729" cy="119.364" rx="2.843" ry="7.677"/><path d="M55.729 128.042c-2.523 0-3.843-4.365-3.843-8.678s1.32-8.677 3.843-8.677 3.843 4.365 3.843 8.677-1.32 8.678-3.843 8.678zm0-15.355c-.535 0-1.843 2.34-1.843 6.677s1.308 6.678 1.843 6.678 1.843-2.34 1.843-6.678-1.308-6.677-1.843-6.677z"/><ellipse cx="92.871" cy="134.719" rx="2.843" ry="7.677"/><path d="M92.871 143.397c-2.523 0-3.843-4.365-3.843-8.678s1.32-8.677 3.843-8.677 3.843 4.365 3.843 8.677-1.32 8.678-3.843 8.678zm0-15.355c-.535 0-1.843 2.34-1.843 6.677s1.308 6.678 1.843 6.678 1.843-2.34 1.843-6.678-1.308-6.677-1.843-6.677z"/><path d="M47.036 103.06s11.018-6.214 20.907 6.452" fill="#fff"/><path d="M67.944 110.512a1 1 0 0 1-.789-.385c-9.213-11.8-19.209-6.43-19.63-6.195a1.003 1.003 0 0 1-1.36-.384.998.998 0 0 1 .38-1.359c.118-.066 11.888-6.482 22.187 6.708a.999.999 0 0 1-.788 1.615z"/><path d="M88.301 116.9s11.018-6.214 20.907 6.452" fill="#fff"/><path d="M109.209 124.352a1 1 0 0 1-.789-.385c-9.214-11.8-19.209-6.43-19.63-6.195a1.003 1.003 0 0 1-1.36-.384.998.998 0 0 1 .38-1.359c.118-.066 11.887-6.482 22.187 6.708a.999.999 0 0 1-.788 1.615z"/><path d="M140.506 147.917c1.642-14.034 10.375-18.594 18.187-16.692 7.812 1.901 12.257 11.204 9.927 20.778s-16.065 19.965-23.877 18.064" fill="#fff"/><path d="M146.695 171.286a9.22 9.22 0 0 1-2.189-.249 1 1 0 1 1 .473-1.943c7.329 1.785 20.461-8.258 22.669-17.329 1.073-4.407.686-8.881-1.09-12.599-1.743-3.648-4.62-6.124-8.101-6.971-3.562-.867-7.095-.248-9.953 1.739-3.814 2.653-6.237 7.528-7.005 14.098a1 1 0 0 1-1.986-.232c1.058-9.039 4.853-13.422 7.85-15.507 3.335-2.32 7.444-3.045 11.567-2.041 4.076.992 7.426 3.852 9.433 8.052 1.974 4.132 2.411 9.08 1.229 13.934-2.255 9.268-14.466 19.047-22.896 19.048zm-120.12 139.09h-.017a1 1 0 0 1-.984-1.016l1.1-68.733c.009-.552.448-1.008 1.016-.984a1 1 0 0 1 .984 1.016l-1.1 68.733a1 1 0 0 1-1 .984z"/></svg></g><g transform="translate(1204.8 840.0) rotate(0.0 138.60000000000002 225.0) scale(1.2005717008099097 1.2026843915619663)"><svg width="230.89" height="374.163" viewBox="0 0 230.89 374.163"><path d="m182.879 263.548-89.72-16.509 4.735-191.954s3.397-21.002 30.912-23.229c29.935-2.423 55.063 7.158 55.063 37.191z" fill="#fff"/><path d="M182.879 264.548a.924.924 0 0 1-.181-.017l-89.72-16.509a1 1 0 0 1-.818-1.008L96.895 55.06a.88.88 0 0 1 .012-.135c.035-.218 3.846-21.802 31.819-24.066 20.134-1.629 35.853 2.191 45.457 11.048 7.091 6.541 10.687 15.671 10.687 27.139l-.99 194.505a.998.998 0 0 1-1 .995zm-88.7-18.338 87.706 16.138.984-193.306c0-10.881-3.379-19.518-10.042-25.664-11.601-10.699-30.295-11.628-43.939-10.525-25.882 2.095-29.734 20.861-29.995 22.33L94.18 246.21z"/><path d="M229.89 282.107c0-37.619-21.497-69.232-57.117-89.863l-68.363-33.771s-48.532-12.224-77.864 7.619C16.808 172.68 1 182.993 1 205.428V270.5c0 5.64 3.101 10.824 8.071 13.491l128.777 69.107s44.313 26.199 74.648 18.722c10.311-2.541 17.393-12.04 17.393-22.66v-67.054z" fill="#87c159"/><path d="M200.473 374.178c-28.561 0-61.544-19.279-63.133-20.218L8.599 284.873A16.288 16.288 0 0 1 0 270.5v-65.072c0-22.6 15.965-33.391 25.505-39.839l.481-.325c29.364-19.864 78.18-7.884 78.669-7.761.069.017.135.042.199.073l68.363 33.771c37.212 21.551 57.674 53.772 57.674 90.76v67.054c0 11.279-7.465 20.997-18.154 23.631-3.913.964-8.042 1.386-12.264 1.386zM71.443 155.794c-14.633 0-31.447 2.406-44.337 11.126l-.482.326c-9.806 6.628-24.625 16.644-24.625 38.183v65.072a14.29 14.29 0 0 0 7.544 12.61l128.777 69.106c.417.246 34.107 19.935 62.343 19.937 4.013 0 7.912-.397 11.594-1.305 9.793-2.413 16.632-11.332 16.632-21.688v-67.054c0-36.244-20.107-67.851-56.618-88.998l-68.207-33.691c-1.341-.324-15.486-3.625-32.623-3.625z"/><path d="M143.374 357.115h-.017a1 1 0 0 1-.984-1.016l1.134-70.861c.009-.552.478-.983 1.016-.984a1 1 0 0 1 .984 1.016l-1.134 70.861a1 1 0 0 1-1 .984z"/><path d="m144.719 193.793 1.622-47.815-72.022 26.603v28.371c0 5.844 2.598 11.414 7.163 15.062 8.633 6.898 24.388 15.236 43.503 5.998 15.714-7.595 19.44-19.575 19.733-28.219z" fill="#fff"/><path d="M108.003 227.076c-11.993 0-21.582-5.836-27.145-10.28-4.791-3.829-7.538-9.603-7.538-15.844v-28.371c0-.418.261-.793.653-.938l72.021-26.603a1.001 1.001 0 0 1 1.346.971l-1.622 47.814c-.304 8.94-4.071 21.244-20.298 29.086-6.191 2.992-12.046 4.164-17.418 4.164zM75.32 173.278v27.674c0 5.629 2.474 10.834 6.787 14.281 9.388 7.503 24.371 14.612 42.444 5.878 15.327-7.408 18.884-18.963 19.169-27.353l1.572-46.327-69.972 25.846z"/><path d="m37.382 57.011-1.563 70.009a56.483 56.483 0 0 0 30.342 51.339c31.036 16.193 70.05 3.281 82.373-29.484 0 0 8.302-30.429 11.293-37.824 4.446-10.993.504-105.082-83.963-94.387-23.343 2.956-38.483 40.348-38.483 40.348z" fill="#fff"/><path d="M94.522 186.335c-9.897 0-19.8-2.381-28.823-7.089-19.54-10.194-31.372-30.215-30.879-52.248l1.563-70.009c.003-.121.028-.241.073-.353.627-1.549 15.631-37.969 39.284-40.964 29.253-3.706 51.875 4.533 67.237 24.482 20.728 26.918 20.306 65.02 17.778 71.271-2.935 7.257-11.173 37.409-11.255 37.712-5.816 15.475-17.584 27.228-33.167 33.184a61.07 61.07 0 0 1-21.811 4.013zM38.378 57.221l-1.559 69.822c-.475 21.267 10.946 40.59 29.805 50.43 15.262 7.963 33.119 9.048 48.995 2.981 15.04-5.749 26.397-17.088 31.98-31.931.311-1.156 8.323-30.481 11.302-37.847 2.358-5.829 2.397-43.451-17.508-69.301-14.898-19.347-36.902-27.329-65.402-23.718-21.711 2.749-36.482 36.875-37.613 39.565z"/><path d="M183.869 65.708c.024-27.806-21.927-54.826-59.585-62.504a105.207 105.207 0 0 0-6.32-1.253C103.27-.478 70.124.794 52.886 17.248c-18.178 17.35-15.521 40.533-15.521 40.533s5.263 6.396 19.985-1.168c18.08-9.29 24.96-22.016 24.96-22.016s1.555 18.768 14.277 34.193c15.804 19.161 43.919 31.654 43.919 31.654l.493 28.477 5.333 18.382-.049 7" fill="#fff"/><path d="M146.283 155.303h-.007a1 1 0 0 1-.993-1.007l.048-6.854-5.292-18.243a1.052 1.052 0 0 1-.04-.262l-.482-27.848c-4.135-1.927-29.191-14.07-43.702-31.664-10.012-12.139-13.198-26.114-14.14-31.966-2.912 4.185-10.226 13.032-23.869 20.042-15.264 7.842-20.979 1.201-21.214.914a.998.998 0 0 1-.222-.521c-.027-.237-2.501-23.878 15.824-41.37C70.047-.515 104.323-1.317 118.128.963c2.045.338 4.131.752 6.38 1.265 18.129 3.696 33.504 11.999 44.439 24.006 10.28 11.287 15.935 25.306 15.922 39.474a1 1 0 1 1-1.999-.002c.025-29.162-24.148-54.461-58.784-61.523a104.682 104.682 0 0 0-6.284-1.247C104.32.708 70.884 1.451 53.577 17.97 37.161 33.638 38.11 54.442 38.33 57.33c1.033.919 6.338 4.674 18.563-1.609 17.601-9.043 24.471-21.477 24.538-21.601a1 1 0 0 1 1.876.393c.016.185 1.689 18.65 14.052 33.639 15.467 18.753 43.274 31.252 43.554 31.376a1 1 0 0 1 .594.896l.491 28.344 5.296 18.254c.027.093.04.189.04.286l-.049 7a1 1 0 0 1-1 .993z"/><path d="M74.32 134.039a10.144 10.144 0 0 1-5.558 1.648c-5.627 0-10.189-4.562-10.189-10.189s4.562-10.189 10.189-10.189" fill="#fff"/><path d="M68.762 136.686c-6.17 0-11.189-5.02-11.189-11.189s5.02-11.189 11.189-11.189a1 1 0 0 1 0 2c-5.067 0-9.189 4.122-9.189 9.189s4.123 9.189 9.189 9.189a9.159 9.159 0 0 0 5.012-1.485 1 1 0 1 1 1.093 1.675 11.14 11.14 0 0 1-6.104 1.811z"/><path d="M57.048 147.618s10.046 13.127 26.693 7.687" fill="#fff"/><path d="M75.834 157.614c-12.226 0-19.493-9.274-19.58-9.388a1 1 0 0 1 1.588-1.217c.394.513 9.835 12.493 25.589 7.345a1 1 0 1 1 .621 1.901c-2.939.96-5.685 1.358-8.218 1.358z"/><ellipse cx="55.729" cy="103.373" rx="2.843" ry="7.677"/><path d="M55.729 112.051c-2.523 0-3.843-4.365-3.843-8.677s1.32-8.678 3.843-8.678 3.843 4.365 3.843 8.678-1.32 8.677-3.843 8.677zm0-15.355c-.535 0-1.843 2.34-1.843 6.678s1.308 6.677 1.843 6.677 1.843-2.34 1.843-6.677-1.308-6.678-1.843-6.678z"/><ellipse cx="92.871" cy="118.728" rx="2.843" ry="7.677"/><path d="M92.871 127.406c-2.523 0-3.843-4.365-3.843-8.677s1.32-8.678 3.843-8.678 3.843 4.365 3.843 8.678-1.32 8.677-3.843 8.677zm0-15.355c-.535 0-1.843 2.34-1.843 6.678s1.308 6.677 1.843 6.677 1.843-2.34 1.843-6.677-1.308-6.678-1.843-6.678z"/><path d="M47.036 87.07s11.018-6.214 20.907 6.452" fill="#fff"/><path d="M67.944 94.521a1 1 0 0 1-.789-.385c-9.214-11.8-19.209-6.429-19.631-6.194-.481.267-1.09.097-1.36-.384s-.1-1.088.38-1.359c.117-.066 11.887-6.485 22.187 6.708a.999.999 0 0 1-.788 1.615z"/><path d="M88.301 100.91s11.018-6.214 20.907 6.452" fill="#fff"/><path d="M109.209 108.361a1 1 0 0 1-.789-.385c-9.214-11.8-19.209-6.429-19.631-6.194a1.003 1.003 0 0 1-1.36-.384.998.998 0 0 1 .38-1.359c.117-.066 11.886-6.485 22.187 6.708a.999.999 0 0 1-.788 1.615z"/><path d="M140.506 131.926c1.642-14.034 10.375-18.594 18.187-16.692 7.812 1.901 12.257 11.204 9.927 20.778s-16.065 19.965-23.877 18.064" fill="#fff"/><path d="M146.695 155.296c-.765 0-1.497-.08-2.189-.249a1 1 0 1 1 .473-1.943c7.326 1.784 20.461-8.257 22.669-17.329 2.196-9.023-1.927-17.802-9.191-19.57-3.561-.866-7.095-.249-9.952 1.739-3.814 2.653-6.237 7.528-7.005 14.097a1 1 0 1 1-1.986-.232c1.058-9.039 4.853-13.422 7.85-15.507 3.333-2.319 7.441-3.045 11.567-2.041 8.336 2.029 13.119 11.892 10.662 21.986-2.255 9.268-14.466 19.047-22.896 19.048zM26.575 294.385h-.017a1 1 0 0 1-.984-1.016l1.101-68.733c.009-.552.453-1.01 1.016-.984a1 1 0 0 1 .984 1.016l-1.101 68.733a1 1 0 0 1-1 .984z"/></svg></g><g transform="translate(559.1999999999999 1197.6) rotate(0.0 195.60000000000002 296.4) scale(1.1981366402557987 1.1983213797676129)"><svg width="326.507" height="494.692" viewBox="0 0 326.507 494.692"><path d="M90.67 358.62h141.882v64.414c0 38.997-31.66 70.657-70.657 70.657h-.568c-38.997 0-70.657-31.66-70.657-70.657z" fill="#87c159"/><path d="M161.894 494.692h-.567c-39.512 0-71.657-32.146-71.657-71.657v-64.414a1 1 0 0 1 1-1h141.881a1 1 0 0 1 1 1v64.414c0 39.512-32.146 71.657-71.657 71.657zM91.669 359.62v63.414c0 38.409 31.248 69.657 69.657 69.657h.567c38.409 0 69.657-31.248 69.657-69.657V359.62H91.67z"/><path d="M280.503 274.828c27.27-28.953 43.988-67.957 43.988-110.87 0-89.33-72.416-161.745-161.745-161.745S1 74.628 1 163.958c0 42.487 16.389 81.14 43.18 110.002l.018.035c.101.1.193.2.294.3 1.214 1.3 2.442 2.586 3.698 3.846 29.855 32.356 28.789 67.349 28.789 67.349s.149 60.065 85.271 60.065c44.609 0 79.995-19.333 85.249-65.108 1.063-10.753 6.077-37.01 29.5-62.003a158.768 158.768 0 0 0 3.26-3.355c.079-.079.152-.157.231-.236l.013-.027z" fill="#fff"/><path d="M162.251 406.556c-44.398 0-65.493-16.561-75.371-30.453-10.738-15.102-10.898-29.983-10.9-30.61.011-.379.685-35.018-28.524-66.674a163.495 163.495 0 0 1-3.694-3.841l-.266-.272a1.053 1.053 0 0 1-.122-.145C15.402 244.388 0 205.113 0 163.958 0 74.22 73.008 1.213 162.746 1.213S325.492 74.22 325.492 163.958c0 41.599-15.693 81.187-44.189 111.48a.895.895 0 0 1-.11.128l-.23.235a162.849 162.849 0 0 1-3.257 3.352c-23.348 24.914-28.207 51.235-29.211 61.393-2.538 22.112-12.054 39.078-28.288 50.441-14.551 10.185-34.592 15.569-57.956 15.569zM44.993 273.378l.205.209a163.914 163.914 0 0 0 3.701 3.848c29.814 32.311 29.091 67.732 29.081 68.086 0 .114.178 14.922 10.593 29.51 13.788 19.315 39.266 29.524 73.679 29.524 28.714 0 77.842-8.344 84.255-64.222 1.023-10.346 5.974-37.188 29.764-62.573 1.07-1.069 2.13-2.16 3.263-3.358l.175-.179a.984.984 0 0 1 .067-.082c28.191-29.931 43.716-69.062 43.716-110.185-.001-88.634-72.111-160.743-160.746-160.743S2 75.322 2 163.958c0 40.685 15.24 79.509 42.913 109.322a.926.926 0 0 1 .08.098z"/><path d="M233.567 376.914v37.466c0 7.752-.832 15.497-2.715 23.017-15.214 60.739-74.882 56.191-77.654 55.83 32.733-3.25 49.51-25.616 43.155-92.155 0 0 6.47-1.447 17.737-7.638 14.612-8.029 19.478-16.519 19.478-16.519z"/><path d="M158.277 494.429c-3.187 0-5.102-.197-5.209-.21a1.001 1.001 0 0 1 .03-1.987c35.381-3.514 48.019-30.748 42.258-91.065-.048-.501.285-.96.776-1.071.064-.014 6.497-1.507 17.475-7.539 14.148-7.774 19.044-16.059 19.092-16.141a1.002 1.002 0 0 1 1.125-.467.998.998 0 0 1 .742.965v37.466c0 8.162-.924 15.988-2.745 23.26-13.071 52.181-58.133 56.789-73.544 56.789zm39.15-92.605c5.085 54.593-4.919 82.478-33.201 90.401 18.303-1.315 54.317-9.807 65.655-55.071 1.782-7.113 2.686-14.775 2.686-22.774v-34.357c-2.577 3.191-8.065 8.83-17.996 14.286-9.063 4.979-15.021 6.916-17.144 7.514z"/><path d="M325.507 162.74c0 42.92-16.72 81.92-43.99 110.87l-.01.03c-.08.08-.15.16-.23.24-1.08 1.13-2.16 2.25-3.26 3.35-23.43 24.99-28.44 51.25-29.5 62-1.79 15.54-7.04 28.03-14.95 37.75-9.24 11.36-22.11 18.95-37.3 23.189 0 0 15.405-2.56 14.95-55.939-.092-10.802 6.07-37.01 29.5-62a206.593 206.593 0 0 0 3.49-3.59l.01-.03c27.27-28.95 52.679-66.968 51.832-109.879C292.632-4.286 124.547 6.974 123.597 6.984c12.84-3.28 26.3-5.984 40.16-5.984 89.33 0 161.75 72.41 161.75 161.74z" fill="#adc4cb"/><path d="M196.266 401.17a1 1 0 0 1-.267-1.963l.315-.089c1.789-.643 14.312-6.886 13.903-54.879-.09-10.605 6.015-37.355 29.771-62.693a213.423 213.423 0 0 0 3.421-3.52.832.832 0 0 1 .081-.101c34.912-37.063 52.259-73.794 51.56-109.174-1.009-51.083-16.57-90.999-46.25-118.638C200.756 5.375 131.535 7.579 123.799 7.975l-.192.009c-.474.018-.936-.368-1.002-.87a1.001 1.001 0 0 1 .744-1.099C134.312 3.215 148.811 0 163.757 0c89.74 0 162.75 73.005 162.75 162.74 0 41.598-15.689 81.18-44.182 111.471a.916.916 0 0 1-.108.134l-.232.242a200.757 200.757 0 0 1-3.26 3.35c-23.356 24.912-28.21 51.232-29.212 61.391-1.75 15.188-6.853 28.063-15.17 38.283-8.976 11.036-21.552 18.909-37.386 23.403a3.333 3.333 0 0 1-.525.141 1.04 1.04 0 0 1-.165.014zm48.759-121.958a.887.887 0 0 1-.111.136c-.063.064-.128.127-.183.19a200.203 200.203 0 0 1-3.307 3.399c-23.3 24.852-29.295 50.957-29.207 61.284.289 33.901-5.834 47.65-10.543 53.205 12.971-4.541 23.42-11.614 31.117-21.077 8.073-9.919 13.029-22.446 14.732-37.233 1.021-10.346 5.966-37.187 29.764-62.57a204.772 204.772 0 0 0 3.266-3.356l.146-.153c.028-.041.058-.079.089-.113 28.192-29.929 43.718-69.06 43.718-110.185C324.507 74.108 252.394 2 163.757 2c-11.046 0-21.877 1.791-31.18 3.856 21.975.323 77.155 5.145 117.584 42.793 30.092 28.022 45.868 68.417 46.888 120.062.709 35.895-16.793 73.07-52.024 110.5z"/></svg></g><g transform="translate(972.0 1678.8) rotate(0.0 433.79999999999995 307.80000000000007) scale(1.198655450110595 1.1982435104875508)"><svg width="723.811" height="513.752" viewBox="0 0 723.811 513.752"><path d="m1 282.125 385.582 230.627 287.832-159.601V227.669L278.205 1 1.452 163.034z" fill="#fff"/><path d="M386.582 513.752a.993.993 0 0 1-.513-.142L.487 282.983a1 1 0 0 1-.487-.862L.452 163.03a.996.996 0 0 1 .495-.859L277.7.137a1 1 0 0 1 1.002-.005l396.209 226.669a1 1 0 0 1 .503.868v125.483a1 1 0 0 1-.515.875L387.066 513.628a.996.996 0 0 1-.485.125zM2.002 281.559l384.599 230.039 286.813-159.036V228.248L278.211 2.155 2.45 163.608l-.448 117.95z"/><path d="M674.414 353.151 386.582 512.752l-.075-119.426 287.907-165.657z"/><path d="M386.582 513.752a1 1 0 0 1-1-.999l-.075-119.427a1 1 0 0 1 .501-.867l287.907-165.657a1 1 0 0 1 1.499.866v125.483a1 1 0 0 1-.515.875L387.066 513.627a.996.996 0 0 1-.485.125zm.926-119.848.073 117.151 285.833-158.492V229.398L387.507 393.904z"/><g fill="#fff"><path d="M439.718 426.872a1 1 0 0 1-.5-1.866l215.619-124.064a1 1 0 1 1 .998 1.733l-215.62 124.064a.991.991 0 0 1-.498.134zm-4.753 24.647a1 1 0 0 1-.5-1.866l186.744-107.45a1 1 0 1 1 .998 1.733l-186.745 107.45a.991.991 0 0 1-.498.134zM278.205 1.597 1.452 163.631l385.055 230.291 287.907-165.657z"/></g><path d="M386.507 394.922a.993.993 0 0 1-.513-.142L.939 164.489a1.003 1.003 0 0 1-.487-.863.997.997 0 0 1 .495-.858L277.7.733a1 1 0 0 1 1.002-.005L674.91 227.397a.998.998 0 0 1 .003 1.735L387.005 394.789a.998.998 0 0 1-.499.133zM3.415 163.64l383.102 229.123 285.888-164.495L278.211 2.752z"/><path d="m24.293 207.41 324.996 194.373" fill="#fff"/><path d="M349.288 402.783a.993.993 0 0 1-.512-.142L23.779 208.268a1 1 0 1 1 1.027-1.716l324.997 194.372a1 1 0 0 1-.514 1.858z"/><path d="m49.908 245.626 276.817 165.557" fill="#fff"/><path d="M326.724 412.183a.993.993 0 0 1-.512-.142L49.395 246.484a1 1 0 1 1 1.027-1.716l276.816 165.557a1 1 0 0 1-.514 1.858z"/><path d="m27.508 254.715 321.781 192.449" fill="#fff"/><path d="M349.288 448.164a.993.993 0 0 1-.512-.142L26.995 255.573a1 1 0 1 1 1.027-1.716l321.781 192.449a1 1 0 0 1-.514 1.858z"/><path d="M326.603 1.597 49.849 163.631l385.055 230.291 287.907-165.657z" fill="#fff"/><path d="M434.904 394.922a.993.993 0 0 1-.513-.142L49.336 164.489a1.003 1.003 0 0 1-.487-.863.997.997 0 0 1 .495-.858L326.098.733A1 1 0 0 1 327.1.728l396.208 226.669a.998.998 0 0 1 .003 1.735L435.403 394.789a.998.998 0 0 1-.499.133zM51.813 163.64l383.102 229.123 285.888-164.495L326.609 2.752z"/><path d="M407.271 341.281a1 1 0 0 1-.507-1.863l128.128-75.198a1 1 0 0 1 1.013 1.725l-128.128 75.198a.998.998 0 0 1-.505.138zm-41.611-24.558a1 1 0 0 1-.507-1.863l225.263-132.194a1 1 0 0 1 1.013 1.725L366.166 316.585a.998.998 0 0 1-.505.138zm-41.324-24.39a1 1 0 0 1-.507-1.863l224.502-131.734a1 1 0 1 1 1.012 1.725L324.841 292.195a.998.998 0 0 1-.505.138zm39.244-89.232a1 1 0 0 1-.507-1.863l127.72-74.928a1 1 0 1 1 1.012 1.725l-127.72 74.928a.998.998 0 0 1-.505.138zm-95.275 55.894a1 1 0 0 1-.507-1.863l66.59-39.066a1 1 0 1 1 1.012 1.725l-66.59 39.066a.998.998 0 0 1-.505.138zM372.178 150.42a1 1 0 0 1-.507-1.862l77.891-45.691a1 1 0 0 1 1.012 1.725l-77.891 45.691a.998.998 0 0 1-.505.138zM227.82 235.101a1 1 0 0 1-.507-1.862l124.978-73.312a1 1 0 0 1 1.012 1.725l-124.978 73.312a.998.998 0 0 1-.505.138zm-40.212-23.733a1 1 0 0 1-.507-1.862L408.609 79.582a1 1 0 1 1 1.012 1.725L188.113 211.231a.998.998 0 0 1-.505.138z"/><path d="M351.368 46.569 130.596 176.048l-22.6-12.666 220.04-129.037z" fill="#87c159"/><path d="M130.596 177.048a.992.992 0 0 1-.489-.128l-22.6-12.666a.998.998 0 0 1-.017-1.735L327.53 33.482a.997.997 0 0 1 .97-.023l23.332 12.224a1.002 1.002 0 0 1 .042 1.748l-220.772 129.48a.994.994 0 0 1-.506.137zm-20.59-13.686 20.579 11.533L349.307 46.618l-21.244-11.13-218.057 127.875z"/><path d="M177.425 321.89 131 349.071l29.476 17.629v.026l46.847-26.955z" fill="#dbf301"/><path d="M160.476 367.726a1 1 0 0 1-.682-.269l-29.306-17.528a1.001 1.001 0 0 1 .008-1.721l46.424-27.181a1 1 0 0 1 1.019.005l29.898 17.881a1 1 0 0 1-.014 1.725l-46.847 26.955a.995.995 0 0 1-.499.133zm-27.512-18.646 27.544 16.474 44.838-25.799-27.927-16.702-44.456 26.028z"/><path d="m81.327 242.067-46.425 27.181 29.476 17.629v.026l46.846-26.955z" fill="#adc4cb"/><path d="M64.378 287.903a1 1 0 0 1-.683-.269l-29.306-17.527a1.001 1.001 0 0 1 .008-1.721l46.425-27.181a1.002 1.002 0 0 1 1.019.005l29.897 17.881a1 1 0 0 1-.014 1.725l-46.847 26.955a.995.995 0 0 1-.499.133zm-27.512-18.646L64.41 285.73l44.838-25.799-27.927-16.702-44.456 26.028z"/><path d="m302.883 444.563 20.725-12.61-29.876-17.892-20.801 12.823z" fill="#87c159"/><path d="M302.883 445.563a.991.991 0 0 1-.508-.139l-29.952-17.679a1.001 1.001 0 0 1-.017-1.713l20.8-12.823a1.002 1.002 0 0 1 1.039-.007l29.876 17.892a.998.998 0 0 1 .006 1.712l-20.725 12.61c-.16.097-.34.146-.52.146zm-28.016-18.698 28.008 16.532 18.798-11.438-27.934-16.728z"/></svg></g><g transform="translate(2013.6 1042.8) rotate(0.0 238.79999999999995 294.0) scale(1.1979742796728143 1.1990358772741918)"><svg width="398.673" height="490.394" viewBox="0 0 398.673 490.394"><path d="m300.787 323.949 5.225 11.515 15.963 9.258-5.214-11.516z" fill="#fff"/><path d="M321.975 345.723a.996.996 0 0 1-.502-.135l-15.963-9.259a1.001 1.001 0 0 1-.409-.452l-5.226-11.515a1 1 0 0 1 1.412-1.278l15.974 9.257a1 1 0 0 1 .41.453l5.214 11.516a1 1 0 0 1-.911 1.412zM306.79 334.76l12.986 7.532-3.794-8.38-12.994-7.53z"/><path d="m269.266 335.103-5.228 17.614 15.969 9.3 5.239-17.626z" fill="#fff"/><path d="M280.007 363.017a.997.997 0 0 1-.503-.136l-15.969-9.3a1.001 1.001 0 0 1-.455-1.149l5.228-17.614a1 1 0 0 1 1.461-.581l15.98 9.288a1 1 0 0 1 .456 1.149l-5.239 17.626a1 1 0 0 1-.958.715zm-14.787-10.769 14.19 8.264 4.652-15.652-14.201-8.253-4.642 15.642z"/><path d="m251.227 314.73-12.726 13.422 15.999 9.308 12.731-13.437z" fill="#fff"/><path d="M254.5 338.46a.987.987 0 0 1-.502-.136l-16-9.309a1.002 1.002 0 0 1-.223-1.552l12.726-13.421a1.001 1.001 0 0 1 1.228-.177l16.004 9.292a.998.998 0 0 1 .224 1.552l-12.73 13.438a1 1 0 0 1-.727.313zm-14.404-10.538 14.223 8.275 11.317-11.945-14.228-8.261z"/><path d="M251.168 295.523c-.998 6.348-1.177 12.879.059 19.207l16.004 9.293c-1.23-6.331-1.047-12.866-.043-19.216z" fill="#fff"/><path d="M267.231 325.022c-.173 0-.346-.045-.502-.135l-16.004-9.292a.997.997 0 0 1-.479-.673c-1.154-5.912-1.176-12.491-.065-19.554a1.002 1.002 0 0 1 1.49-.71l16.02 9.284a1 1 0 0 1 .486 1.021c-1.08 6.835-1.067 13.183.037 18.869a1 1 0 0 1-.982 1.191zm-15.107-10.928 13.765 7.992c-.749-5.157-.68-10.78.207-16.757l-14.152-8.202c-.831 6.105-.77 11.805.181 16.967z"/><path d="m257.346 274.656-12.764 1.245 16.038 9.28 12.759-1.256z" fill="#fff"/><path d="M260.621 286.181c-.175 0-.348-.046-.501-.134l-16.038-9.28a1 1 0 0 1 .404-1.861l12.763-1.245c.207-.021.417.025.598.129l16.033 9.269a1 1 0 0 1-.402 1.861l-12.758 1.256a1.072 1.072 0 0 1-.098.005zm-12.843-9.587 13.065 7.56 9.344-.919-13.063-7.552-9.346.912z"/><path d="M269.143 254.242a101.64 101.64 0 0 0-11.797 20.414l16.033 9.269a101.828 101.828 0 0 1 11.808-20.433l-16.044-9.251z" fill="#fff"/><path d="M273.379 284.925a.994.994 0 0 1-.5-.134l-16.033-9.269a1 1 0 0 1-.418-1.262 102.64 102.64 0 0 1 11.913-20.615 1 1 0 0 1 1.302-.269l16.044 9.25a1.002 1.002 0 0 1 .303 1.464 100.9 100.9 0 0 0-11.692 20.231 1 1 0 0 1-.918.604zm-14.759-10.688 14.292 8.262a102.857 102.857 0 0 1 10.807-18.699l-14.302-8.246a100.6 100.6 0 0 0-10.797 18.683z"/><path d="m263.837 242.558 5.306 11.684 16.044 9.25-5.294-11.685z" fill="#fff"/><path d="M285.187 264.492a1 1 0 0 1-.5-.134l-16.044-9.25a.997.997 0 0 1-.411-.453l-5.306-11.684a1 1 0 0 1 1.409-1.28l16.056 9.25a.991.991 0 0 1 .412.454l5.294 11.685a.997.997 0 0 1-.911 1.412zm-15.266-10.957 13.072 7.537-3.878-8.56-13.081-7.536 3.886 8.558z"/><path d="m306.047 211.163-5.253 17.716 16.05 9.214 5.264-17.728z" fill="#fff"/><path d="M316.844 239.093a.994.994 0 0 1-.498-.133l-16.05-9.214a1 1 0 0 1-.461-1.151l5.252-17.715a1 1 0 0 1 1.456-.583l16.062 9.201c.402.23.594.708.461 1.152l-5.265 17.728a1 1 0 0 1-.959.715zm-14.866-10.688 14.268 8.191 4.679-15.757-14.278-8.179-4.668 15.746z"/><path d="M300.794 228.879c-6.102 2.096-11.667 5.537-16.669 9.577l16.05 9.231c5.002-4.044 10.566-7.492 16.669-9.594z" fill="#fff"/><path d="M300.175 248.687c-.171 0-.343-.044-.499-.133l-16.05-9.231a1.001 1.001 0 0 1-.13-1.644c5.597-4.52 11.307-7.798 16.973-9.745.272-.093.572-.065.823.079l16.05 9.214a1 1 0 0 1-.172 1.813c-5.44 1.874-10.947 5.045-16.366 9.426a1 1 0 0 1-.628.222zm-14.272-10.362 14.179 8.155c4.763-3.778 9.6-6.656 14.416-8.581l-13.805-7.925c-4.92 1.75-9.888 4.556-14.79 8.351z"/><path d="m340.088 220.991-12.65 13.349 16.033 9.195 12.655-13.365z" fill="#fff"/><path d="M343.47 244.535a1 1 0 0 1-.497-.132l-16.033-9.195a1.003 1.003 0 0 1-.229-1.556l12.65-13.349a1 1 0 0 1 1.223-.18l16.038 9.179a.997.997 0 0 1 .23 1.555l-12.655 13.365a.999.999 0 0 1-.727.313zm-14.432-10.43 14.248 8.171 11.239-11.87-14.252-8.157-11.234 11.855z"/><path d="m339.959 286.693 6.176-20.724 16 9.196-6.19 20.737z" fill="#fff"/><path d="M355.945 296.902c-.173 0-.345-.045-.499-.133l-15.986-9.209a.998.998 0 0 1-.459-1.152l6.176-20.724a.998.998 0 0 1 1.457-.581l15.999 9.195a.999.999 0 0 1 .459 1.153l-6.189 20.738a.998.998 0 0 1-.958.714zm-14.802-10.681 14.205 8.184 5.602-18.768-14.217-8.171-5.589 18.755z"/><path d="m355.945 295.902 6.19-20.738-12.578 1.239c1.02-6.332 1.227-12.85.041-19.174l12.633-13.345-6.104-13.714-12.655 13.365a20.463 20.463 0 0 0-11.702-6.87l5.272-17.702-14.932 1.402-5.264 17.728c-6.103 2.102-11.667 5.55-16.669 9.594l-5.278-11.694-15.005 15.815 5.294 11.685a101.828 101.828 0 0 0-11.808 20.433l-12.759 1.256-6.19 20.902 12.757-1.276c-1.003 6.35-1.187 12.884.043 19.216l-12.73 13.438 6.25 13.632 12.71-13.433a20.448 20.448 0 0 0 11.785 6.732l-5.239 17.626 14.927-1.571 5.239-17.599c6.074-2.134 11.609-5.596 16.588-9.64l5.214 11.516 14.867-15.728-5.206-11.525a101.978 101.978 0 0 0 11.731-20.307l12.578-1.259z"/><path d="M280.007 363.017a1 1 0 0 1-.958-1.285l4.93-16.587c-4-.952-7.675-3.052-10.529-6.018l-11.972 12.652a1.003 1.003 0 0 1-1.636-.271l-6.25-13.631a.998.998 0 0 1 .183-1.104l12.379-13.067c-.988-5.422-1.037-11.394-.145-17.776l-11.479 1.148a1 1 0 0 1-1.058-1.279l6.19-20.902a1 1 0 0 1 .861-.711l12.174-1.198a102.895 102.895 0 0 1 11.337-19.618l-5.051-11.15a1 1 0 0 1 .185-1.101l15.005-15.815a1.004 1.004 0 0 1 1.638.278l4.749 10.524c5.115-3.988 10.312-6.94 15.473-8.787l5.119-17.238a.998.998 0 0 1 .865-.711l14.932-1.401a1.002 1.002 0 0 1 1.052 1.281l-4.966 16.674a21.605 21.605 0 0 1 10.458 6.136l11.908-12.576c.23-.242.565-.352.895-.298.329.057.609.274.745.579l6.104 13.714a1 1 0 0 1-.188 1.094l-12.285 12.978c.953 5.418.975 11.375.066 17.733l11.298-1.113a1.001 1.001 0 0 1 1.057 1.281l-6.189 20.738a1.001 1.001 0 0 1-.858.709l-11.995 1.201a103.12 103.12 0 0 1-11.261 19.494l4.964 10.991a1 1 0 0 1-.185 1.099l-14.867 15.729a1.002 1.002 0 0 1-1.638-.275l-4.684-10.346c-5.094 3.993-10.265 6.958-15.394 8.828l-5.094 17.113a1 1 0 0 1-.854.709l-14.927 1.571c-.035.003-.07.005-.104.005zm-6.546-26.357h.021a.998.998 0 0 1 .734.345 19.576 19.576 0 0 0 11.209 6.403 1.001 1.001 0 0 1 .778 1.268l-4.812 16.19 12.773-1.345 5.048-16.959a1 1 0 0 1 .627-.658c5.409-1.9 10.889-5.087 16.29-9.473a1.003 1.003 0 0 1 1.542.364l4.6 10.159 13.383-14.159-4.93-10.914a1.002 1.002 0 0 1 .108-1.008 101.137 101.137 0 0 0 11.616-20.108 1 1 0 0 1 .818-.598l11.911-1.192 5.572-18.668-11.096 1.093a1 1 0 0 1-1.086-1.154c1.097-6.811 1.112-13.146.045-18.83a1.002 1.002 0 0 1 .257-.872l12.174-12.861-5.224-11.735-11.625 12.276a.963.963 0 0 1-.753.312 1 1 0 0 1-.735-.353 19.578 19.578 0 0 0-11.131-6.535 1.003 1.003 0 0 1-.767-1.267l4.849-16.283-12.785 1.2-5.072 17.08a1 1 0 0 1-.633.661c-5.44 1.874-10.947 5.045-16.366 9.426a.997.997 0 0 1-1.54-.367l-4.665-10.337-13.517 14.247 5.016 11.072c.15.331.109.718-.108 1.01a100.9 100.9 0 0 0-11.692 20.231 1 1 0 0 1-.82.599l-12.089 1.19-5.576 18.83 11.276-1.128a1.001 1.001 0 0 1 1.088 1.152c-1.08 6.835-1.067 13.183.037 18.869a.997.997 0 0 1-.255.878l-12.266 12.948 5.351 11.671 11.692-12.357a1 1 0 0 1 .727-.313z"/><path d="m238.501 328.152 6.264 13.63 15.986 9.31-6.251-13.632z" fill="#fff"/><path d="M260.75 352.092a.993.993 0 0 1-.503-.136l-15.986-9.31a1.002 1.002 0 0 1-.405-.447l-6.264-13.63a1.001 1.001 0 0 1 1.411-1.282l16 9.309c.178.104.32.26.406.447l6.25 13.631a1.002 1.002 0 0 1-.909 1.417zm-15.209-11.015 12.985 7.562-4.802-10.473-12.995-7.561z"/><path d="m244.582 275.901-6.175 20.887 16.024 9.294 6.189-20.901z" fill="#fff"/><path d="M254.431 307.083a.998.998 0 0 1-.502-.135l-16.024-9.295a1 1 0 0 1-.457-1.149l6.176-20.887a.998.998 0 0 1 1.46-.582l16.038 9.28a1 1 0 0 1 .458 1.15l-6.19 20.902a.998.998 0 0 1-.959.716zm-14.842-10.766 14.245 8.263 5.605-18.928-14.257-8.249z"/><path d="m278.836 226.762-14.999 15.796 16.056 9.249 15.004-15.815z" fill="#fff"/><path d="M279.892 252.807a.998.998 0 0 1-.499-.133l-16.056-9.25a1.001 1.001 0 0 1-.226-1.556l14.999-15.795a1 1 0 0 1 1.223-.179l16.062 9.23a.999.999 0 0 1 .227 1.556l-15.005 15.815a.997.997 0 0 1-.726.312zm-14.456-10.482 14.273 8.222 13.588-14.321-14.278-8.205z"/><path d="m320.985 209.774-14.938 1.389 16.061 9.202 14.933-1.402z" fill="#fff"/><path d="M322.108 221.365a1 1 0 0 1-.497-.132l-16.062-9.201a1 1 0 0 1 .404-1.864l14.938-1.39a1 1 0 0 1 .589.128l16.056 9.189a1 1 0 0 1-.403 1.863l-14.932 1.401a.964.964 0 0 1-.093.004zm-12.823-9.498 13.045 7.473 11.473-1.077-13.041-7.464-11.478 1.068z"/><path d="M307.984 313.218c8.163-4.515 14.17-12.938 17.417-21.533 2.693-7.127 4.964-19.27-2.548-24.476-7.859-5.446-17.968 2.484-22.983 8.243-6.063 6.962-10.623 16.388-10.786 25.748-.195 11.265 8.644 17.683 18.9 12.019z" fill="#fff"/><path d="M300.56 316.302c-2.183 0-4.248-.544-6.065-1.638-4.117-2.478-6.513-7.518-6.41-13.481.154-8.896 4.175-18.514 11.032-26.388 6.326-7.265 16.487-13.827 24.306-8.408 7.366 5.104 6.335 16.598 2.914 25.651-3.694 9.778-10.207 17.816-17.869 22.055-2.661 1.469-5.365 2.208-7.908 2.208zm16.414-49.935c-7.6 0-15.313 8.55-16.349 9.741-6.552 7.524-10.394 16.676-10.54 25.108-.091 5.242 1.943 9.628 5.441 11.733 3.355 2.019 7.608 1.805 11.975-.607 7.252-4.012 13.436-11.67 16.965-21.011 1.089-2.883 6.104-17.558-2.182-23.301a9.126 9.126 0 0 0-5.31-1.663z"/><path d="m127.064 412.463 10.561 23.271 32.26 18.71-10.538-23.273z" fill="#fff"/><path d="M169.885 455.444a.996.996 0 0 1-.502-.135l-32.259-18.71a1.001 1.001 0 0 1-.409-.452l-10.561-23.271a1 1 0 0 1 1.412-1.278l32.283 18.708a1 1 0 0 1 .41.453l10.538 23.273a1 1 0 0 1-.911 1.412zm-31.481-20.415 29.282 16.984-9.118-20.137-29.302-16.981 9.138 20.135z"/><path d="M63.364 435.004 52.8 470.6l32.271 18.794 10.587-35.62z" fill="#fff"/><path d="M85.07 490.394a.997.997 0 0 1-.503-.136l-32.271-18.794a1.001 1.001 0 0 1-.455-1.149l10.564-35.596a1 1 0 0 1 1.461-.581l32.294 18.77c.399.232.587.707.456 1.15l-10.587 35.62a1 1 0 0 1-.958.715zm-31.088-20.263 30.492 17.758 10.001-33.646-30.515-17.735-9.979 33.624z"/><path d="M26.908 393.832 1.191 420.956l32.333 18.812 25.727-27.156z" fill="#fff"/><path d="M33.524 440.768a.99.99 0 0 1-.502-.136L.688 421.82a1.001 1.001 0 0 1-.223-1.552l25.717-27.124a1.001 1.001 0 0 1 1.228-.177l32.343 18.78a.998.998 0 0 1 .224 1.553L34.25 440.456a1 1 0 0 1-.727.312zM2.786 420.727l30.557 17.778 24.313-25.664-30.566-17.748-24.304 25.633z"/><path d="M26.79 355.017c-2.017 12.828-2.378 26.027.119 38.815l32.343 18.78c-2.486-12.795-2.115-26.001-.088-38.833z" fill="#fff"/><path d="M59.252 413.612c-.173 0-.346-.045-.502-.135l-32.343-18.78a.997.997 0 0 1-.479-.673c-2.31-11.827-2.352-25.003-.125-39.162a1.002 1.002 0 0 1 1.49-.71l32.374 18.762a1 1 0 0 1 .486 1.021c-2.201 13.931-2.173 26.88.082 38.486a1 1 0 0 1-.982 1.191zm-31.447-20.416 30.077 17.464c-1.874-11.085-1.811-23.301.189-36.359l-30.513-17.683c-1.939 13.202-1.856 25.498.247 36.578z"/><path d="m39.275 312.845-25.794 2.517 32.411 18.754 25.784-2.538z" fill="#fff"/><path d="M45.892 335.116c-.175 0-.348-.046-.501-.134L12.98 316.228a1 1 0 0 1 .404-1.861l25.793-2.517c.207-.021.417.025.598.129l32.402 18.733a1 1 0 0 1-.402 1.861l-25.784 2.538a1.072 1.072 0 0 1-.098.005zm-29.217-19.061 29.439 17.034 22.37-2.201-29.432-17.016-22.376 2.183z"/><path d="M63.115 271.591c-9.505 12.77-17.537 26.635-23.84 41.255l32.402 18.733c6.311-14.631 14.35-28.51 23.862-41.293z" fill="#fff"/><path d="M71.676 332.578a.994.994 0 0 1-.5-.134l-32.402-18.733a1 1 0 0 1-.418-1.262c6.303-14.62 14.363-28.567 23.957-41.456a1 1 0 0 1 1.302-.269l32.423 18.695a1 1 0 0 1 .303 1.464c-9.505 12.774-17.495 26.6-23.746 41.092a1 1 0 0 1-.918.604zm-31.13-20.152 30.66 17.726a206.906 206.906 0 0 1 22.861-39.56l-30.68-17.689c-9.091 12.324-16.771 25.612-22.841 39.524z"/><path d="m52.393 247.978 10.722 23.613 32.423 18.694-10.698-23.614z" fill="#fff"/><path d="M95.538 291.285a1 1 0 0 1-.5-.134l-32.423-18.695a.997.997 0 0 1-.411-.453l-10.722-23.612a1 1 0 0 1 1.409-1.28l32.447 18.692a.991.991 0 0 1 .412.454l10.698 23.615a.997.997 0 0 1-.911 1.412zm-31.646-20.401 29.452 16.981-9.282-20.489-29.472-16.978 9.303 20.486z"/><path d="m137.695 184.533-10.615 35.802 32.435 18.62 10.639-35.826z" fill="#fff"/><path d="M159.515 239.955a.994.994 0 0 1-.498-.133l-32.435-18.62a1 1 0 0 1-.461-1.151l10.615-35.801a1 1 0 0 1 1.456-.583l32.459 18.595c.402.23.594.708.461 1.152l-10.639 35.826a1 1 0 0 1-.959.715zm-31.251-20.094 30.653 17.597 10.053-33.855-30.675-17.573-10.031 33.832z"/><path d="M127.08 220.335c-12.332 4.237-23.578 11.19-33.686 19.353l32.435 18.656c10.108-8.172 21.353-15.14 33.686-19.389z" fill="#fff"/><path d="M125.829 259.344c-.171 0-.343-.044-.499-.133l-32.436-18.656a1.001 1.001 0 0 1-.13-1.644c11.22-9.06 22.655-15.627 33.99-19.521.272-.093.573-.065.823.079l32.435 18.62a1 1 0 0 1-.172 1.813c-11.109 3.827-22.341 10.294-33.383 19.221a1 1 0 0 1-.629.222zm-30.665-19.791 30.571 17.583c10.375-8.31 20.927-14.488 31.405-18.391l-30.163-17.316c-10.591 3.702-21.285 9.795-31.813 18.124z"/><path d="m206.488 204.394-25.564 26.977 32.401 18.583 25.575-27.009z" fill="#fff"/><path d="M213.325 250.954a1 1 0 0 1-.497-.132l-32.402-18.583a1.003 1.003 0 0 1-.229-1.556l25.565-26.977a1 1 0 0 1 1.223-.18l32.412 18.551a.997.997 0 0 1 .23 1.555l-25.575 27.009a.999.999 0 0 1-.727.313zm-30.801-19.818 30.616 17.559 24.159-25.515-30.626-17.528z"/><path d="m206.229 337.172 12.481-41.881 32.333 18.583-12.508 41.909z" fill="#fff"/><path d="M238.535 356.783c-.173 0-.345-.045-.499-.133l-32.306-18.611a.998.998 0 0 1-.459-1.152l12.481-41.88a.998.998 0 0 1 1.457-.581l32.333 18.583a.999.999 0 0 1 .459 1.153l-12.508 41.909a.998.998 0 0 1-.958.714zM207.413 336.7l30.525 17.585 11.92-39.939-30.551-17.559-11.895 39.912z"/><path d="m238.535 355.783 12.509-41.909-25.42 2.504c2.06-12.796 2.48-25.969.082-38.748l25.53-26.97-12.337-27.714-25.574 27.009c-6.101-7.191-14.392-12.075-23.649-13.883l10.655-35.775-30.177 2.833-10.639 35.826c-12.334 4.248-23.578 11.217-33.686 19.389l-10.666-23.633-30.323 31.96 10.698 23.615c-9.512 12.783-17.551 26.661-23.862 41.293l-25.784 2.538-12.509 42.24 25.78-2.578c-2.027 12.832-2.398 26.038.088 38.833l-25.727 27.156 12.631 27.548 25.686-27.147a41.316 41.316 0 0 0 23.816 13.604l-10.587 35.62 30.165-3.175 10.587-35.566c12.275-4.312 23.461-11.309 33.524-19.482l10.538 23.273 30.044-31.785-10.522-23.291a206.117 206.117 0 0 0 23.707-41.039l25.42-2.545z"/><path d="M85.07 490.394a1 1 0 0 1-.958-1.285l10.274-34.567a42.605 42.605 0 0 1-22.566-12.894l-24.938 26.355a1.003 1.003 0 0 1-1.636-.271l-12.631-27.548a1 1 0 0 1 .183-1.105l25.375-26.784c-2.136-11.347-2.201-23.917-.193-37.395l-24.496 2.45a1 1 0 0 1-1.058-1.279l12.508-42.24a.998.998 0 0 1 .861-.711l25.199-2.48a206.853 206.853 0 0 1 23.392-40.479L83.93 267.082a1.002 1.002 0 0 1 .186-1.101l30.323-31.96a1.004 1.004 0 0 1 1.638.278l10.135 22.458c10.738-8.529 21.662-14.774 32.493-18.578l10.493-35.335a.998.998 0 0 1 .865-.711l30.177-2.833a.998.998 0 0 1 1.052 1.281l-10.345 34.733c8.616 1.92 16.501 6.548 22.412 13.152l24.818-26.21a.999.999 0 0 1 1.64.281l12.336 27.714a1 1 0 0 1-.188 1.094l-25.181 26.601c2.06 11.342 2.07 23.885.03 37.309l24.133-2.377a1.001 1.001 0 0 1 1.057 1.281l-12.508 41.909a1 1 0 0 1-.858.709l-24.836 2.486a207.209 207.209 0 0 1-23.238 40.227l10.28 22.756a1 1 0 0 1-.185 1.099l-30.044 31.786a1.002 1.002 0 0 1-1.638-.275l-10.005-22.097c-10.699 8.539-21.568 14.813-32.332 18.666l-10.442 35.079a1 1 0 0 1-.854.709l-30.166 3.175c-.035.003-.07.005-.104.005zM71.841 439.17h.021a.998.998 0 0 1 .734.345 40.579 40.579 0 0 0 23.241 13.276 1.002 1.002 0 0 1 .778 1.268l-10.161 34.184 28.012-2.949 10.397-34.926a1 1 0 0 1 .627-.658c11.042-3.878 22.221-10.377 33.225-19.314a1 1 0 0 1 1.542.364l9.923 21.916 28.561-30.216-10.246-22.68a1.002 1.002 0 0 1 .108-1.008 205.175 205.175 0 0 0 23.592-40.84 1 1 0 0 1 .818-.598l24.753-2.478 11.891-39.84-23.937 2.357a.998.998 0 0 1-1.086-1.154c2.235-13.878 2.264-26.799.087-38.405a1.002 1.002 0 0 1 .257-.872l25.071-26.485-11.456-25.735-24.544 25.921a.948.948 0 0 1-.753.312 1 1 0 0 1-.735-.353c-5.929-6.988-14.125-11.8-23.078-13.548a1 1 0 0 1-.767-1.267l10.232-34.355-28.03 2.631-10.446 35.178a1 1 0 0 1-.633.661c-11.109 3.827-22.341 10.294-33.383 19.221-.241.195-.557.268-.86.195a.997.997 0 0 1-.68-.562l-10.053-22.276-28.835 30.392 10.421 23.002c.15.331.108.718-.109 1.01-9.505 12.774-17.495 26.6-23.746 41.092a1 1 0 0 1-.82.599l-25.115 2.472-11.895 40.168 24.299-2.43a1.001 1.001 0 0 1 1.088 1.152c-2.201 13.931-2.173 26.88.082 38.486a1 1 0 0 1-.255.879l-25.263 26.666 11.732 25.588 24.668-26.071a1 1 0 0 1 .727-.313z"/><path d="m1.191 420.956 12.658 27.546 32.306 18.814-12.631-27.548z" fill="#fff"/><path d="M46.155 468.316a.993.993 0 0 1-.503-.136l-32.306-18.815a1.002 1.002 0 0 1-.405-.447L.282 421.374a1.001 1.001 0 0 1 1.411-1.282l32.333 18.812c.178.104.32.26.406.447l12.631 27.548a1.002 1.002 0 0 1-.909 1.417zm-31.529-20.52 29.305 17.067-11.183-24.39-29.329-17.064z"/><path d="M13.481 315.362 1 357.573l32.384 18.783 12.508-42.24z" fill="#fff"/><path d="M33.384 377.356a.998.998 0 0 1-.502-.135L.498 358.438a1 1 0 0 1-.457-1.149l12.481-42.211a.998.998 0 0 1 1.46-.582l32.411 18.754a1 1 0 0 1 .458 1.149L34.343 376.64a1.002 1.002 0 0 1-.959.717zM2.182 357.102l30.604 17.751 11.923-40.267-30.63-17.723-11.897 40.238z"/><path d="m82.704 216.057-30.311 31.921 32.447 18.693 30.323-31.96z" fill="#fff"/><path d="M84.839 267.67a.998.998 0 0 1-.499-.133l-32.447-18.692a1.001 1.001 0 0 1-.226-1.556l30.312-31.921a1 1 0 0 1 1.223-.179l32.459 18.653a.999.999 0 0 1 .227 1.556l-30.323 31.96a.997.997 0 0 1-.726.312zm-30.847-19.924 30.665 17.665 28.906-30.466-30.675-17.628-28.896 30.43z"/><path d="m167.884 181.726-30.189 2.807 32.459 18.596 30.177-2.833z" fill="#fff"/><path d="M170.153 204.129a1 1 0 0 1-.497-.132l-32.459-18.595a1 1 0 0 1 .404-1.864l30.189-2.808a1 1 0 0 1 .589.128l32.447 18.57a1 1 0 0 1-.403 1.863l-30.177 2.833a.964.964 0 0 1-.093.004zm-29.22-18.892 29.442 16.867 26.718-2.508-29.432-16.845z"/><path d="M141.611 390.776c16.496-9.125 28.635-26.146 35.198-43.516 5.442-14.403 10.033-38.944-5.15-49.465-15.882-11.006-36.312 5.02-46.446 16.658-12.253 14.071-21.469 33.119-21.797 52.034-.395 22.765 17.469 35.735 38.194 24.288z" fill="#dbf301"/><path d="M126.628 396.04c-4.209 0-8.184-1.07-11.752-3.217-8.004-4.817-12.662-14.669-12.459-26.353.308-17.74 8.341-36.939 22.042-52.673 12.507-14.364 32.523-27.39 47.77-16.823 14.402 9.98 12.292 32.703 5.515 50.64-7.381 19.538-20.375 35.588-35.649 44.038-5.29 2.921-10.539 4.388-15.467 4.388zm33.191-100.917c-11.897 0-24.859 9.661-33.852 19.988-13.396 15.385-21.251 34.117-21.55 51.395-.19 10.962 4.105 20.16 11.491 24.605 7.107 4.277 16.064 3.847 25.22-1.208 14.865-8.223 27.53-23.894 34.746-42.995 2.249-5.952 12.587-36.251-4.784-48.289-3.518-2.438-7.337-3.495-11.271-3.495z"/><path d="m303.76 175.511 7.987 17.6 24.399 14.151-7.97-17.602z" fill="#fff"/><path d="M336.146 208.262a.996.996 0 0 1-.502-.135l-24.398-14.151a1.001 1.001 0 0 1-.409-.452l-7.987-17.6a1 1 0 0 1 1.412-1.278l24.416 14.149a1 1 0 0 1 .41.453l7.97 17.602a1 1 0 0 1-.911 1.412zm-23.62-15.855 21.421 12.424-6.55-14.466-21.436-12.422 6.564 14.464z"/><path d="m255.582 192.559-7.99 26.922 24.407 14.214 8.007-26.94z" fill="#fff"/><path d="M271.999 234.695a.997.997 0 0 1-.503-.136l-24.407-14.214a1.001 1.001 0 0 1-.455-1.149l7.99-26.922a1 1 0 0 1 1.461-.581l24.424 14.196a1 1 0 0 1 .456 1.149l-8.007 26.94a1 1 0 0 1-.958.715zm-23.225-15.683 22.629 13.178 7.421-24.966-22.645-13.162z"/><path d="m228.01 161.42-19.451 20.514 24.455 14.228 19.458-20.539z" fill="#fff"/><path d="M233.013 197.162a.99.99 0 0 1-.502-.136l-24.455-14.228a1.001 1.001 0 0 1-.223-1.552l19.451-20.514a1.001 1.001 0 0 1 1.228-.177l24.462 14.203a.998.998 0 0 1 .224 1.552l-19.458 20.54a1 1 0 0 1-.727.312zm-22.859-15.457 22.678 13.194 18.044-19.046-22.685-13.171z"/><path d="M227.92 132.063c-1.526 9.702-1.799 19.685.09 29.357l24.462 14.203c-1.88-9.677-1.6-19.665-.066-29.37l-24.485-14.19z" fill="#fff"/><path d="M252.472 176.623c-.173 0-.346-.045-.502-.135l-24.462-14.203a.997.997 0 0 1-.479-.673c-1.752-8.974-1.784-18.967-.096-29.704a1.002 1.002 0 0 1 1.49-.71l24.485 14.19a1 1 0 0 1 .486 1.021c-1.66 10.508-1.64 20.273.06 29.023a1 1 0 0 1-.982 1.191zm-23.565-15.839 22.204 12.892c-1.327-8.226-1.26-17.261.202-26.901l-22.622-13.11c-1.403 9.779-1.331 18.894.216 27.119z"/><path d="m237.363 100.168-19.508 1.903 24.513 14.184 19.501-1.919z" fill="#fff"/><path d="M242.368 117.255a.996.996 0 0 1-.501-.135l-24.514-14.184a1 1 0 0 1 .404-1.86l19.508-1.903a1 1 0 0 1 .598.13l24.506 14.168a1 1 0 0 1-.402 1.861l-19.5 1.919a1.072 1.072 0 0 1-.098.005zm-21.319-14.491 21.542 12.465 16.086-1.583-21.536-12.451-16.091 1.57z"/><path d="M255.394 68.966a155.294 155.294 0 0 0-18.031 31.202l24.506 14.168a155.62 155.62 0 0 1 18.047-31.23l-24.523-14.139z" fill="#fff"/><path d="M261.869 115.336a.994.994 0 0 1-.5-.134l-24.506-14.168a1 1 0 0 1-.418-1.262 156.353 156.353 0 0 1 18.147-31.403 1 1 0 0 1 1.302-.269l24.522 14.139a1 1 0 0 1 .303 1.464 154.7 154.7 0 0 0-17.931 31.03.998.998 0 0 1-.918.604zm-23.233-15.587L261.4 112.91a156.694 156.694 0 0 1 17.047-29.497l-22.779-13.134a154.384 154.384 0 0 0-17.032 29.47z"/><path d="m247.284 51.108 8.11 17.858 24.522 14.14-8.091-17.861z" fill="#fff"/><path d="M279.916 84.106a1 1 0 0 1-.5-.134l-24.522-14.139a.997.997 0 0 1-.411-.453l-8.109-17.858a1 1 0 0 1 1.409-1.28l24.541 14.137a.991.991 0 0 1 .412.454l8.091 17.86a.997.997 0 0 1-.911 1.412zm-23.745-15.845 21.551 12.426-6.675-14.735-21.565-12.423 6.69 14.733z"/><path d="m311.8 3.124-8.029 27.077 24.532 14.083 8.046-27.097z" fill="#fff"/><path d="M328.303 45.284c-.172 0-.344-.045-.498-.133l-24.532-14.083a.999.999 0 0 1-.46-1.151l8.029-27.077a1 1 0 0 1 1.455-.583l24.549 14.064c.402.23.594.708.461 1.152l-8.046 27.096a1 1 0 0 1-.959.716zm-23.348-15.557 22.75 13.06 7.461-25.125L312.4 4.62l-7.445 25.108z"/><path d="M303.771 30.201c-9.327 3.204-17.832 8.463-25.478 14.637l24.531 14.11c7.645-6.181 16.149-11.451 25.478-14.664z" fill="#fff"/><path d="M302.825 59.948c-.171 0-.343-.044-.499-.133l-24.532-14.11a1.001 1.001 0 0 1-.13-1.645c8.507-6.869 17.181-11.85 25.781-14.805a.998.998 0 0 1 .823.079L328.8 43.417a1 1 0 0 1-.172 1.813c-8.376 2.885-16.846 7.762-25.174 14.496a1 1 0 0 1-.629.222zm-22.759-15.243 22.665 13.036c7.665-6.121 15.458-10.708 23.205-13.661l-22.268-12.784c-7.856 2.761-15.787 7.268-23.602 13.409z"/><path d="m363.83 18.145-19.335 20.403 24.506 14.054 19.342-20.427z" fill="#fff"/><path d="M369 53.602a.991.991 0 0 1-.497-.133l-24.506-14.055a1.003 1.003 0 0 1-.229-1.555l19.335-20.403a1 1 0 0 1 1.223-.18l24.513 14.03a.997.997 0 0 1 .23 1.555l-19.342 20.427a.999.999 0 0 1-.727.313zm-22.905-15.29 22.72 13.031 17.927-18.932-22.728-13.008-17.919 18.91z"/><path d="m363.633 118.567 9.44-31.675 24.454 14.054-9.46 31.697z" fill="#fff"/><path d="M388.067 133.643c-.173 0-.345-.045-.499-.133l-24.433-14.076a.998.998 0 0 1-.459-1.152l9.439-31.675a.998.998 0 0 1 1.457-.581l24.455 14.054a1 1 0 0 1 .46 1.153l-9.461 31.697a.998.998 0 0 1-.958.714zm-23.249-15.548 22.652 13.051 8.873-29.727-22.672-13.03z"/><path d="m388.067 132.643 9.461-31.697-19.225 1.894c1.558-9.678 1.876-19.641.062-29.306l19.309-20.398-9.33-20.961-19.342 20.427c-4.615-5.439-10.885-9.133-17.886-10.5l8.058-27.057-22.823 2.142-8.046 27.096c-9.328 3.213-17.833 8.483-25.478 14.664l-8.067-17.874-22.934 24.172 8.091 17.86a155.647 155.647 0 0 0-18.047 31.23l-19.501 1.919-9.461 31.947 19.498-1.95c-1.533 9.705-1.814 19.693.066 29.37l-19.458 20.539 9.553 20.835 19.427-20.531a31.251 31.251 0 0 0 18.012 10.289l-8.007 26.94 22.815-2.401 8.007-26.899c9.284-3.261 17.744-8.553 25.355-14.734l7.97 17.602 22.723-24.04-7.958-17.616a155.884 155.884 0 0 0 17.93-31.039l19.225-1.925z"/><path d="M271.999 234.695a1 1 0 0 1-.958-1.285l7.695-25.891a32.477 32.477 0 0 1-16.761-9.578l-18.682 19.744a1.003 1.003 0 0 1-1.636-.271l-9.553-20.835a1 1 0 0 1 .183-1.105l19.106-20.167c-1.582-8.489-1.639-17.877-.17-27.931l-18.216 1.822a1 1 0 0 1-1.058-1.279l9.461-31.947a1 1 0 0 1 .861-.711l18.915-1.862a156.734 156.734 0 0 1 17.578-30.416l-7.849-17.325a1 1 0 0 1 .185-1.101l22.934-24.172a.998.998 0 0 1 1.638.277l7.537 16.7c8.024-6.337 16.186-10.994 24.283-13.854l7.901-26.605a1 1 0 0 1 .865-.711l22.823-2.143a1.002 1.002 0 0 1 1.052 1.281l-7.749 26.02a32.49 32.49 0 0 1 16.646 9.769l18.589-19.632a1.002 1.002 0 0 1 1.64.281l9.331 20.961a1 1 0 0 1-.188 1.094l-18.96 20.029c1.526 8.485 1.542 17.851.048 27.866l17.941-1.767a.999.999 0 0 1 1.057 1.281l-9.461 31.697a1 1 0 0 1-.858.709l-18.642 1.867a156.979 156.979 0 0 1-17.46 30.225l7.716 17.081a1 1 0 0 1-.185 1.099l-22.723 24.04a1.002 1.002 0 0 1-1.638-.275l-7.438-16.427c-7.995 6.344-16.116 11.023-24.162 13.919l-7.863 26.412a1 1 0 0 1-.854.709l-22.814 2.401c-.035.003-.07.005-.104.005zm-10.005-39.229h.021a.998.998 0 0 1 .734.345 30.443 30.443 0 0 0 17.438 9.961 1.002 1.002 0 0 1 .778 1.268l-7.581 25.504 20.661-2.175 7.817-26.259a1 1 0 0 1 .627-.658c8.325-2.925 16.755-7.826 25.056-14.567a1 1 0 0 1 1.542.364l7.355 16.245 21.239-22.47L350 166.02a1.002 1.002 0 0 1 .108-1.008 154.915 154.915 0 0 0 17.815-30.839 1 1 0 0 1 .818-.598l18.558-1.858 8.843-29.627-17.743 1.748a.998.998 0 0 1-1.086-1.154c1.686-10.469 1.708-20.213.067-28.963a1.002 1.002 0 0 1 .257-.872l18.85-19.913-8.45-18.982-18.312 19.339a1 1 0 0 1-1.488-.041c-4.449-5.244-10.598-8.854-17.315-10.166a1 1 0 0 1-.767-1.267l7.635-25.638-20.676 1.941-7.854 26.448a1 1 0 0 1-.633.661c-8.376 2.885-16.846 7.762-25.174 14.496a.998.998 0 0 1-1.54-.367l-7.455-16.518-21.446 22.604 7.813 17.248c.15.331.109.718-.108 1.01a154.753 154.753 0 0 0-17.932 31.03 1 1 0 0 1-.82.599l-18.831 1.854-8.847 29.875 18.017-1.802a.999.999 0 0 1 1.088 1.152c-1.66 10.508-1.64 20.273.06 29.023a1 1 0 0 1-.255.879l-18.994 20.048 8.654 18.875 18.409-19.456a1 1 0 0 1 .727-.313z"/><path d="m208.559 181.934 9.574 20.833 24.434 14.23-9.553-20.835z" fill="#fff"/><path d="M242.567 217.997a.988.988 0 0 1-.503-.136l-24.434-14.23a1.002 1.002 0 0 1-.405-.447l-9.574-20.833a1.001 1.001 0 0 1 1.411-1.282l24.455 14.228c.178.104.32.26.406.447l9.553 20.835a1.002 1.002 0 0 1-.909 1.417zm-23.657-15.935 21.433 12.482-8.105-17.677-21.45-12.48 8.123 17.675z"/><path d="m217.855 102.071-9.44 31.925 24.492 14.207 9.461-31.948z" fill="#fff"/><path d="M232.907 149.203a.998.998 0 0 1-.502-.135l-24.492-14.207a1 1 0 0 1-.457-1.149l9.439-31.925a1.002 1.002 0 0 1 1.46-.583l24.514 14.184a1 1 0 0 1 .458 1.149l-9.461 31.948a.998.998 0 0 1-.959.716zm-23.31-15.677 22.712 13.174 8.876-29.973-22.732-13.154z"/><path d="m270.209 26.966-22.925 24.142 24.541 14.137 22.934-24.172z" fill="#fff"/><path d="M271.824 66.245a1 1 0 0 1-.499-.134l-24.541-14.137a1.001 1.001 0 0 1-.226-1.555l22.925-24.142a.997.997 0 0 1 1.223-.178l24.549 14.108c.266.153.447.419.492.722.044.303-.053.61-.264.833l-22.934 24.172a.997.997 0 0 1-.726.312zm-22.94-15.37 22.758 13.11 21.517-22.678-22.766-13.083z"/><path d="M334.632 1 311.8 3.124l24.549 14.063 22.823-2.142z" fill="#fff"/><path d="M336.349 18.188a1 1 0 0 1-.497-.132L311.303 3.992a1 1 0 0 1 .404-1.863L334.539.004a.992.992 0 0 1 .589.128l24.541 14.045a1 1 0 0 1-.403 1.863l-22.823 2.143a.964.964 0 0 1-.093.004zM315.038 3.827l21.533 12.336 19.364-1.818-21.525-12.32-19.371 1.802z"/><path d="M314.762 159.108c12.476-6.901 21.657-19.774 26.621-32.912 4.116-10.893 7.588-29.454-3.895-37.411-12.012-8.324-27.463 3.797-35.128 12.599-9.267 10.642-16.237 25.049-16.485 39.354-.299 17.217 13.212 27.027 28.887 18.37z" fill="#adc4cb"/><path d="M303.414 163.293c-3.243 0-6.305-.806-8.998-2.427-6.129-3.689-9.696-11.22-9.542-20.145.234-13.474 6.332-28.051 16.73-39.993 9.526-10.939 24.788-20.846 36.453-12.764 11.008 7.629 9.418 24.934 4.26 38.586-5.603 14.83-15.47 27.016-27.073 33.434-3.986 2.201-8.032 3.309-11.831 3.309zm25.104-76.32c-11.864 0-23.797 13.223-25.405 15.069-10.094 11.593-16.013 25.704-16.239 38.715-.143 8.203 3.063 15.08 8.573 18.396 5.297 3.189 11.986 2.862 18.83-.918 11.193-6.192 20.732-17.998 26.169-32.391 1.689-4.472 9.46-27.234-3.529-36.235-2.699-1.87-5.548-2.635-8.4-2.635z"/></svg></g></svg>
