<svg width="409" height="412" viewBox="0 0 409 412" fill="none" xmlns="http://www.w3.org/2000/svg">
<g clip-path="url(#clip0_1167_5655)">
<path d="M391.114 105.897V300.238C391.115 300.513 391.051 300.784 390.926 301.029C390.802 301.275 390.621 301.486 390.398 301.648C389.867 302.036 384.276 305.214 384.276 305.214L332.188 129.185L385.046 108.633L391.114 105.897L391.114 105.897Z" fill="black"/>
<path d="M384.276 305.408C384.235 305.408 384.195 305.395 384.161 305.37C384.128 305.345 384.104 305.31 384.092 305.27L332.005 129.241C331.991 129.195 331.995 129.146 332.017 129.102C332.038 129.059 332.074 129.026 332.119 129.008L384.977 108.456L391.036 105.725C391.065 105.711 391.097 105.706 391.129 105.708C391.161 105.71 391.192 105.721 391.219 105.738C391.245 105.756 391.268 105.779 391.283 105.808C391.298 105.836 391.306 105.867 391.306 105.899V300.24C391.304 300.866 391.015 301.436 390.511 301.804C389.978 302.194 384.6 305.253 384.371 305.383C384.342 305.399 384.31 305.408 384.276 305.408L384.276 305.408ZM332.422 129.302L384.391 304.93C385.413 304.349 389.827 301.83 390.285 301.495C390.689 301.2 390.922 300.742 390.923 300.239V106.195L385.126 108.809L332.422 129.302Z" fill="black"/>
<path d="M332.214 129.208L188.921 -8.69015C188.921 -8.69015 194.14 -11.9466 195.569 -12.5294C196.45 -12.8885 197.497 -12.8864 198.565 -12.3453L384.315 94.114C388.747 96.6499 391.134 100.859 391.112 105.964L385.072 108.656L332.214 129.208Z" fill="white"/>
<path d="M332.218 129.402C332.168 129.402 332.121 129.383 332.085 129.349L188.792 -8.5496C188.771 -8.5698 188.754 -8.59451 188.745 -8.62186C188.735 -8.64921 188.731 -8.67847 188.734 -8.70742C188.737 -8.73637 188.747 -8.76425 188.762 -8.78894C188.777 -8.81363 188.798 -8.83448 188.823 -8.84991C189.037 -8.98321 194.072 -12.1217 195.5 -12.7039C196.493 -13.1088 197.614 -13.0412 198.655 -12.5133L384.414 93.9506C388.881 96.5068 391.329 100.774 391.307 105.967C391.307 106.004 391.296 106.04 391.276 106.071C391.256 106.102 391.227 106.127 391.194 106.142L385.153 108.834L332.287 129.389C332.265 129.398 332.241 129.402 332.218 129.402ZM189.235 -8.65475L332.262 128.988L385.006 108.48L390.924 105.842C390.907 100.849 388.531 96.7474 384.224 94.2829L198.473 -12.1765C197.528 -12.6555 196.547 -12.7169 195.645 -12.3492C194.408 -11.8451 190.221 -9.26589 189.235 -8.65475Z" fill="black"/>
<path d="M382.553 305.233L190.326 194.299C189.401 193.762 188.634 192.992 188.099 192.066C187.564 191.14 187.281 190.091 187.278 189.021L187.283 -5.22954C187.151 -8.01466 189.756 -10.2641 192.556 -8.84491L378.228 97.6035C382.659 100.139 385.097 104.452 385.075 109.557L385.19 303.721C385.186 305.072 383.721 305.912 382.553 305.233L382.553 305.233Z" fill="white"/>
<path d="M383.433 305.668C383.097 305.668 382.761 305.58 382.455 305.402L190.228 194.468C188.295 193.345 187.091 191.259 187.084 189.025L187.089 -5.22675C187.018 -6.721 187.713 -8.13291 188.902 -8.90263C190.006 -9.6172 191.369 -9.65742 192.641 -9.01295L378.321 97.4402C382.756 99.9779 385.287 104.396 385.265 109.561L385.38 303.724C385.377 304.428 385.012 305.057 384.401 305.407C384.107 305.578 383.773 305.668 383.433 305.668H383.433ZM190.814 -9.09205C190.216 -9.09205 189.636 -8.92159 189.11 -8.58107C188.035 -7.88527 187.407 -6.60341 187.472 -5.23575L187.467 189.024C187.474 191.123 188.605 193.081 190.42 194.136L382.647 305.07H382.647C383.136 305.355 383.72 305.356 384.211 305.075C384.701 304.794 384.995 304.289 384.996 303.724L384.882 109.561C384.903 104.462 382.506 100.276 378.13 97.7727L192.459 -8.67587C191.911 -8.95339 191.355 -9.09205 190.814 -9.09205Z" fill="black"/>
</g>
<g clip-path="url(#clip1_1167_5655)">
<path d="M442.781 190.596C444.2 194.011 443.641 198.629 441.41 200.31C439.792 201.528 427.528 208.147 427.528 208.147L317.147 128.257L359.835 56.1857C359.835 56.1857 372.235 49.3969 373.838 48.6346C374.717 48.217 375.791 48.0077 377.102 48.244C379.867 48.7424 384.953 51.9575 387.095 56.7791L442.782 190.597L442.781 190.596Z" fill="white"/>
<path d="M427.526 208.34C427.486 208.341 427.446 208.328 427.414 208.304L317.033 128.414C316.995 128.386 316.968 128.345 316.958 128.298C316.948 128.251 316.957 128.203 316.981 128.162L359.668 56.0897C359.686 56.0602 359.711 56.0359 359.741 56.0194C360.247 55.7421 372.164 49.2194 373.754 48.4634C374.781 47.9747 375.918 47.838 377.134 48.0572C380.002 48.5742 385.119 51.8665 387.267 56.703L442.956 190.525C444.449 194.12 443.78 198.765 441.523 200.464C439.912 201.678 428.118 208.047 427.617 208.318C427.589 208.333 427.558 208.341 427.526 208.341L427.526 208.34ZM317.399 128.206L427.541 207.923C428.746 207.272 439.784 201.295 441.293 200.158C443.386 198.582 444.01 194.06 442.603 190.672L386.916 56.8543C384.823 52.143 379.85 48.9362 377.066 48.4341C375.931 48.2294 374.872 48.3557 373.918 48.8092C372.388 49.5372 360.8 55.8762 359.971 56.3302L317.399 128.206Z" fill="black"/>
<path d="M389.405 62.3333L442.78 190.598C444.198 194.012 443.64 198.63 441.409 200.311C439.791 201.529 427.527 208.148 427.527 208.148L329.143 136.941L374.282 70.5478L389.405 62.3334L389.405 62.3333Z" fill="black"/>
<path d="M427.526 208.339C427.485 208.339 427.446 208.326 427.413 208.302L329.029 137.095C328.989 137.066 328.962 137.022 328.953 136.973C328.944 136.924 328.955 136.874 328.983 136.832L374.122 70.4389C374.139 70.4136 374.162 70.3928 374.189 70.3784L389.312 62.164C389.335 62.1511 389.361 62.1434 389.388 62.1412C389.415 62.1391 389.442 62.1426 389.467 62.1515C389.492 62.1605 389.515 62.1747 389.535 62.1931C389.554 62.2116 389.57 62.234 389.58 62.2588L442.956 190.523C444.449 194.119 443.779 198.763 441.523 200.463C439.912 201.676 428.118 208.045 427.616 208.316C427.588 208.331 427.557 208.339 427.526 208.339V208.339ZM329.404 136.894L427.54 207.922C428.745 207.27 439.784 201.293 441.292 200.157C443.386 198.58 444.01 194.059 442.602 190.67L389.308 62.6018L374.412 70.6926L329.404 136.894V136.894Z" fill="black"/>
<path d="M428.939 198.553C430.664 202.108 430.189 206.189 427.958 207.869C426.341 209.088 423.416 209.266 421.479 208.203L311.942 147.859C307.382 145.357 304.597 140.816 303.305 136.214C301.718 130.558 305.494 126.956 306.79 125.237L356.943 59.0184C357.774 57.9206 359.592 55.0316 363.296 55.6993C366.061 56.1978 368.751 57.6981 370.348 61.3414L428.939 198.553H428.939Z" fill="#ADC4CB"/>
<path d="M424.452 209.092C423.366 209.092 422.276 208.854 421.389 208.367L311.852 148.023C307.714 145.752 304.614 141.575 303.123 136.262C301.696 131.176 304.558 127.678 306.096 125.798C306.307 125.54 306.489 125.317 306.639 125.118L356.792 58.8989C356.849 58.8241 356.91 58.741 356.976 58.651C357.881 57.4218 359.765 54.8641 363.331 55.5071C366.697 56.1139 369.117 58.0497 370.525 61.2608L429.115 198.47C430.861 202.071 430.404 206.264 428.075 208.019C427.134 208.727 425.795 209.092 424.451 209.092L424.452 209.092ZM362.217 55.787C359.561 55.787 358.108 57.7607 357.285 58.8781C357.217 58.9694 357.155 59.0541 357.097 59.1303L306.945 125.349C306.79 125.554 306.606 125.78 306.392 126.041C304.793 127.995 302.118 131.265 303.491 136.158C304.339 139.178 306.575 144.69 312.036 147.688L421.573 208.031C423.407 209.038 426.279 208.892 427.845 207.712C430.034 206.064 430.44 202.076 428.769 198.633C428.768 198.63 428.766 198.627 428.765 198.624L370.174 61.4128C368.822 58.3275 366.496 56.4668 363.264 55.8839C362.918 55.8205 362.568 55.7881 362.217 55.787Z" fill="black"/>
<path d="M372.638 146.07L359.656 138.907L359.595 86.3044L372.638 93.4405V146.07Z" fill="#DBF301"/>
<path d="M372.636 146.263C372.603 146.263 372.571 146.255 372.543 146.239L359.561 139.077C359.531 139.061 359.506 139.036 359.489 139.007C359.471 138.977 359.462 138.944 359.462 138.91L359.401 86.3066C359.401 86.2733 359.409 86.2406 359.426 86.2117C359.442 86.1827 359.466 86.1586 359.495 86.1416C359.523 86.1246 359.556 86.1154 359.589 86.1148C359.622 86.1142 359.655 86.1223 359.684 86.1382L372.727 93.2743C372.789 93.308 372.827 93.3724 372.827 93.4423V146.071C372.827 146.122 372.807 146.171 372.771 146.207C372.735 146.243 372.686 146.263 372.635 146.263L372.636 146.263ZM359.845 138.796L372.444 145.747V93.556L359.784 86.6296L359.845 138.796Z" fill="black"/>
<path d="M372.638 151.713V165.985L359.656 158.822L359.64 144.551L372.638 151.713Z" fill="#DBF301"/>
<path d="M372.637 166.175C372.605 166.175 372.573 166.167 372.545 166.151L359.563 158.989C359.533 158.973 359.508 158.949 359.49 158.919C359.473 158.89 359.464 158.856 359.464 158.822L359.447 144.55C359.447 144.517 359.456 144.484 359.472 144.455C359.489 144.426 359.513 144.402 359.541 144.385C359.57 144.368 359.602 144.359 359.636 144.359C359.669 144.358 359.702 144.366 359.731 144.382L372.73 151.544C372.76 151.561 372.785 151.585 372.802 151.614C372.82 151.644 372.829 151.677 372.829 151.712V165.984C372.829 166.035 372.809 166.083 372.773 166.119C372.737 166.155 372.688 166.175 372.638 166.175H372.637ZM359.847 158.708L372.446 165.66V151.825L359.83 144.875L359.847 158.708Z" fill="black"/>
</g>
<g clip-path="url(#clip2_1167_5655)">
<path d="M349.155 121.569L349.244 364.644C349.241 365.395 348.878 366.019 348.347 366.407C347.683 366.892 340.686 370.868 340.686 370.868L275.417 150.697L341.562 124.991L349.155 121.569V121.569Z" fill="black"/>
<path d="M340.685 371.062C340.643 371.062 340.603 371.049 340.57 371.024C340.537 370.999 340.512 370.965 340.501 370.925L275.232 150.753C275.218 150.707 275.222 150.658 275.243 150.614C275.264 150.571 275.301 150.538 275.346 150.52L341.49 124.814L349.074 121.396C349.103 121.383 349.135 121.378 349.167 121.38C349.199 121.382 349.23 121.393 349.257 121.41C349.284 121.427 349.306 121.451 349.321 121.479C349.337 121.508 349.345 121.539 349.345 121.571L349.434 364.646C349.431 365.415 349.076 366.113 348.458 366.564C347.793 367.05 341.065 370.875 340.779 371.037C340.75 371.054 340.718 371.062 340.685 371.062ZM275.65 150.814L340.8 370.584C341.971 369.918 347.649 366.681 348.232 366.255C348.75 365.877 349.048 365.29 349.05 364.646L348.961 121.868L341.639 125.168L275.65 150.814Z" fill="black"/>
<path d="M275.451 150.731L96.1396 -21.7475C96.1396 -21.7475 102.671 -25.8204 104.459 -26.5492C105.561 -26.9982 106.872 -26.9959 108.208 -26.3191L340.647 106.836C346.193 110.008 349.215 115.218 349.187 121.604L341.594 125.025L275.45 150.731L275.451 150.731Z" fill="white"/>
<path d="M275.453 150.923C275.403 150.923 275.355 150.903 275.32 150.869L96.0089 -21.6097C95.9879 -21.6299 95.9718 -21.6547 95.9618 -21.6821C95.9518 -21.7094 95.9482 -21.7387 95.9512 -21.7677C95.9543 -21.7967 95.9639 -21.8247 95.9793 -21.8494C95.9948 -21.8741 96.0156 -21.895 96.0404 -21.9105C96.3076 -22.0771 102.606 -26.0005 104.389 -26.7271C105.618 -27.2283 107.006 -27.1443 108.297 -26.4906L340.745 106.67C346.342 109.871 349.409 115.175 349.382 121.604C349.382 121.641 349.371 121.677 349.351 121.708C349.331 121.738 349.302 121.763 349.269 121.778L341.676 125.2L275.522 150.91C275.5 150.918 275.476 150.923 275.453 150.923ZM96.4526 -21.7151L275.497 150.508L341.527 124.846L348.998 121.479C348.985 115.249 345.99 110.111 340.554 107.002L108.115 -26.1533C106.916 -26.7601 105.675 -26.8374 104.534 -26.3723C102.96 -25.731 97.5831 -22.4161 96.4524 -21.7151H96.4526Z" fill="black"/>
<path d="M338.529 370.898L97.8956 231.955C96.7387 231.283 95.778 230.32 95.1089 229.162C94.4398 228.004 94.0856 226.691 94.0816 225.354L94.0875 -17.4187C93.9227 -20.9022 97.1821 -23.7157 100.687 -21.9407L333.027 111.201C338.573 114.373 341.624 119.767 341.596 126.153L341.829 369.007C341.824 370.696 339.991 371.747 338.529 370.898Z" fill="#DBF301"/>
<path d="M339.633 371.39C339.22 371.39 338.808 371.281 338.433 371.063C338.058 370.845 97.7995 232.12 97.7995 232.12C95.3962 230.724 93.8983 228.131 93.8898 225.354L93.8958 -17.4191C93.8079 -19.2735 94.6687 -21.0232 96.1424 -21.9766C97.5097 -22.861 99.1977 -22.9103 100.773 -22.1122L333.123 111.035C338.739 114.247 341.816 119.616 341.788 126.153L342.021 369.006C342.018 369.869 341.569 370.641 340.821 371.07C340.459 371.279 340.05 371.389 339.633 371.39L339.633 371.39ZM98.509 -22.3018C97.7506 -22.3018 97.0176 -22.0861 96.3508 -21.6547C94.9912 -20.7753 94.1974 -19.1558 94.2791 -17.4284L94.2733 225.353C94.2814 227.995 95.7062 230.46 97.9918 231.788L338.625 370.731L338.625 370.731C339.252 371.095 340.001 371.097 340.63 370.737C341.258 370.377 341.635 369.73 341.637 369.006L341.404 126.153C341.432 119.758 338.423 114.508 332.932 111.368L100.591 -21.7747C99.8971 -22.1262 99.1929 -22.3018 98.509 -22.3018Z" fill="black"/>
<g clip-path="url(#clip3_1167_5655)">
<path d="M171.258 184.612C160.891 184.264 143.075 171.996 141.361 150.591L125.917 140.576C125.449 150.894 124.834 164.199 131.558 174.624C142.031 190.86 165.626 213.042 165.626 213.042C165.626 213.042 166.283 216.572 184.835 204.833C197.097 197.074 200.905 171.082 188.248 146.318C182.101 135.541 176.853 124.449 157.273 114.544C150.83 111.285 149.552 110.545 149.552 110.545L123.663 125.849C123.663 125.849 166.522 150.648 164.805 150.591L171.258 184.612Z" fill="black"/>
<path d="M190.776 107.208L174.491 115.522V99.2679L190.776 90.6028V107.208Z" fill="black"/>
<path d="M173.106 99.5263L115.97 66.033L132.787 56.9915L190.497 90.731L173.106 99.5263Z" fill="white"/>
<path d="M149.534 110.598L133.115 120.285L132.13 90.0757L149.698 91.7131L149.534 110.598Z" fill="black"/>
<path d="M140.915 150.573L125.892 159.274L110.13 150.491L125.728 140.64L140.915 150.573Z" fill="white"/>
<path d="M174.025 154.443C163.599 134.043 147.165 120.166 132.995 120.343L133.071 120.226V91.6316L174.408 115.11V99.3482L116.205 66.1833L116.154 129.526L123.933 134.248C135.567 133.649 150.658 140.371 159.884 156.569C167.644 170.197 168.958 188.523 159.452 193.686C150.791 198.39 127.807 184.308 125.81 159.357L109.638 150.556C109.17 160.874 112.601 171.918 119.325 182.342C134.183 205.656 160.099 216.439 170.303 212.552C183.865 207.386 186.682 179.207 174.025 154.443Z" fill="#87C159"/>
<path d="M165.319 213.669C160.124 213.669 153.387 211.69 146.507 208.017C135.693 202.242 125.937 193.17 119.036 182.47C112.229 171.917 108.881 160.846 109.352 150.453C109.356 150.372 109.402 150.298 109.474 150.258C109.546 150.219 109.633 150.219 109.704 150.26L125.606 159.345C125.674 159.384 125.718 159.453 125.724 159.53C127.022 175.754 137.39 186.873 145.874 191.465C151.191 194.344 156.206 195.062 159.289 193.388C162.019 191.905 163.936 189.287 164.987 185.607C167.216 177.796 165.063 166.136 159.628 156.594C149.81 139.353 134.242 133.858 123.895 134.391C123.848 134.393 123.801 134.381 123.76 134.357L115.981 129.635C115.911 129.592 115.868 129.516 115.868 129.434L115.878 66.1733C115.878 66.0897 115.922 66.0124 115.994 65.9703C116.067 65.9283 116.156 65.9278 116.229 65.9692L174.656 99.0946C174.73 99.1364 174.775 99.2144 174.775 99.2989V115.196C174.775 115.28 174.73 115.357 174.658 115.399C174.585 115.441 174.496 115.441 174.423 115.4L133.238 91.8902L133.254 120.014C147.301 120.044 163.708 133.748 174.183 154.244C178.366 162.429 181.062 171.413 181.979 180.225C182.836 188.464 182.057 196.251 179.785 202.152C177.687 207.601 174.412 211.306 170.314 212.867C168.899 213.406 167.211 213.669 165.319 213.669L165.319 213.669ZM109.806 150.86C109.438 161.043 112.762 171.876 119.431 182.216C126.29 192.849 135.984 201.865 146.729 207.602C155.997 212.551 164.971 214.4 170.148 212.428C174.117 210.916 177.298 207.304 179.347 201.983C184.154 189.496 181.911 170.397 173.765 154.458C163.358 134.094 147.093 120.484 133.21 120.484C133.121 120.484 133.035 120.484 132.947 120.486C132.852 120.488 132.78 120.44 132.738 120.364C132.696 120.288 132.699 120.195 132.747 120.122L132.785 120.064L132.768 91.485C132.768 91.4011 132.812 91.3239 132.885 91.2818C132.957 91.2398 133.047 91.2395 133.119 91.2809L174.305 114.791V99.4352L116.348 66.5766L116.338 129.302L123.943 133.918C134.427 133.408 150.136 138.976 160.037 156.362C165.53 166.007 167.701 177.811 165.439 185.736C164.352 189.542 162.359 192.256 159.513 193.801C156.29 195.551 151.107 194.833 145.65 191.879C140.659 189.177 135.972 184.888 132.452 179.801C128.349 173.872 125.866 166.921 125.265 159.691L109.806 150.86Z" fill="black"/>
<path d="M160.206 193.012C151.586 199.744 127.396 184.552 125.399 159.601L141.653 150.653C142.667 163.323 148.773 172.452 156.186 178.142C156.186 178.142 169.572 186.87 160.206 193.012Z" fill="black"/>
<path d="M165.54 183.572C159.876 181.52 156.92 178.564 154.293 176.923C156.264 179.878 162.256 186.965 163.241 189.647C164.029 189.581 165.102 185.57 165.54 183.572Z" fill="black" stroke="black" stroke-width="0.166053"/>
<path d="M109.555 150.491L125.727 140.64L141.242 150.655L125.399 159.603" stroke="black" stroke-width="0.464947"/>
<path d="M116.124 66.1878L132.871 57.1577L190.335 90.6509L174.409 99.1884" stroke="black" stroke-width="0.464947"/>
<path d="M149.37 110.513C159.139 115.356 177.629 122.61 187.848 146.001" stroke="black" stroke-width="0.464947"/>
<path d="M171.617 211.981C175.721 210.531 182.699 206.727 187.624 202.459" stroke="black" stroke-width="0.464947"/>
</g>
</g>
<g clip-path="url(#clip4_1167_5655)">
<path d="M134.823 243.363C134.823 241.654 134.372 239.977 133.516 238.498C132.66 237.02 131.429 235.793 129.947 234.942L46.7676 186.078C46.1017 185.697 45.3742 185.637 44.7241 185.822C44.148 185.985 36.9868 190.631 36.9868 190.631L123.725 269.591L134.824 243.363L134.823 243.363Z" fill="white"/>
<path d="M123.724 269.782C123.676 269.782 123.63 269.764 123.595 269.732L36.8571 190.772C36.8354 190.752 36.8185 190.728 36.8078 190.7C36.797 190.673 36.7927 190.644 36.7951 190.615C36.7975 190.585 36.8065 190.557 36.8215 190.532C36.8366 190.507 36.8572 190.486 36.8818 190.47C37.6173 189.993 44.0841 185.803 44.6712 185.637C45.409 185.427 46.187 185.525 46.8621 185.911L130.044 234.776C133.109 236.537 135.014 239.827 135.014 243.362C135.014 243.388 135.009 243.413 134.999 243.437L123.9 269.665C123.886 269.7 123.861 269.729 123.83 269.75C123.798 269.771 123.762 269.782 123.724 269.782ZM37.2984 190.656L123.653 269.267L134.631 243.324C134.617 239.94 132.788 236.795 129.851 235.107L46.6699 186.242C46.087 185.908 45.4138 185.824 44.7757 186.005C44.3828 186.116 40.1678 188.797 37.2984 190.656V190.656Z" fill="black"/>
<path d="M123.788 248.199L126.81 283.949C126.81 283.949 133.73 279.624 134.189 279.113C134.616 278.637 134.886 278.005 134.886 277.278V243.303L123.788 248.199L123.788 248.199Z" fill="black"/>
<path d="M126.809 284.139C126.761 284.139 126.715 284.121 126.68 284.089C126.644 284.056 126.622 284.012 126.619 283.964L123.596 248.214C123.593 248.175 123.602 248.135 123.623 248.101C123.643 248.066 123.673 248.039 123.71 248.023L134.809 243.127C134.838 243.115 134.87 243.109 134.901 243.112C134.933 243.114 134.964 243.125 134.99 243.142C135.017 243.16 135.039 243.183 135.054 243.211C135.069 243.239 135.077 243.271 135.077 243.302V277.277C135.077 278.017 134.819 278.695 134.331 279.24C133.867 279.756 127.621 283.666 126.911 284.11C126.88 284.129 126.845 284.14 126.809 284.14L126.809 284.139ZM123.989 248.318L126.974 283.619C129.743 281.885 133.732 279.333 134.045 278.984C134.47 278.511 134.694 277.921 134.694 277.277V243.596L123.989 248.318Z" fill="black"/>
<path d="M40.013 190.376L123.192 239.24C124.674 240.091 125.905 241.318 126.761 242.796C127.617 244.274 128.068 245.952 128.068 247.66V281.636C128.068 283.759 125.766 285.085 123.927 284.021L41.2957 236.095C39.6913 235.166 38.3593 233.833 37.4333 232.228C36.5074 230.622 36.02 228.802 36.02 226.949V192.685C36.02 190.637 38.2364 189.356 40.013 190.376Z" fill="white"/>
<path d="M125.308 284.588C124.8 284.588 124.292 284.454 123.83 284.186L41.1987 236.26C37.8857 234.343 35.8276 230.775 35.8276 226.949V192.685C35.8276 191.654 36.3607 190.73 37.2534 190.214C38.1461 189.698 39.213 189.696 40.1074 190.21L40.1091 190.211L123.288 239.075C126.353 240.835 128.258 244.125 128.258 247.66V281.635C128.258 282.702 127.706 283.657 126.782 284.189C126.32 284.455 125.814 284.588 125.308 284.588H125.308ZM38.6839 190.209C38.2486 190.21 37.8213 190.326 37.4453 190.546C36.6723 190.993 36.2106 191.792 36.2106 192.685V226.949C36.2106 230.639 38.1955 234.08 41.3907 235.929L124.022 283.855C124.826 284.32 125.786 284.321 126.59 283.858C127.395 283.394 127.875 282.564 127.875 281.636V247.66C127.875 244.262 126.044 241.099 123.096 239.406L39.9165 190.542C39.5419 190.325 39.1169 190.21 38.6839 190.209Z" fill="black"/>
<path d="M66.8127 232.821C66.8167 230.434 66.1356 228.122 64.5318 226.39V226.322C67.4316 226.5 66.5814 220.424 66.0854 218.768C64.8401 214.609 60.6643 212.967 57.4097 211.035L57.4771 234.546C59.2249 235.633 62.4435 238.672 64.8062 238.422C67.2449 238.163 66.8133 234.61 66.8125 232.821L66.8127 232.821ZM60.4266 216.218C62.2288 217.295 63.4714 218.07 63.4382 220.458C63.449 223.561 62.9861 224.008 60.4397 222.467L60.4266 216.218ZM60.4619 233.063L60.4467 225.837C62.49 227.082 63.7795 228.033 63.7553 230.72C63.7601 234.482 63.6349 235.023 60.4619 233.063Z" fill="#ADC4CB"/>
<path d="M64.5196 238.623C62.7223 238.623 60.6001 237.048 58.8764 235.768C58.3208 235.356 57.7957 234.966 57.3743 234.704C57.3467 234.687 57.324 234.663 57.3082 234.635C57.2924 234.607 57.284 234.575 57.2839 234.542L57.2163 211.031C57.2163 210.997 57.2253 210.964 57.2423 210.935C57.2593 210.906 57.2837 210.882 57.3131 210.865C57.3425 210.848 57.3757 210.839 57.4096 210.84C57.4434 210.84 57.4765 210.849 57.5056 210.866C58.0307 211.178 58.5693 211.476 59.1393 211.792C61.9807 213.366 65.2012 215.149 66.2672 218.709C66.6482 219.981 67.328 224.209 66.0246 225.851C65.7253 226.228 65.3439 226.446 64.8874 226.5C66.2766 228.128 67.0065 230.305 67.0023 232.817C67.0023 233.032 67.0088 233.273 67.0157 233.531C67.0666 235.455 67.1434 238.362 64.8248 238.608C64.7242 238.619 64.6222 238.623 64.5196 238.623ZM57.6667 234.436C58.0839 234.703 58.5808 235.072 59.1049 235.461C60.7803 236.705 63.0748 238.408 64.7844 238.227C66.7515 238.018 66.6829 235.431 66.6329 233.541C66.626 233.279 66.6195 233.035 66.6195 232.816V232.816C66.6239 230.274 65.8528 228.096 64.3895 226.515C64.3568 226.48 64.3386 226.434 64.3386 226.386V226.318C64.3386 226.292 64.3439 226.266 64.3543 226.242C64.3646 226.218 64.3798 226.196 64.3988 226.178C64.4179 226.161 64.4404 226.147 64.4649 226.138C64.4895 226.129 64.5157 226.125 64.5418 226.127C65.0398 226.157 65.4262 225.989 65.7247 225.613C66.8679 224.173 66.321 220.223 65.9003 218.818C64.8792 215.408 61.867 213.74 58.9538 212.126C58.4851 211.867 58.0378 211.619 57.6004 211.365L57.6667 234.436V234.436ZM62.8906 234.361C62.3273 234.361 61.5193 233.938 60.3596 233.221C60.3319 233.204 60.3091 233.18 60.2932 233.152C60.2773 233.124 60.2689 233.091 60.2689 233.059L60.2538 225.833C60.2537 225.799 60.2627 225.766 60.2798 225.736C60.297 225.707 60.3217 225.683 60.3513 225.666C60.381 225.649 60.4146 225.641 60.4486 225.641C60.4827 225.642 60.5159 225.652 60.545 225.669C62.6773 226.968 63.9702 227.956 63.9453 230.717C63.948 232.808 63.9206 233.917 63.3037 234.261C63.1832 234.328 63.0461 234.361 62.8906 234.361ZM60.6517 232.952C61.8595 233.693 62.7399 234.137 63.117 233.927C63.5357 233.693 63.5645 232.558 63.5623 230.716C63.5847 228.232 62.4736 227.312 60.6375 226.175L60.6517 232.952ZM62.4763 223.513C61.9332 223.513 61.2138 223.156 60.339 222.627C60.3109 222.61 60.2876 222.586 60.2714 222.557C60.2553 222.529 60.2468 222.496 60.2467 222.464L60.2337 216.214C60.2336 216.18 60.2425 216.146 60.2595 216.117C60.2766 216.088 60.3011 216.063 60.3306 216.047C60.36 216.03 60.3935 216.021 60.4274 216.022C60.4613 216.022 60.4945 216.032 60.5236 216.049C62.2779 217.098 63.6634 217.926 63.6284 220.456C63.634 222.069 63.5225 223.07 62.936 223.401C62.8006 223.478 62.6473 223.513 62.4765 223.513L62.4763 223.513ZM60.6294 222.355C61.7797 223.042 62.4158 223.256 62.7474 223.068C63.1922 222.817 63.2497 221.663 63.2454 220.454C63.2757 218.274 62.1779 217.491 60.6174 216.551L60.6294 222.355Z" fill="black"/>
<path d="M89.4166 245.352L86.3765 243.494C86.3703 244.808 87.2222 249.126 84.8806 248.371C83.484 247.92 83.1295 246.137 83.0554 244.893C82.9105 242.455 83.074 239.957 83.0834 237.515C83.0905 235.639 82.7711 233.426 83.1133 231.573C83.37 230.183 83.9891 229.826 85.1763 230.766C86.8345 232.077 86.4178 234.624 86.4092 236.472L89.4549 238.309L89.4677 235.944C89.4863 232.386 87.9673 229.033 84.9879 227.137C82.2681 225.406 80.2045 226.267 79.9448 229.607C79.6588 233.29 79.9073 237.084 79.8964 240.771C79.8912 242.544 79.8322 244.302 80.3265 246.027C81.0985 248.724 83.2335 251.495 85.951 252.362C90.0718 253.677 89.4032 247.808 89.4166 245.352V245.352Z" fill="#ADC4CB"/>
<path d="M87.0337 252.741C86.6856 252.741 86.3039 252.675 85.8909 252.543C82.9264 251.597 80.8667 248.615 80.1406 246.079C79.6828 244.479 79.6919 242.832 79.7009 241.239L79.7032 240.769C79.7069 239.57 79.6824 238.335 79.6588 237.142C79.6096 234.655 79.5587 232.083 79.7523 229.59C79.8815 227.928 80.455 226.797 81.4112 226.319C82.3826 225.835 83.6544 226.061 85.0892 226.974C87.9694 228.807 89.6773 232.16 89.6577 235.943L89.6449 238.308C89.6447 238.342 89.6356 238.375 89.6184 238.404C89.6012 238.433 89.5766 238.458 89.5471 238.474C89.5176 238.491 89.4842 238.499 89.4503 238.498C89.4165 238.498 89.3834 238.488 89.3544 238.471L86.3087 236.634C86.2804 236.617 86.2569 236.593 86.2407 236.564C86.2245 236.535 86.2161 236.502 86.2163 236.469C86.2176 236.173 86.2291 235.865 86.2413 235.54C86.3041 233.861 86.3754 231.958 85.0561 230.914C84.5502 230.514 84.1584 230.361 83.8917 230.461C83.6207 230.563 83.4218 230.948 83.3002 231.606C83.0731 232.835 83.143 234.237 83.2106 235.593C83.2441 236.265 83.2757 236.899 83.2734 237.514C83.2703 238.328 83.2496 239.162 83.2299 239.969C83.1901 241.587 83.1487 243.261 83.2451 244.88C83.3215 246.164 83.6772 247.78 84.9379 248.187C85.3213 248.311 85.6102 248.29 85.8208 248.123C86.4922 247.592 86.3411 245.713 86.2411 244.47C86.2095 244.077 86.1824 243.737 86.1835 243.491C86.1836 243.457 86.1928 243.424 86.2101 243.395C86.2273 243.366 86.252 243.341 86.2817 243.325C86.3114 243.308 86.3449 243.3 86.3788 243.301C86.4128 243.301 86.446 243.311 86.4749 243.329L89.5149 245.187C89.543 245.204 89.5662 245.228 89.5822 245.257C89.5982 245.286 89.6066 245.318 89.6064 245.351C89.6049 245.632 89.6125 245.965 89.6206 246.317C89.6684 248.41 89.7343 251.278 88.312 252.341C87.9564 252.607 87.5288 252.74 87.0339 252.74L87.0337 252.741ZM82.5132 226.453C82.1733 226.453 81.8616 226.522 81.5822 226.662C80.7529 227.076 80.2522 228.099 80.1341 229.62C79.9418 232.094 79.9926 234.656 80.0416 237.135C80.0653 238.33 80.0896 239.567 80.0862 240.77L80.0839 241.242C80.0747 242.88 80.0659 244.427 80.5088 245.973C81.2069 248.411 83.1778 251.275 86.0075 252.178C86.896 252.462 87.5746 252.415 88.0826 252.035C89.3469 251.09 89.2811 248.223 89.2376 246.326C89.2298 246.037 89.225 245.747 89.2231 245.458L86.5781 243.841C86.5887 244.017 86.605 244.22 86.6226 244.439C86.7354 245.843 86.8899 247.766 86.0581 248.423C85.7437 248.672 85.3272 248.715 84.82 248.551C83.3532 248.078 82.946 246.306 82.8625 244.902C82.7652 243.268 82.8066 241.586 82.8466 239.959C82.8665 239.155 82.8868 238.323 82.89 237.512C82.8923 236.908 82.8609 236.278 82.8276 235.612C82.7589 234.234 82.688 232.81 82.9232 231.537C83.0729 230.727 83.3454 230.258 83.7567 230.103C84.1632 229.951 84.666 230.118 85.2933 230.614C86.765 231.778 86.6867 233.872 86.6237 235.554C86.6126 235.824 86.6046 236.093 86.5998 236.363L89.2635 237.969L89.2746 235.941C89.2935 232.291 87.6518 229.059 84.8832 227.297C84.0031 226.737 83.2008 226.453 82.5132 226.453V226.453Z" fill="black"/>
<path d="M97.679 245.945L102.378 237.736L99.0546 235.763L99.051 235.77L99.047 235.767L94.7245 243.838L94.6691 243.805L94.7413 233.202L91.4747 231.262V231.271L91.4672 231.267L91.3223 255.596L94.5677 257.613V257.604L94.5751 257.609L94.6259 250.146L95.6457 248.545L98.7628 260.221L102.154 262.329L102.151 262.318L102.162 262.325L97.679 245.945Z" fill="#ADC4CB"/>
<path d="M102.147 262.518C102.114 262.518 102.081 262.509 102.053 262.491L98.6622 260.384C98.6208 260.358 98.5908 260.317 98.5783 260.27L95.5734 249.015L94.8174 250.202L94.7669 257.61C94.7666 257.657 94.7489 257.703 94.7173 257.737C94.6857 257.772 94.6423 257.794 94.5955 257.799C94.5511 257.808 94.5052 257.799 94.4666 257.776L91.2212 255.758C91.1934 255.741 91.1705 255.717 91.1547 255.688C91.1389 255.66 91.1307 255.627 91.1309 255.595L91.2758 231.266C91.276 231.22 91.293 231.175 91.3237 231.14C91.3544 231.105 91.3966 231.083 91.4426 231.077C91.487 231.068 91.5333 231.075 91.5726 231.098L94.8393 233.037C94.868 233.054 94.8918 233.079 94.9083 233.108C94.9247 233.137 94.9332 233.17 94.9329 233.203L94.8651 243.171L98.8783 235.677C98.8921 235.651 98.9114 235.629 98.935 235.612C98.9586 235.595 98.9858 235.584 99.0145 235.579C99.0612 235.569 99.1114 235.574 99.1525 235.598L102.476 237.572C102.519 237.598 102.551 237.639 102.563 237.688C102.576 237.736 102.569 237.788 102.544 237.831L97.8847 245.971L102.346 262.274C102.354 262.301 102.355 262.33 102.35 262.357C102.346 262.385 102.335 262.411 102.319 262.434C102.302 262.457 102.281 262.477 102.257 262.491C102.233 262.505 102.206 262.513 102.178 262.515C102.167 262.517 102.157 262.518 102.147 262.518L102.147 262.518ZM98.9287 260.098L101.851 261.915L97.4947 245.995C97.488 245.971 97.4862 245.946 97.4894 245.921C97.4925 245.896 97.5006 245.872 97.5131 245.85L102.119 237.805L99.1254 236.028L94.8938 243.929C94.8816 243.952 94.8648 243.972 94.8444 243.988C94.8241 244.004 94.8007 244.016 94.7756 244.023C94.7505 244.03 94.7243 244.032 94.6985 244.028C94.6727 244.024 94.648 244.016 94.6258 244.002L94.5702 243.968C94.5419 243.951 94.5185 243.927 94.5023 243.898C94.4862 243.869 94.4779 243.837 94.4781 243.804L94.5495 233.31L91.6572 231.593L91.515 255.49L94.3864 257.275L94.435 250.144C94.4352 250.108 94.4458 250.073 94.4649 250.043L95.4845 248.442C95.5044 248.411 95.533 248.386 95.5669 248.371C95.6009 248.355 95.6385 248.35 95.6754 248.356C95.7122 248.361 95.7466 248.377 95.7742 248.402C95.8019 248.427 95.8217 248.46 95.8311 248.496L98.9289 260.099L98.9287 260.098Z" fill="black"/>
<path d="M78.7001 247.74L75.5577 221.811L70.9903 219.099L70.9892 219.107L70.9831 219.104L67.8384 240.996L70.6593 242.75L70.6604 242.742L70.6665 242.746L71.2013 238.781L75.0041 241.126L75.5351 245.781L78.6928 247.744L78.6917 247.734L78.7001 247.74ZM74.5844 237.627L71.5912 235.793L73.0713 224.6L73.0775 224.603L73.0786 224.595L73.1353 224.629L74.5917 237.622L74.5835 237.618L74.5844 237.627Z" fill="#ADC4CB"/>
<path d="M78.6863 247.933C78.653 247.933 78.6202 247.923 78.5918 247.906L75.4341 245.943C75.4095 245.928 75.3888 245.907 75.3734 245.883C75.3579 245.859 75.3482 245.831 75.345 245.802L74.8246 241.24L71.3519 239.098L70.8565 242.771C70.8509 242.813 70.8316 242.852 70.8017 242.881C70.7718 242.911 70.7329 242.93 70.6911 242.935C70.6456 242.944 70.5983 242.936 70.5586 242.912L67.7377 241.159C67.7061 241.139 67.681 241.11 67.6653 241.077C67.6496 241.043 67.6441 241.006 67.6494 240.969L70.7941 219.076C70.7999 219.035 70.8188 218.997 70.848 218.968C70.8771 218.939 70.915 218.92 70.9559 218.914C71.0011 218.904 71.0485 218.911 71.0886 218.935L75.656 221.646C75.6812 221.661 75.7026 221.682 75.7186 221.706C75.7347 221.731 75.7448 221.759 75.7483 221.788L78.8907 247.717C78.8937 247.742 78.8918 247.767 78.8849 247.792C78.878 247.816 78.8663 247.839 78.8505 247.859C78.8347 247.879 78.8152 247.895 78.7929 247.907C78.7707 247.919 78.7462 247.927 78.721 247.93C78.7097 247.932 78.6982 247.933 78.6867 247.933L78.6863 247.933ZM75.715 245.667L78.4631 247.375L75.3791 221.927L71.1332 219.406L68.0458 240.9L70.5153 242.435L71.0116 238.755C71.0158 238.724 71.0279 238.694 71.0467 238.668C71.0655 238.642 71.0905 238.621 71.1194 238.608C71.1482 238.594 71.1801 238.588 71.212 238.59C71.2439 238.591 71.2748 238.601 71.3019 238.618L75.1047 240.963C75.1547 240.994 75.1878 241.046 75.1945 241.104L75.715 245.667V245.667ZM74.5779 237.816C74.5449 237.816 74.5125 237.807 74.4843 237.79L71.4911 235.956C71.4596 235.936 71.4343 235.908 71.4184 235.875C71.4025 235.841 71.3966 235.804 71.4015 235.767L72.8816 224.575C72.887 224.533 72.906 224.494 72.9356 224.464C72.9653 224.435 73.0039 224.416 73.0455 224.41C73.0905 224.4 73.1375 224.408 73.1773 224.431L73.2338 224.465C73.2851 224.495 73.319 224.548 73.3255 224.608L74.7819 237.601C74.7875 237.651 74.7729 237.702 74.7413 237.741C74.7097 237.781 74.6637 237.807 74.6134 237.812C74.6016 237.814 74.5897 237.816 74.5778 237.816L74.5779 237.816ZM71.7975 235.694L74.3587 237.264L73.0884 225.931L71.7975 235.694Z" fill="black"/>
</g>
<g clip-path="url(#clip5_1167_5655)">
<path d="M107.09 62.2025C107.787 63.3999 107.805 65.3247 107.231 66.4463C106.899 67.0959 101.468 70.0914 101.468 70.0914L73.71 22.8135C73.71 22.8135 76.9405 20.8498 78.3446 20.0428C80.1415 19.0102 82.4062 19.9308 83.2119 21.234L107.09 62.2023V62.2025Z" fill="white"/>
<path d="M101.466 70.2892C101.4 70.2892 101.335 70.2551 101.299 70.1942L73.5409 22.9164C73.5155 22.8731 73.5082 22.8217 73.5205 22.7731C73.5328 22.7245 73.5638 22.6827 73.6067 22.6565C73.6391 22.6368 76.8555 20.6822 78.2456 19.8834C80.0827 18.8275 82.468 19.6762 83.3733 21.1401L107.254 62.1127C107.962 63.3275 108.027 65.3131 107.4 66.5392C107.059 67.2072 102.475 69.76 101.559 70.2649C101.531 70.2806 101.499 70.2889 101.466 70.289L101.466 70.2892ZM73.9684 22.8854L101.537 69.8395C103.625 68.6813 106.84 66.7898 107.057 66.3658C107.622 65.261 107.559 63.4013 106.92 62.3048L83.0427 21.3365C82.2493 20.0532 80.0633 19.2808 78.438 20.2149C77.2313 20.9084 74.6393 22.4784 73.9684 22.8854Z" fill="black"/>
<path d="M83.2095 21.2356L107.087 62.2039C107.785 63.4013 107.802 65.326 107.229 66.4476C106.896 67.0973 101.466 70.0928 101.466 70.0928L75.3125 25.5484L83.2095 21.2356Z" fill="black"/>
<path d="M101.469 70.2864C101.403 70.2864 101.339 70.2524 101.303 70.1915L75.1493 25.6471C75.1363 25.625 75.1279 25.6006 75.1246 25.5753C75.1213 25.5499 75.1232 25.5242 75.13 25.4995C75.1369 25.4749 75.1487 25.4519 75.1646 25.4318C75.1806 25.4118 75.2004 25.3951 75.223 25.3829L83.12 21.07C83.164 21.046 83.2158 21.04 83.2642 21.0534C83.3126 21.0668 83.3538 21.0985 83.379 21.1418L107.257 62.1101C107.965 63.3249 108.03 65.3105 107.403 66.5366C107.062 67.2047 102.478 69.7575 101.562 70.2623C101.534 70.2781 101.502 70.2864 101.469 70.2864ZM75.5812 25.6238L101.54 69.8367C103.629 68.6786 106.843 66.7869 107.06 66.363C107.625 65.2583 107.563 63.3986 106.924 62.3021L83.1404 21.4954L75.5812 25.6238Z" fill="black"/>
<path d="M105.676 42.0513L100.473 45.0929L85.1619 54.0126L79.4653 45.1099L101.013 32.6868C102.501 31.8318 105.111 32.2582 107.055 35.9071C108.705 39.0053 107.638 40.985 105.676 42.0513H105.676Z" fill="white"/>
<path d="M85.1622 54.2005C85.1298 54.2005 85.0979 54.1924 85.0695 54.1769C85.0411 54.1614 85.017 54.139 84.9996 54.1119L79.303 45.2091C79.2891 45.1874 79.2798 45.163 79.2755 45.1376C79.2713 45.1121 79.2723 45.0861 79.2784 45.061C79.2846 45.036 79.2958 45.0124 79.3113 44.9918C79.3268 44.9711 79.3464 44.9538 79.3688 44.9409L100.916 32.5178C101.655 32.0935 102.561 32.0028 103.467 32.2621C104.471 32.5492 105.938 33.3984 107.224 35.814C109.24 39.5973 107.18 41.4475 105.77 42.2143L100.571 45.2543L85.2592 54.1742C85.2298 54.1914 85.1963 54.2005 85.1622 54.2005ZM79.7353 45.1718L85.2247 53.7507L100.376 44.9242L105.578 41.8828C105.58 41.8819 105.582 41.8809 105.583 41.8798C107.153 41.0268 108.653 39.3132 106.885 35.9932C105.661 33.6962 104.293 32.8963 103.361 32.6297C102.556 32.3995 101.756 32.4772 101.109 32.8488L79.7353 45.1716V45.1718Z" fill="black"/>
<path d="M107.798 37.9407C108.14 39.8955 107.165 41.2329 105.674 42.0432L100.472 45.0847L85.1608 54.0045L83.8105 51.8945L107.797 37.9409L107.798 37.9407Z" fill="black"/>
<path d="M85.1626 54.2011C85.1302 54.2012 85.0983 54.1931 85.0698 54.1776C85.0414 54.1621 85.0174 54.1397 85 54.1125L83.6498 52.0025C83.6359 51.9808 83.6265 51.9565 83.6222 51.9311C83.618 51.9057 83.6189 51.8798 83.625 51.8547C83.6311 51.8297 83.6422 51.8062 83.6577 51.7855C83.6731 51.7649 83.6926 51.7476 83.715 51.7346L107.702 37.7808C107.729 37.7651 107.759 37.7561 107.79 37.7546C107.821 37.7531 107.852 37.7591 107.88 37.7722C107.908 37.7852 107.933 37.8048 107.952 37.8294C107.971 37.854 107.983 37.8827 107.989 37.9132C108.397 40.2506 107.007 41.5434 105.768 42.2165L100.571 45.255L85.2595 54.1749C85.2301 54.1921 85.1967 54.2011 85.1626 54.2011ZM84.0817 51.9646L85.2251 53.7514L100.377 44.9249L105.579 41.8835C106.662 41.2948 107.867 40.1962 107.649 38.2548L84.0817 51.9646Z" fill="black"/>
<path d="M92.8101 49.5545L100.748 44.9301C102.548 43.8964 103.668 41.8243 102.018 38.726C100.074 35.0771 97.5577 34.7173 96.0689 35.5723L87.5216 40.4807L78.1087 24.3302C77.348 22.7801 74.9919 21.6361 73.4522 23.0201C72.3078 24.0485 72.4271 26.2373 73.2481 27.6515L82.35 43.4505L74.483 47.9682C72.7496 48.9637 72.1501 51.1889 73.1509 52.9129L74.6008 55.4106C75.7321 57.3595 78.2376 58.0274 80.197 56.9021L87.6115 52.5828L96.3768 67.7974C97.6997 70.0262 99.4543 70.6537 101.022 70.2765C102.738 69.8631 102.965 66.9772 101.987 65.2985L92.8103 49.5545H92.8101Z" fill="#87C159"/>
<path d="M100.167 70.5665C98.6503 70.5665 97.2439 69.6277 96.2122 67.8897L87.5424 52.8407L80.2956 57.0624C79.8083 57.3441 79.2696 57.5269 78.7108 57.6002C78.1519 57.6734 77.584 57.6357 77.0399 57.4892C76.4953 57.3456 75.9846 57.096 75.5376 56.7548C75.0905 56.4136 74.7159 55.9876 74.4355 55.5014L72.9856 53.0037C72.476 52.1256 72.3415 51.0989 72.607 50.1128C72.8725 49.1267 73.5051 48.3044 74.388 47.7974L82.089 43.375L73.0828 27.7419C72.2297 26.2723 72.0794 23.9925 73.3248 22.8732C73.953 22.3087 74.7799 22.0901 75.653 22.258C76.7473 22.4683 77.8043 23.2655 78.2832 24.2413L87.5934 40.2144L95.9744 35.4015C96.7248 34.9706 97.6285 34.8734 98.5191 35.1281C99.4901 35.4058 100.915 36.239 102.19 38.6312C103.642 41.3586 103.14 43.7734 100.846 45.0908L93.0745 49.6183L102.155 65.1976C102.827 66.3515 102.954 68.0296 102.456 69.1873C102.163 69.8703 101.683 70.3095 101.068 70.4574C100.773 70.5291 100.471 70.5657 100.167 70.5663L100.167 70.5665ZM87.6128 52.3866C87.6467 52.3866 87.6799 52.3955 87.7092 52.4124C87.7385 52.4293 87.7628 52.4536 87.7796 52.4828L96.5449 67.6974C97.6848 69.6179 99.3006 70.4892 100.978 70.0856C101.599 69.936 101.932 69.4329 102.102 69.0371C102.549 67.9986 102.428 66.4303 101.821 65.3897L92.6452 49.6457C92.6198 49.6019 92.6127 49.5498 92.6257 49.5009C92.6387 49.452 92.6706 49.4102 92.7145 49.3846L100.653 44.7603C101.659 44.1825 103.787 42.4478 101.849 38.8109C100.638 36.5375 99.3119 35.7537 98.4125 35.4963C97.6236 35.2706 96.8258 35.3547 96.1666 35.7334L87.6193 40.6417C87.5752 40.667 87.5227 40.6739 87.4735 40.6608C87.4243 40.6477 87.3823 40.6157 87.3567 40.5719L77.9436 24.4212C77.5086 23.5359 76.5613 22.8225 75.5797 22.6336C75.0483 22.5314 74.27 22.5391 73.5826 23.157C72.5146 24.1169 72.6343 26.2039 73.4162 27.551L82.5184 43.3505C82.5437 43.3944 82.5505 43.4466 82.5372 43.4955C82.524 43.5444 82.4917 43.586 82.4476 43.6113L74.5806 48.1291C73.7868 48.5849 73.2178 49.3247 72.9789 50.2121C72.7399 51.0995 72.8606 52.023 73.319 52.8126L74.7689 55.3103C75.2903 56.2085 76.1322 56.8511 77.1396 57.1196C78.147 57.3881 79.1992 57.2503 80.1023 56.7317L87.5156 52.413C87.5451 52.3958 87.5786 52.3867 87.6128 52.3868V52.3866Z" fill="black"/>
</g>
<g clip-path="url(#clip6_1167_5655)">
<path d="M152.082 181.385C145.398 190.363 149.158 180.585 149.128 180.567L138.881 163.767C138.852 163.75 138.828 163.725 138.812 163.696C138.795 163.667 138.787 163.634 138.787 163.601C138.787 163.567 138.796 163.534 138.813 163.505C138.83 163.476 138.854 163.453 138.883 163.436L142.263 175.205C125.392 193.031 140.985 170.757 144.977 171.626C146.095 188.151 123.923 183.545 140.985 169.151C124.017 169.151 138.77 171.597 138.787 171.626C138.787 171.592 138.804 171.655 138.787 171.626L143.62 176.602C143.62 176.653 142.759 187.366 149.978 180.567C141.482 185.29 148.403 189.944 149.978 178.491L152.082 181.385ZM138.787 178.491L147.452 180.567V175.205L138.787 178.491ZM231.369 251.497L193.989 218.69V117.738C193.989 117.738 208.871 108.742 213.907 106.172C216.733 104.729 220.494 104.929 224.74 106.368C244.625 113.106 257.448 134.865 257.376 152.641L257.088 223.829C257.138 227.398 256.472 230.467 255.725 232.858C254.669 236.24 253.161 238.573 251.209 239.839C242.795 245.296 231.369 251.497 231.369 251.497L231.369 251.497Z" fill="black"/>
<path d="M231.368 251.687C231.322 251.687 231.277 251.67 231.242 251.639L193.862 218.833C193.842 218.815 193.825 218.793 193.814 218.768C193.803 218.743 193.797 218.716 193.797 218.689V117.736C193.797 117.669 193.832 117.606 193.889 117.572C194.038 117.482 208.835 108.544 213.819 106C216.581 104.589 220.276 104.652 224.8 106.185C234.1 109.336 242.588 116.109 248.7 125.257C254.371 133.744 257.603 143.724 257.567 152.64L257.279 223.828C257.321 226.852 256.872 229.825 255.908 232.913C254.84 236.329 253.294 238.713 251.313 239.998C242.989 245.397 231.574 251.602 231.46 251.664C231.431 251.679 231.4 251.687 231.368 251.687ZM194.18 218.602L231.394 251.263C232.627 250.59 243.247 244.773 251.104 239.676C253.009 238.441 254.502 236.127 255.542 232.799C256.494 229.75 256.937 226.816 256.896 223.829L257.183 152.638C257.253 135.42 245.113 113.473 224.678 106.548C220.255 105.049 216.66 104.979 213.993 106.341C209.228 108.773 195.449 117.078 194.181 117.844V218.602L194.18 218.602Z" fill="black"/>
<path d="M179.705 132.505L165.734 140.648C149.008 119.044 133.859 120.047 133.328 120.127L133.321 120.131C133.309 120.131 133.312 120.13 133.328 120.127L149.288 110.711C153.2 112.707 168.767 118.535 179.705 132.505Z" fill="white"/>
<path d="M257.377 152.641C257.449 134.864 244.626 113.106 224.741 106.367C220.496 104.93 216.734 104.729 213.908 106.171C209.339 108.502 196.667 116.122 194.356 117.518C197.461 115.759 201.534 115.497 206.371 117.137C226.256 123.875 239.079 145.634 239.008 163.41L238.719 234.597C238.769 238.167 238.103 241.236 237.356 243.627C236.178 247.398 234.343 249.724 232.182 251.05C234.936 249.538 244.138 244.426 251.211 239.838C253.162 238.572 255.181 236.248 256.239 232.867C256.985 230.476 257.138 227.397 257.089 223.828L257.377 152.641V152.641Z" fill="white"/>
<path d="M303.48 276.531C303.429 276.53 303.38 276.51 303.344 276.474C303.308 276.438 303.288 276.389 303.288 276.338L303.327 258.627C303.327 258.559 303.364 258.496 303.423 258.461L322.08 247.638C322.11 247.622 322.143 247.613 322.177 247.613C322.21 247.613 322.243 247.621 322.273 247.638C322.302 247.655 322.326 247.679 322.343 247.709C322.36 247.738 322.369 247.771 322.368 247.805L322.329 265.516C322.329 265.585 322.293 265.648 322.234 265.682L303.576 276.505C303.547 276.522 303.514 276.531 303.48 276.531ZM303.711 258.738L303.672 276.005L321.946 265.405L321.984 248.138L303.711 258.738Z" fill="black"/>
<path d="M232.182 251.24C232.141 251.24 232.1 251.227 232.067 251.201C232.033 251.176 232.009 251.141 231.998 251.101C231.987 251.061 231.989 251.018 232.004 250.979C232.019 250.94 232.046 250.907 232.082 250.885C234.385 249.472 236.098 247.01 237.173 243.568C238.126 240.517 238.569 237.583 238.528 234.598L238.816 163.408C238.885 146.19 226.745 124.242 206.309 117.317C201.72 115.761 197.619 115.888 194.45 117.683C194.406 117.708 194.355 117.715 194.306 117.701C194.257 117.688 194.216 117.657 194.19 117.613C194.165 117.57 194.158 117.518 194.17 117.469C194.182 117.42 194.213 117.378 194.257 117.352C194.854 116.991 208.949 108.484 213.82 105.999C216.583 104.589 220.278 104.652 224.802 106.184C234.102 109.336 242.59 116.109 248.702 125.257C254.373 133.744 257.605 143.724 257.569 152.64L257.281 223.827C257.34 228.084 257.083 230.805 256.422 232.922C255.484 235.922 253.622 238.5 251.315 239.997C244.171 244.631 234.935 249.756 232.275 251.216C232.246 251.232 232.215 251.24 232.183 251.24L232.182 251.24ZM200.289 115.853C202.204 115.853 204.266 116.22 206.432 116.954C215.732 120.105 224.22 126.879 230.333 136.027C236.003 144.514 239.235 154.494 239.199 163.41L238.911 234.597C238.953 237.62 238.504 240.593 237.539 243.683C236.739 246.244 235.589 248.28 234.109 249.764C237.996 247.598 245.255 243.471 251.106 239.676C253.34 238.227 255.144 235.724 256.055 232.809C256.703 230.732 256.955 228.047 256.897 223.829L257.185 152.639C257.255 135.421 245.115 113.473 224.679 106.548C220.256 105.05 216.661 104.98 213.994 106.341C210.242 108.256 200.988 113.761 196.692 116.336C197.818 116.014 199.021 115.853 200.289 115.853Z" fill="black"/>
<path d="M239.009 163.41L238.721 234.597C238.77 238.166 238.104 241.235 237.358 243.626C236.179 247.397 234.344 249.724 232.184 251.049C234.938 249.538 244.139 244.425 251.212 239.837C253.163 238.571 255.183 236.248 256.24 232.866C256.986 230.475 257.14 227.396 257.09 223.827L257.378 152.64L239.009 163.409V163.41Z" fill="black"/>
<path d="M232.182 251.238C232.141 251.238 232.1 251.224 232.067 251.199C232.033 251.174 232.009 251.138 231.998 251.098C231.987 251.058 231.989 251.015 232.004 250.976C232.019 250.937 232.046 250.904 232.082 250.883C234.385 249.47 236.098 247.008 237.173 243.566C238.126 240.515 238.569 237.581 238.528 234.596L238.816 163.405C238.816 163.372 238.825 163.339 238.841 163.311C238.858 163.282 238.882 163.258 238.91 163.241L257.28 152.471C257.309 152.454 257.342 152.445 257.376 152.445C257.41 152.445 257.443 152.454 257.473 152.471C257.502 152.488 257.526 152.512 257.543 152.541C257.56 152.571 257.569 152.604 257.569 152.638L257.281 223.825C257.34 228.081 257.083 230.802 256.422 232.92C255.484 235.919 253.623 238.498 251.315 239.995C244.171 244.629 234.935 249.754 232.275 251.214C232.246 251.23 232.215 251.238 232.183 251.238H232.182ZM239.199 163.516L238.911 234.594C238.953 237.617 238.504 240.59 237.539 243.68C236.739 246.241 235.589 248.277 234.109 249.761C237.996 247.595 245.255 243.469 251.106 239.673C253.34 238.224 255.144 235.721 256.055 232.806C256.704 230.729 256.955 228.044 256.897 223.827L257.184 152.973L239.199 163.517V163.516Z" fill="black"/>
<path d="M239.009 163.411C239.081 145.634 226.258 123.876 206.373 117.137C194.67 113.172 187.438 120.326 187.572 132.932L187.438 204.032C187.438 220.898 196.726 237.846 211.867 247.284C212.401 247.617 231.91 261.062 237.358 243.627C238.105 241.236 238.77 238.167 238.721 234.598L239.009 163.41V163.411ZM221.511 226.132C220.696 237.496 210.205 228.525 208.42 226.351C203.557 220.426 204.296 212.817 204.296 201.222L204.418 148.545C204.375 139.879 205.517 134.89 211.715 137.735C218.893 141.029 221.771 146.439 221.748 158.66L221.746 219.813C221.762 222.267 221.629 224.475 221.51 226.133L221.511 226.132Z" fill="#87C159"/>
<path d="M226.46 252.738C220.376 252.738 213.973 248.896 211.852 247.501C211.808 247.473 211.779 247.453 211.764 247.444C204.359 242.829 198.149 236.29 193.806 228.535C189.514 220.871 187.245 212.397 187.245 204.029L187.379 132.929C187.306 126.098 189.387 120.799 193.236 118.009C196.636 115.545 201.199 115.18 206.433 116.953C215.732 120.104 224.22 126.878 230.333 136.025C236.003 144.512 239.235 154.493 239.199 163.409L238.911 234.596C238.953 237.62 238.505 240.593 237.54 243.682C236.169 248.07 233.784 250.898 230.453 252.087C229.173 252.545 227.824 252.738 226.46 252.738H226.46ZM200.284 116.232C197.685 116.232 195.379 116.93 193.462 118.319C189.715 121.034 187.692 126.222 187.763 132.927L187.629 204.03C187.629 220.99 197.182 237.903 211.967 247.119C211.983 247.129 212.015 247.15 212.063 247.181C214.622 248.864 223.501 254.163 230.324 251.726C233.536 250.579 235.841 247.834 237.174 243.567C238.127 240.518 238.569 237.584 238.528 234.598L238.816 163.407C238.886 146.189 226.746 124.241 206.31 117.316C204.173 116.592 202.153 116.232 200.284 116.232H200.284ZM217.552 231.956C214 231.956 209.34 227.773 208.271 226.47C203.953 221.21 204.007 214.521 204.082 205.264C204.092 203.966 204.103 202.624 204.103 201.219L204.225 148.542C204.201 143.571 204.502 138.761 206.854 137.245C208.046 136.477 209.662 136.579 211.794 137.558C219.212 140.963 221.961 146.681 221.938 158.658L221.937 219.81C221.953 222.283 221.819 224.494 221.701 226.144C221.473 229.329 220.464 231.227 218.703 231.787C218.339 231.903 217.952 231.956 217.553 231.956L217.552 231.956ZM208.688 137.121C208.063 137.121 207.523 137.27 207.062 137.567C204.86 138.987 204.586 143.912 204.609 148.542L204.486 201.22C204.486 202.626 204.475 203.969 204.465 205.267C204.391 214.444 204.337 221.074 208.567 226.227C209.608 227.495 214.129 231.578 217.517 231.578C217.89 231.578 218.248 231.529 218.587 231.421C220.183 230.914 221.102 229.129 221.318 226.116C221.436 224.474 221.569 222.272 221.553 219.812L221.555 158.658C221.577 146.861 218.888 141.237 211.634 137.907C210.492 137.383 209.515 137.121 208.688 137.121L208.688 137.121ZM314.202 243.104L314.345 158.544L295.733 147.835L277.075 158.658L264.625 214.608L259.434 234.683L292.576 259.48L295.292 294.295L313.95 283.472L314.012 270.288L322.137 265.517L322.176 247.805L314.202 243.104Z" fill="black"/>
<path d="M295.293 294.486C295.245 294.486 295.198 294.468 295.163 294.435C295.127 294.403 295.105 294.358 295.102 294.31L292.393 259.581L259.321 234.837C259.29 234.814 259.267 234.783 259.254 234.747C259.242 234.711 259.24 234.672 259.25 234.635L264.44 214.56L276.889 158.617C276.901 158.564 276.933 158.519 276.98 158.492L295.638 147.669C295.667 147.652 295.7 147.643 295.734 147.643C295.767 147.643 295.8 147.652 295.83 147.669L314.441 158.377C314.471 158.394 314.495 158.419 314.512 158.448C314.529 158.477 314.538 158.51 314.538 158.544L314.395 242.995L322.274 247.64C322.333 247.674 322.369 247.738 322.369 247.806L322.33 265.517C322.33 265.55 322.321 265.583 322.304 265.612C322.288 265.641 322.264 265.665 322.235 265.682L314.205 270.398L314.142 283.472C314.142 283.506 314.133 283.539 314.117 283.568C314.1 283.597 314.076 283.621 314.047 283.637L295.389 294.46C295.36 294.477 295.327 294.486 295.293 294.486ZM259.653 234.607L292.692 259.326C292.736 259.359 292.764 259.41 292.768 259.465L295.46 293.976L313.759 283.361L313.822 270.287C313.822 270.254 313.831 270.221 313.847 270.192C313.864 270.163 313.888 270.139 313.916 270.122L321.946 265.407L321.985 247.915L314.105 243.269C314.077 243.253 314.053 243.228 314.036 243.199C314.02 243.17 314.011 243.137 314.011 243.104L314.154 158.655L295.734 148.057L277.245 158.782L264.813 214.649L259.653 234.607H259.653Z" fill="black"/>
<path d="M295.545 253.931L295.688 169.37L277.076 158.662L245.968 225.434L245.937 243.041L278.375 261.851L278.413 284.465L295.293 294.298L295.507 271.83L303.48 276.344L303.519 258.632L295.545 253.931L295.545 253.931ZM278.374 244.185L261.621 234.226L278.19 197.786L278.425 197.897L278.374 244.185Z" fill="#87C159"/>
<path d="M295.293 294.487C295.259 294.487 295.226 294.478 295.197 294.461L278.316 284.628C278.287 284.611 278.263 284.587 278.247 284.558C278.23 284.529 278.221 284.496 278.221 284.462L278.183 261.958L245.841 243.203C245.812 243.186 245.787 243.162 245.771 243.133C245.754 243.104 245.745 243.071 245.745 243.037L245.776 225.431C245.776 225.403 245.782 225.375 245.794 225.35L276.902 158.578C276.913 158.553 276.929 158.532 276.949 158.514C276.969 158.497 276.993 158.484 277.018 158.476C277.043 158.468 277.07 158.465 277.097 158.468C277.123 158.471 277.149 158.479 277.172 158.492L295.784 169.201C295.813 169.218 295.837 169.242 295.854 169.271C295.871 169.301 295.88 169.334 295.88 169.367L295.737 253.818L303.617 258.464C303.675 258.498 303.711 258.561 303.711 258.629L303.672 276.341C303.672 276.374 303.663 276.407 303.646 276.436C303.63 276.465 303.605 276.489 303.577 276.506C303.548 276.523 303.515 276.532 303.481 276.532C303.448 276.532 303.415 276.524 303.385 276.507L295.696 272.154L295.485 294.297C295.484 294.347 295.464 294.396 295.428 294.431C295.392 294.467 295.344 294.487 295.293 294.487ZM278.604 284.352L295.104 293.963L295.315 271.825C295.316 271.792 295.325 271.759 295.342 271.73C295.358 271.701 295.382 271.677 295.411 271.661C295.44 271.644 295.473 271.635 295.506 271.635C295.54 271.635 295.572 271.643 295.602 271.66L303.289 276.012L303.327 258.738L295.448 254.093C295.419 254.076 295.395 254.052 295.378 254.022C295.362 253.993 295.353 253.961 295.353 253.927L295.496 169.478L277.161 158.929L246.16 225.474L246.129 242.927L278.471 261.682C278.5 261.699 278.524 261.723 278.541 261.752C278.558 261.781 278.566 261.814 278.566 261.847L278.604 284.352ZM278.374 244.373C278.34 244.373 278.306 244.364 278.276 244.346L261.523 234.387C261.483 234.363 261.453 234.325 261.438 234.28C261.424 234.235 261.427 234.186 261.447 234.143L278.016 197.704C278.026 197.681 278.041 197.66 278.06 197.642C278.078 197.625 278.1 197.612 278.124 197.603C278.148 197.594 278.173 197.59 278.199 197.591C278.224 197.592 278.249 197.599 278.272 197.609L278.507 197.72C278.54 197.735 278.568 197.76 278.587 197.791C278.607 197.821 278.617 197.857 278.617 197.894L278.566 244.182C278.565 244.232 278.545 244.281 278.509 244.317C278.473 244.353 278.425 244.373 278.374 244.373ZM261.867 234.146L278.182 243.845L278.233 198.152L261.867 234.146Z" fill="black"/>
<path d="M314.346 158.541L295.689 169.364L277.077 158.656L295.734 147.833L314.346 158.541Z" fill="white"/>
<path d="M295.687 169.558C295.654 169.558 295.621 169.55 295.591 169.533L276.98 158.824C276.95 158.807 276.926 158.783 276.91 158.754C276.893 158.725 276.884 158.692 276.884 158.658C276.884 158.625 276.892 158.592 276.909 158.563C276.926 158.534 276.95 158.509 276.979 158.492L295.637 147.669C295.666 147.652 295.699 147.643 295.733 147.643C295.766 147.643 295.799 147.652 295.829 147.669L314.441 158.377C314.47 158.394 314.494 158.418 314.511 158.448C314.527 158.477 314.536 158.51 314.536 158.543C314.536 158.577 314.528 158.61 314.511 158.639C314.494 158.668 314.47 158.693 314.441 158.709L295.783 169.533C295.754 169.549 295.721 169.558 295.687 169.558ZM277.459 158.657L295.687 169.145L313.962 158.544L295.734 148.056L277.459 158.657Z" fill="black"/>
<path d="M314.202 243.103L295.544 253.926L295.687 169.365L314.345 158.542L314.202 243.103Z" fill="black"/>
<path d="M295.544 254.117C295.519 254.117 295.494 254.112 295.471 254.103C295.448 254.093 295.426 254.079 295.409 254.061C295.391 254.043 295.377 254.022 295.367 253.999C295.357 253.975 295.353 253.95 295.353 253.925L295.495 169.365C295.495 169.296 295.532 169.233 295.591 169.199L314.249 158.376C314.278 158.359 314.311 158.35 314.345 158.35C314.378 158.35 314.412 158.359 314.441 158.376C314.47 158.393 314.494 158.417 314.511 158.446C314.528 158.476 314.537 158.509 314.537 158.542L314.394 243.103C314.394 243.171 314.357 243.234 314.298 243.268L295.64 254.091C295.611 254.108 295.578 254.117 295.544 254.117H295.544ZM295.879 169.476L295.737 253.592L314.011 242.992L314.153 158.875L295.879 169.475L295.879 169.476Z" fill="black"/>
<path d="M322.176 247.804L303.519 258.627L295.544 253.926L314.202 243.103L322.176 247.804Z" fill="white"/>
<path d="M303.517 258.818C303.483 258.818 303.449 258.809 303.42 258.791L295.446 254.09C295.417 254.073 295.393 254.049 295.376 254.02C295.359 253.991 295.351 253.958 295.351 253.924C295.351 253.891 295.36 253.858 295.377 253.829C295.393 253.8 295.418 253.776 295.447 253.759L314.105 242.936C314.134 242.919 314.168 242.91 314.202 242.91C314.236 242.91 314.269 242.92 314.298 242.937L322.273 247.638C322.302 247.655 322.326 247.679 322.342 247.708C322.359 247.737 322.368 247.77 322.367 247.804C322.367 247.837 322.358 247.87 322.342 247.899C322.325 247.928 322.301 247.952 322.271 247.969L303.614 258.792C303.584 258.809 303.551 258.818 303.517 258.818L303.517 258.818ZM295.923 253.926L303.518 258.404L321.795 247.802L314.2 243.324L295.923 253.926ZM313.949 283.47L295.291 294.293L295.505 271.824L303.478 276.338L314.011 270.286L313.949 283.47Z" fill="black"/>
<path d="M295.294 294.485C295.269 294.485 295.243 294.48 295.22 294.47C295.197 294.461 295.175 294.446 295.158 294.428C295.14 294.41 295.126 294.389 295.116 294.365C295.107 294.342 295.102 294.317 295.102 294.292L295.316 271.823C295.316 271.79 295.325 271.757 295.342 271.728C295.359 271.7 295.383 271.676 295.412 271.659C295.441 271.642 295.474 271.634 295.507 271.633C295.54 271.633 295.573 271.642 295.602 271.658L303.48 276.118L313.918 270.12C313.948 270.104 313.981 270.095 314.014 270.095C314.048 270.095 314.081 270.104 314.11 270.121C314.14 270.138 314.164 270.162 314.18 270.192C314.197 270.221 314.206 270.254 314.206 270.288L314.143 283.471C314.143 283.505 314.134 283.538 314.117 283.567C314.1 283.595 314.076 283.62 314.047 283.636L295.39 294.459C295.36 294.476 295.327 294.485 295.293 294.485H295.294ZM295.697 272.152L295.489 293.959L313.76 283.36L313.821 270.619L303.576 276.505C303.547 276.521 303.515 276.53 303.481 276.53C303.448 276.53 303.415 276.522 303.386 276.505L295.697 272.152Z" fill="black"/>
<path d="M322.137 265.519L303.479 276.342L303.519 258.631L322.177 247.808L322.137 265.519Z" fill="black"/>
<path d="M278.456 244.253L261.622 234.222L278.396 224.585L278.456 244.253Z" fill="white"/>
<path d="M278.454 244.448C278.419 244.448 278.386 244.438 278.356 244.421L261.522 234.389C261.493 234.372 261.469 234.348 261.453 234.319C261.436 234.29 261.428 234.257 261.428 234.223C261.429 234.19 261.438 234.157 261.454 234.128C261.471 234.099 261.495 234.075 261.524 234.059L278.298 224.422C278.328 224.405 278.361 224.396 278.394 224.396C278.428 224.396 278.461 224.405 278.49 224.422C278.519 224.438 278.543 224.462 278.56 224.492C278.577 224.521 278.586 224.554 278.586 224.587L278.646 244.255C278.646 244.306 278.626 244.355 278.59 244.391C278.554 244.427 278.505 244.447 278.454 244.448ZM262 234.228L278.261 243.918L278.203 224.919L262 234.228Z" fill="black"/>
</g>
<defs>
<clipPath id="clip0_1167_5655">
<rect width="210.185" height="319.972" fill="white" transform="translate(185.467 -14.3066)"/>
</clipPath>
<clipPath id="clip1_1167_5655">
<rect width="141.018" height="161.136" fill="white" transform="translate(302.729 47.957)"/>
</clipPath>
<clipPath id="clip2_1167_5655">
<rect width="257.894" height="400.061" fill="white" transform="translate(92.542 -28.6768)"/>
</clipPath>
<clipPath id="clip3_1167_5655">
<rect width="98.5095" height="162.541" fill="white" transform="translate(99.9502 56.9124)"/>
</clipPath>
<clipPath id="clip4_1167_5655">
<rect width="99.2488" height="99.0572" fill="white" transform="translate(35.8281 185.529)"/>
</clipPath>
<clipPath id="clip5_1167_5655">
<rect width="35.6376" height="51.1572" fill="white" transform="translate(72.4238 19.4109)"/>
</clipPath>
<clipPath id="clip6_1167_5655">
<rect width="199.264" height="217.466" fill="white" transform="translate(123.104 77.02)"/>
</clipPath>
</defs>
</svg>
