<svg width="44" height="44" viewBox="0 0 44 44" fill="none" xmlns="http://www.w3.org/2000/svg">
<g id="Facebook">
<rect id="Rectangle" width="44" height="44" rx="22" fill="#282A2C"/>
<path id="Vector" d="M23.4687 22.7859H22.9687V23.2859V36.1662L18.5838 36.1663V23.286V22.786H18.0838H14.0811V18.5715H18.0839H18.5839V18.0715V14.2258C18.5839 12.0978 19.2314 10.5136 20.2959 9.46147C21.3619 8.40785 22.9016 7.83301 24.7907 7.83301C26.2801 7.83301 27.6007 7.92067 28.3144 7.98716V11.7023L26.0531 11.7033C26.053 11.7033 26.0529 11.7033 26.0529 11.7033C24.9038 11.7034 24.079 11.9758 23.5665 12.5845C23.0703 13.1739 22.9687 13.9657 22.9687 14.742V18.0713V18.5713H23.4687H28.0638L27.5203 22.7859H23.4687Z" stroke="#FBFBFB"/>
</g>
</svg>
