<svg xmlns="http://www.w3.org/2000/svg" width="32" height="32" viewBox="0 0 32 32" fill="none">
  <path d="M2 6.46156C2 4.54979 3.54979 3 5.46156 3V3V27.2692C5.46156 28.2251 4.68666 29 3.73078 29V29C2.7749 29 2 28.2251 2 27.2692V6.46156Z" fill="#000504"/>
  <path d="M28.5391 27.1793C28.5391 25.4925 29.9065 24.125 31.5934 24.125V24.125C31.8183 24.125 32.0006 24.3073 32.0006 24.5322V28.1238C32.0006 28.6077 31.6083 29 31.1244 29H29.1126C28.7958 29 28.5391 28.7432 28.5391 28.4265V27.1793Z" fill="#000504"/>
  <path d="M5.46094 3V3C7.4203 3 9.0553 4.49631 9.22853 6.448L11.2302 29H9.77339C8.63863 29 7.69173 28.1334 7.5914 27.0031L5.46094 3Z" fill="#000504"/>
  <path d="M17 3H18.4568C19.5916 3 20.5385 3.86658 20.6388 4.9969L22.7693 29H21.3125C20.1777 29 19.2308 28.1334 19.1305 27.0031L17 3Z" fill="#000504"/>
  <path d="M17 3H15.5432C14.4084 3 13.4615 3.86658 13.3612 4.9969L11.2307 29H12.6875C13.8223 29 14.7692 28.1334 14.8695 27.0031L17 3Z" fill="#000504"/>
  <path d="M28.4519 3.9816C28.4988 3.45411 28.0832 3 27.5536 3V3C26.152 3 24.9825 4.07033 24.8586 5.4664L22.7698 29H24.2266C25.3614 29 26.3083 28.1334 26.4086 27.0031L28.4519 3.9816Z" fill="#000504"/>
</svg>