<svg width="390" height="390" viewBox="0 0 390 390" fill="none" xmlns="http://www.w3.org/2000/svg">
<g clip-path="url(#clip0_1198_8413)">
<path d="M318.443 140.772V299.003C318.444 299.227 318.391 299.448 318.29 299.647C318.189 299.847 318.041 300.02 317.86 300.151C317.428 300.467 312.875 303.055 312.875 303.055L270.466 159.732L313.503 142.999L318.443 140.771L318.443 140.772Z" fill="black"/>
<path d="M312.876 303.214C312.842 303.214 312.81 303.204 312.783 303.183C312.756 303.163 312.736 303.135 312.726 303.103L270.317 159.78C270.306 159.743 270.309 159.702 270.327 159.667C270.344 159.632 270.374 159.605 270.41 159.591L313.447 142.857L318.38 140.633C318.403 140.622 318.429 140.618 318.455 140.62C318.481 140.622 318.507 140.63 318.528 140.644C318.55 140.658 318.568 140.678 318.581 140.701C318.593 140.723 318.6 140.749 318.6 140.775V299.007C318.598 299.517 318.363 299.981 317.953 300.28C317.518 300.598 313.139 303.088 312.953 303.194C312.93 303.208 312.903 303.215 312.876 303.215L312.876 303.214ZM270.657 159.829L312.97 302.826C313.801 302.352 317.395 300.301 317.769 300.029C318.097 299.788 318.287 299.416 318.288 299.006V141.016L313.568 143.145L270.657 159.829Z" fill="black"/>
<path d="M270.487 159.748L153.818 47.4714C153.818 47.4714 158.068 44.82 159.231 44.3454C159.948 44.0531 160.801 44.0548 161.671 44.4953L312.908 131.174C316.516 133.239 318.46 136.666 318.442 140.822L313.524 143.014L270.487 159.748Z" fill="white"/>
<path d="M270.489 159.907C270.449 159.907 270.41 159.892 270.381 159.864L153.712 47.5873C153.695 47.5708 153.682 47.5507 153.674 47.5284C153.666 47.5062 153.663 47.4823 153.665 47.4588C153.668 47.4352 153.676 47.4125 153.688 47.3924C153.701 47.3723 153.718 47.3553 153.738 47.3428C153.912 47.2342 158.012 44.6789 159.175 44.2048C159.983 43.8752 160.895 43.9302 161.743 44.36L312.987 131.043C316.624 133.124 318.618 136.599 318.6 140.827C318.6 140.857 318.591 140.886 318.574 140.911C318.558 140.936 318.535 140.956 318.507 140.968L313.589 143.16L270.546 159.897C270.528 159.904 270.509 159.907 270.489 159.907ZM154.073 47.5017L270.526 159.57L313.469 142.872L318.288 140.725C318.274 136.659 316.339 133.32 312.832 131.313L161.595 44.6343C160.825 44.2443 160.026 44.1942 159.292 44.4936C158.285 44.9041 154.876 47.0041 154.073 47.5017Z" fill="black"/>
<path d="M311.472 303.07L154.962 212.748C154.209 212.31 153.584 211.683 153.148 210.93C152.713 210.176 152.483 209.321 152.48 208.451L152.484 50.2923C152.377 48.0246 154.497 46.1932 156.778 47.3486L307.951 134.019C311.559 136.083 313.544 139.595 313.526 143.751L313.619 301.839C313.616 302.939 312.423 303.622 311.472 303.07L311.472 303.07Z" fill="white"/>
<path d="M312.189 303.422C311.915 303.422 311.642 303.349 311.393 303.205L154.882 212.882C153.309 211.968 152.328 210.27 152.322 208.451L152.326 50.2919C152.269 49.0753 152.834 47.9257 153.802 47.299C154.702 46.7172 155.811 46.6845 156.847 47.2092L308.027 133.883C311.637 135.949 313.698 139.546 313.68 143.752L313.774 301.838C313.772 302.412 313.474 302.924 312.977 303.209C312.738 303.348 312.466 303.421 312.189 303.422H312.189ZM155.36 47.1448C154.872 47.1448 154.4 47.2836 153.972 47.5608C153.096 48.1274 152.585 49.171 152.638 50.2846L152.634 208.45C152.64 210.159 153.561 211.754 155.038 212.613L311.549 302.935H311.549C311.947 303.166 312.423 303.167 312.822 302.939C313.221 302.71 313.46 302.298 313.462 301.838L313.368 143.751C313.386 139.6 311.434 136.192 307.872 134.154L156.698 47.4836C156.252 47.2577 155.799 47.1448 155.36 47.1448Z" fill="black"/>
</g>
<g clip-path="url(#clip1_1198_8413)">
<path d="M360.511 209.739C361.666 212.519 361.211 216.28 359.394 217.648C358.077 218.64 348.092 224.029 348.092 224.029L258.22 158.983L292.976 100.303C292.976 100.303 303.072 94.7752 304.378 94.1545C305.093 93.8144 305.968 93.644 307.035 93.8364C309.286 94.2423 313.427 96.86 315.171 100.786L360.511 209.739L360.511 209.739Z" fill="white"/>
<path d="M348.089 224.184C348.056 224.184 348.024 224.174 347.998 224.155L258.126 159.109C258.095 159.086 258.073 159.052 258.065 159.014C258.057 158.976 258.064 158.936 258.084 158.903L292.84 100.222C292.854 100.198 292.874 100.178 292.899 100.165C293.311 99.9392 303.014 94.6284 304.308 94.0129C305.145 93.615 306.071 93.5037 307.06 93.6822C309.395 94.1031 313.562 96.7837 315.311 100.722L360.652 209.679C361.868 212.606 361.323 216.388 359.485 217.772C358.174 218.759 348.571 223.945 348.163 224.166C348.14 224.178 348.115 224.184 348.089 224.184L348.089 224.184ZM258.424 158.939L348.101 223.845C349.082 223.314 358.07 218.447 359.298 217.522C361.002 216.239 361.51 212.557 360.365 209.798L315.025 100.845C313.321 97.0088 309.272 94.3978 307.005 93.989C306.081 93.8223 305.219 93.9252 304.442 94.2944C303.196 94.8872 293.761 100.048 293.086 100.418L258.424 158.939Z" fill="black"/>
<path d="M317.05 105.307L360.509 209.739C361.663 212.519 361.209 216.279 359.392 217.647C358.075 218.639 348.09 224.029 348.09 224.029L267.986 166.052L304.738 111.995L317.051 105.307L317.05 105.307Z" fill="black"/>
<path d="M348.089 224.184C348.056 224.184 348.024 224.174 347.998 224.155L267.894 166.178C267.861 166.154 267.839 166.119 267.832 166.079C267.825 166.039 267.834 165.998 267.857 165.964L304.608 111.907C304.622 111.886 304.641 111.869 304.663 111.858L316.976 105.169C316.995 105.159 317.016 105.153 317.038 105.151C317.06 105.149 317.082 105.152 317.102 105.159C317.123 105.167 317.142 105.178 317.157 105.193C317.173 105.208 317.186 105.226 317.194 105.247L360.652 209.679C361.868 212.606 361.323 216.388 359.486 217.772C358.174 218.76 348.571 223.946 348.163 224.166C348.141 224.178 348.115 224.185 348.089 224.185V224.184ZM268.199 166.014L348.101 223.845C349.082 223.314 358.07 218.448 359.298 217.523C361.003 216.239 361.511 212.558 360.365 209.799L316.973 105.526L304.845 112.113L268.199 166.014V166.014Z" fill="black"/>
<path d="M349.239 216.216C350.643 219.11 350.257 222.433 348.441 223.801C347.123 224.793 344.742 224.938 343.165 224.073L253.981 174.941C250.268 172.903 248 169.206 246.949 165.46C245.656 160.854 248.731 157.922 249.786 156.522L290.62 102.607C291.297 101.713 292.777 99.3612 295.792 99.9048C298.044 100.311 300.234 101.532 301.534 104.499L349.239 216.216H349.239Z" fill="#ADC4CB"/>
<path d="M345.586 224.797C344.702 224.797 343.815 224.604 343.092 224.207L253.908 175.075C250.539 173.226 248.015 169.825 246.801 165.499C245.639 161.359 247.969 158.51 249.221 156.98C249.393 156.77 249.541 156.588 249.664 156.426L290.498 102.511C290.544 102.45 290.594 102.382 290.648 102.309C291.385 101.308 292.919 99.2256 295.822 99.7491C298.563 100.243 300.533 101.819 301.679 104.434L349.383 216.149C350.805 219.081 350.433 222.495 348.537 223.923C347.77 224.501 346.68 224.797 345.586 224.798L345.586 224.797ZM294.915 99.977C292.753 99.977 291.569 101.584 290.899 102.494C290.844 102.568 290.794 102.637 290.747 102.699L249.913 156.614C249.787 156.781 249.637 156.965 249.462 157.177C248.161 158.768 245.983 161.431 247.101 165.415C247.791 167.873 249.612 172.362 254.058 174.802L343.242 223.934C344.736 224.753 347.074 224.634 348.349 223.674C350.132 222.332 350.462 219.085 349.101 216.282C349.1 216.279 349.099 216.277 349.098 216.275L301.393 104.558C300.293 102.046 298.399 100.531 295.767 100.056C295.486 100.004 295.201 99.9779 294.915 99.977Z" fill="black"/>
<path d="M303.399 173.485L292.829 167.653L292.78 124.824L303.399 130.634V173.485Z" fill="#DBF301"/>
<path d="M303.397 173.64C303.371 173.64 303.345 173.634 303.322 173.621L292.752 167.79C292.727 167.776 292.707 167.757 292.693 167.733C292.679 167.709 292.671 167.681 292.671 167.653L292.622 124.824C292.622 124.797 292.629 124.77 292.642 124.747C292.655 124.723 292.675 124.704 292.698 124.69C292.721 124.676 292.748 124.668 292.775 124.668C292.802 124.668 292.828 124.674 292.852 124.687L303.472 130.497C303.522 130.525 303.553 130.577 303.553 130.634V173.484C303.553 173.526 303.537 173.565 303.507 173.595C303.478 173.624 303.438 173.64 303.397 173.64L303.397 173.64ZM292.983 167.561L303.241 173.221V130.727L292.934 125.087L292.983 167.561Z" fill="black"/>
<path d="M303.399 178.079V189.699L292.829 183.868L292.816 172.248L303.399 178.079Z" fill="#DBF301"/>
<path d="M303.4 189.853C303.374 189.853 303.348 189.846 303.325 189.833L292.755 184.002C292.73 183.989 292.71 183.969 292.696 183.945C292.682 183.921 292.674 183.894 292.674 183.866L292.661 172.246C292.661 172.219 292.668 172.192 292.681 172.169C292.694 172.145 292.714 172.125 292.737 172.112C292.76 172.098 292.787 172.09 292.814 172.09C292.841 172.089 292.868 172.096 292.892 172.109L303.475 177.94C303.5 177.954 303.52 177.973 303.534 177.997C303.548 178.021 303.556 178.049 303.556 178.077V189.697C303.556 189.738 303.54 189.778 303.51 189.807C303.481 189.836 303.441 189.853 303.4 189.853H303.4ZM292.986 183.773L303.244 189.433V178.169L292.973 172.51L292.986 183.773Z" fill="black"/>
</g>
<g clip-path="url(#clip2_1198_8413)">
<path d="M284.282 153.533L284.355 351.444C284.353 352.055 284.057 352.564 283.625 352.88C283.084 353.275 277.387 356.512 277.387 356.512L224.246 177.249L278.1 156.319L284.282 153.533V153.533Z" fill="black"/>
<path d="M277.386 356.67C277.352 356.67 277.319 356.659 277.292 356.639C277.265 356.618 277.246 356.59 277.236 356.558L224.094 177.295C224.083 177.257 224.087 177.217 224.104 177.182C224.121 177.147 224.151 177.119 224.188 177.105L278.042 156.176L284.216 153.393C284.24 153.382 284.266 153.377 284.292 153.379C284.318 153.381 284.343 153.39 284.365 153.404C284.387 153.418 284.405 153.437 284.418 153.46C284.43 153.483 284.437 153.509 284.437 153.535L284.509 351.446C284.507 352.071 284.218 352.64 283.715 353.008C283.174 353.403 277.696 356.517 277.463 356.649C277.44 356.663 277.413 356.67 277.386 356.67ZM224.435 177.344L277.48 356.281C278.433 355.738 283.056 353.102 283.531 352.755C283.953 352.448 284.196 351.97 284.197 351.445L284.125 153.777L278.163 156.463L224.435 177.344Z" fill="black"/>
<path d="M224.272 177.275L78.2778 36.843C78.2778 36.843 83.5953 33.5268 85.0514 32.9334C85.9486 32.5679 87.0162 32.5697 88.1039 33.1208L277.355 141.536C281.87 144.118 284.331 148.36 284.308 153.559L278.126 156.345L224.272 177.274L224.272 177.275Z" fill="white"/>
<path d="M224.274 177.43C224.233 177.43 224.195 177.415 224.166 177.387L78.1713 36.9551C78.1542 36.9386 78.1411 36.9185 78.133 36.8962C78.1249 36.8739 78.1219 36.85 78.1244 36.8264C78.1269 36.8028 78.1347 36.7801 78.1472 36.7599C78.1598 36.7398 78.1768 36.7228 78.197 36.7102C78.4145 36.5746 83.5424 33.3801 84.9943 32.7885C85.9952 32.3804 87.1254 32.4488 88.1764 32.9811L277.435 141.4C281.992 144.006 284.489 148.324 284.467 153.559C284.466 153.589 284.458 153.618 284.441 153.644C284.425 153.669 284.402 153.689 284.375 153.701L278.192 156.487L224.331 177.42C224.312 177.427 224.293 177.43 224.274 177.43ZM78.5326 36.8693L224.31 177.092L278.071 156.199L284.154 153.458C284.144 148.385 281.705 144.202 277.279 141.671L88.028 33.2557C87.0521 32.7616 86.0412 32.6987 85.1122 33.0774C83.8308 33.5996 79.4531 36.2986 78.5325 36.8693H78.5326Z" fill="black"/>
<path d="M275.63 356.536L79.7069 243.409C78.765 242.861 77.9828 242.078 77.438 241.135C76.8932 240.192 76.6049 239.123 76.6016 238.034L76.6064 40.3698C76.4723 37.5336 79.126 35.2428 81.9794 36.688L271.15 145.092C275.666 147.674 278.149 152.066 278.127 157.265L278.316 354.996C278.313 356.372 276.82 357.227 275.63 356.536Z" fill="#DBF301"/>
<path d="M276.528 356.934C276.193 356.934 275.857 356.845 275.551 356.668C275.246 356.49 79.6287 243.541 79.6287 243.541C77.6719 242.404 76.4523 240.293 76.4455 238.032L76.4503 40.3671C76.3788 38.8573 77.0796 37.4327 78.2795 36.6564C79.3927 35.9363 80.7671 35.8962 82.0501 36.546L271.228 144.954C275.8 147.569 278.306 151.941 278.283 157.263L278.473 354.993C278.471 355.696 278.105 356.324 277.496 356.674C277.202 356.843 276.868 356.933 276.528 356.934L276.528 356.934ZM80.2063 36.3916C79.5889 36.3916 78.9921 36.5673 78.4491 36.9185C77.3422 37.6345 76.6958 38.9531 76.7624 40.3596L76.7577 238.031C76.7643 240.182 77.9243 242.19 79.7852 243.271L275.708 356.398L275.708 356.398C276.218 356.694 276.828 356.696 277.34 356.403C277.852 356.109 278.159 355.582 278.16 354.993L277.971 157.263C277.993 152.057 275.543 147.782 271.073 145.225L81.9017 36.8208C81.3366 36.5346 80.7632 36.3916 80.2063 36.3916Z" fill="black"/>
<g clip-path="url(#clip3_1198_8413)">
<path d="M139.439 204.864C130.998 204.58 116.492 194.592 115.097 177.164L102.523 169.01C102.142 177.41 101.641 188.244 107.115 196.731C115.642 209.951 134.853 228.012 134.853 228.012C134.853 228.012 135.388 230.885 150.494 221.328C160.477 215.011 163.578 193.848 153.273 173.685C148.268 164.91 143.995 155.879 128.053 147.815C122.807 145.161 121.766 144.559 121.766 144.559L100.688 157.019C100.688 157.019 135.583 177.211 134.185 177.164L139.439 204.864Z" fill="black"/>
<path d="M155.331 141.841L142.072 148.609V135.375L155.331 128.32V141.841Z" fill="black"/>
<path d="M140.944 135.587L94.4243 108.317L108.116 100.955L155.104 128.426L140.944 135.587Z" fill="white"/>
<path d="M121.751 144.598L108.384 152.485L107.582 127.889L121.885 129.222L121.751 144.598Z" fill="black"/>
<path d="M114.734 177.146L102.502 184.231L89.6694 177.079L102.369 169.059L114.734 177.146Z" fill="white"/>
<path d="M141.693 180.3C133.204 163.69 119.823 152.392 108.286 152.536L108.348 152.441V129.159L142.004 148.275V135.442L94.6159 108.439L94.5741 160.013L100.908 163.857C110.38 163.37 122.667 168.842 130.179 182.031C136.497 193.127 137.567 208.048 129.827 212.252C122.775 216.082 104.062 204.616 102.436 184.301L89.2688 177.136C88.8875 185.536 91.6815 194.528 97.1558 203.016C109.254 221.998 130.354 230.777 138.662 227.612C149.704 223.406 151.997 200.463 141.693 180.3Z" fill="#87C159"/>
<path d="M134.604 228.522C130.374 228.522 124.889 226.911 119.287 223.92C110.483 219.218 102.539 211.831 96.9203 203.12C91.3784 194.528 88.652 185.514 89.0361 177.052C89.0392 176.985 89.0767 176.925 89.1351 176.893C89.1935 176.861 89.2645 176.862 89.3223 176.895L102.27 184.292C102.325 184.323 102.361 184.379 102.366 184.442C103.423 197.652 111.864 206.705 118.772 210.444C123.101 212.787 127.184 213.372 129.694 212.009C131.917 210.802 133.478 208.67 134.333 205.674C136.149 199.314 134.395 189.821 129.971 182.051C121.977 168.014 109.301 163.54 100.876 163.974C100.838 163.976 100.8 163.966 100.767 163.946L94.4331 160.102C94.3759 160.067 94.341 160.005 94.341 159.938L94.3489 108.431C94.3489 108.363 94.3851 108.3 94.444 108.266C94.5028 108.232 94.5755 108.232 94.6349 108.265L142.206 135.236C142.266 135.27 142.303 135.333 142.303 135.402V148.345C142.303 148.414 142.267 148.477 142.208 148.511C142.148 148.545 142.076 148.545 142.017 148.511L108.483 129.37L108.497 152.269C119.934 152.293 133.292 163.45 141.821 180.138C145.227 186.803 147.422 194.117 148.168 201.292C148.866 208 148.232 214.34 146.382 219.145C144.674 223.581 142.008 226.598 138.671 227.869C137.519 228.308 136.144 228.522 134.604 228.522L134.604 228.522ZM89.4058 177.383C89.1058 185.674 91.812 194.494 97.2422 202.913C102.827 211.571 110.72 218.911 119.468 223.582C127.014 227.612 134.32 229.117 138.535 227.512C141.767 226.28 144.357 223.34 146.025 219.007C149.94 208.84 148.113 193.29 141.481 180.312C133.007 163.733 119.765 152.651 108.461 152.651C108.389 152.651 108.319 152.651 108.247 152.652C108.169 152.654 108.11 152.615 108.076 152.553C108.042 152.491 108.045 152.416 108.084 152.357L108.115 152.309L108.101 129.04C108.101 128.972 108.137 128.909 108.196 128.875C108.255 128.84 108.328 128.84 108.387 128.874L141.92 148.015V135.513L94.7319 108.76L94.7241 159.831L100.916 163.589C109.452 163.174 122.242 167.707 130.303 181.862C134.776 189.715 136.543 199.327 134.702 205.779C133.817 208.878 132.194 211.087 129.877 212.345C127.252 213.771 123.033 213.185 118.589 210.78C114.526 208.58 110.709 205.088 107.844 200.947C104.503 196.119 102.481 190.46 101.992 184.574L89.4058 177.383Z" fill="black"/>
<path d="M130.44 211.7C123.422 217.18 103.726 204.811 102.1 184.496L115.334 177.211C116.16 187.527 121.131 194.959 127.167 199.592C127.167 199.592 138.066 206.698 130.44 211.7Z" fill="black"/>
<path d="M134.784 204.015C130.172 202.345 127.766 199.938 125.627 198.602C127.231 201.008 132.11 206.778 132.912 208.962C133.554 208.908 134.427 205.642 134.784 204.015Z" fill="black" stroke="black" stroke-width="0.17989"/>
<path d="M89.2007 177.079L102.368 169.059L115 177.213L102.1 184.498" stroke="black" stroke-width="0.503693"/>
<path d="M94.5488 108.44L108.184 101.088L154.971 128.358L142.004 135.309" stroke="black" stroke-width="0.503693"/>
<path d="M121.618 144.533C129.571 148.477 144.626 154.383 152.946 173.428" stroke="black" stroke-width="0.503693"/>
<path d="M139.731 227.144C143.073 225.963 148.755 222.866 152.765 219.391" stroke="black" stroke-width="0.503693"/>
</g>
</g>
<g clip-path="url(#clip4_1198_8413)">
<path d="M109.773 252.699C109.773 251.309 109.406 249.943 108.709 248.739C108.012 247.535 107.01 246.536 105.803 245.843L38.0787 206.058C37.5365 205.748 36.9442 205.699 36.4149 205.85C35.9458 205.983 30.1152 209.765 30.1152 209.765L100.737 274.055L109.774 252.699L109.773 252.699Z" fill="white"/>
<path d="M100.738 274.21C100.699 274.21 100.661 274.195 100.633 274.169L30.011 209.88C29.9933 209.864 29.9796 209.844 29.9708 209.822C29.9621 209.8 29.9585 209.776 29.9605 209.752C29.9624 209.728 29.9698 209.705 29.982 209.685C29.9943 209.665 30.0111 209.647 30.0311 209.634C30.6299 209.246 35.8952 205.835 36.3732 205.699C36.9739 205.529 37.6073 205.608 38.157 205.923L105.883 245.709C108.379 247.142 109.93 249.821 109.93 252.699C109.93 252.72 109.926 252.74 109.918 252.76L100.881 274.115C100.869 274.143 100.849 274.167 100.824 274.184C100.798 274.201 100.768 274.21 100.738 274.21ZM30.3703 209.786L100.68 273.791L109.618 252.668C109.607 249.913 108.118 247.352 105.726 245.978L38.0005 206.192C37.5259 205.92 36.9778 205.852 36.4583 205.999C36.1384 206.09 32.7065 208.272 30.3703 209.786V209.786Z" fill="black"/>
<path d="M100.789 256.637L103.25 285.744C103.25 285.744 108.884 282.222 109.258 281.807C109.606 281.419 109.826 280.904 109.826 280.312V252.65L100.789 256.637L100.789 256.637Z" fill="black"/>
<path d="M103.248 285.903C103.209 285.903 103.172 285.888 103.143 285.862C103.114 285.836 103.096 285.799 103.093 285.76L100.632 256.653C100.63 256.621 100.637 256.588 100.654 256.56C100.67 256.533 100.695 256.511 100.725 256.497L109.761 252.511C109.785 252.501 109.811 252.496 109.837 252.499C109.863 252.501 109.888 252.509 109.909 252.523C109.931 252.537 109.949 252.557 109.961 252.58C109.974 252.602 109.98 252.628 109.98 252.654V280.316C109.98 280.918 109.77 281.471 109.372 281.914C108.995 282.334 103.91 285.518 103.331 285.88C103.306 285.895 103.278 285.903 103.248 285.903L103.248 285.903ZM100.952 256.738L103.382 285.48C105.637 284.067 108.885 281.99 109.14 281.706C109.485 281.321 109.668 280.84 109.668 280.316V252.893L100.952 256.738Z" fill="black"/>
<path d="M32.5801 209.557L100.304 249.342C101.511 250.035 102.513 251.033 103.21 252.237C103.907 253.441 104.274 254.807 104.274 256.197V283.86C104.274 285.589 102.4 286.669 100.903 285.803L33.6245 246.781C32.3182 246.025 31.2337 244.939 30.4798 243.632C29.7259 242.326 29.3291 240.844 29.3291 239.335V211.437C29.3291 209.77 31.1337 208.726 32.5801 209.557Z" fill="white"/>
<path d="M102.026 286.266C101.613 286.266 101.199 286.157 100.822 285.939L33.5445 246.918C30.847 245.357 29.1714 242.452 29.1714 239.337V211.439C29.1714 210.6 29.6054 209.848 30.3322 209.427C31.0591 209.007 31.9277 209.006 32.656 209.424L32.6574 209.425L100.382 249.209C102.877 250.643 104.428 253.321 104.428 256.199V283.862C104.428 284.731 103.978 285.508 103.226 285.942C102.85 286.158 102.438 286.266 102.026 286.266H102.026ZM31.497 209.424C31.1425 209.424 30.7946 209.519 30.4885 209.697C29.8591 210.061 29.4832 210.712 29.4832 211.439V239.337C29.4832 242.341 31.0993 245.143 33.7008 246.648L100.979 285.67C101.633 286.048 102.415 286.049 103.07 285.672C103.725 285.294 104.116 284.618 104.116 283.862V256.199C104.116 253.433 102.625 250.858 100.225 249.479L32.5005 209.694C32.1955 209.518 31.8495 209.424 31.497 209.424Z" fill="black"/>
<path d="M54.3996 244.119C54.4028 242.175 53.8483 240.293 52.5424 238.883V238.828C54.9034 238.972 54.2112 234.025 53.8074 232.677C52.7934 229.291 49.3935 227.954 46.7437 226.381L46.7985 245.524C48.2216 246.408 50.8422 248.883 52.7659 248.679C54.7514 248.468 54.4 245.575 54.3994 244.119L54.3996 244.119ZM49.2001 230.601C50.6674 231.478 51.6791 232.109 51.6521 234.053C51.6608 236.58 51.284 236.944 49.2107 235.689L49.2001 230.601ZM49.2287 244.316L49.2164 238.433C50.8801 239.446 51.9299 240.221 51.9103 242.408C51.9142 245.471 51.8122 245.912 49.2287 244.316Z" fill="#ADC4CB"/>
<path d="M52.5327 248.842C51.0694 248.842 49.3415 247.56 47.9381 246.518C47.4857 246.182 47.0582 245.865 46.715 245.651C46.6926 245.637 46.6741 245.618 46.6612 245.595C46.6483 245.572 46.6415 245.546 46.6415 245.519L46.5864 226.377C46.5865 226.349 46.5938 226.322 46.6076 226.298C46.6214 226.275 46.6413 226.255 46.6652 226.241C46.6891 226.228 46.7162 226.221 46.7438 226.221C46.7713 226.221 46.7983 226.228 46.822 226.242C47.2495 226.496 47.688 226.739 48.1522 226.996C50.4656 228.277 53.0877 229.73 53.9556 232.628C54.2659 233.664 54.8193 237.106 53.7581 238.443C53.5144 238.75 53.2039 238.927 52.8322 238.971C53.9633 240.297 54.5576 242.069 54.5541 244.114C54.5541 244.29 54.5594 244.486 54.565 244.696C54.6065 246.262 54.669 248.629 52.7812 248.829C52.6994 248.838 52.6163 248.842 52.5327 248.842ZM46.9531 245.433C47.2928 245.651 47.6974 245.951 48.1241 246.268C49.4882 247.28 51.3564 248.667 52.7483 248.519C54.3499 248.35 54.2941 246.243 54.2534 244.704C54.2478 244.491 54.2425 244.292 54.2425 244.114V244.114C54.2461 242.044 53.6183 240.27 52.4268 238.984C52.4002 238.955 52.3854 238.917 52.3854 238.878V238.823C52.3854 238.802 52.3897 238.781 52.3981 238.761C52.4066 238.742 52.4189 238.724 52.4344 238.71C52.4499 238.695 52.4682 238.684 52.4882 238.676C52.5083 238.669 52.5295 238.666 52.5508 238.667C52.9563 238.692 53.2709 238.555 53.514 238.249C54.4447 237.077 53.9994 233.86 53.6569 232.717C52.8255 229.94 50.373 228.582 48.0011 227.268C47.6194 227.057 47.2552 226.855 46.8992 226.649L46.9531 245.433V245.433ZM51.2064 245.371C50.7478 245.371 50.0899 245.027 49.1457 244.444C49.1232 244.43 49.1045 244.41 49.0916 244.387C49.0787 244.364 49.0719 244.338 49.0718 244.312L49.0595 238.428C49.0594 238.401 49.0668 238.374 49.0807 238.35C49.0947 238.326 49.1148 238.306 49.1389 238.292C49.1631 238.279 49.1905 238.272 49.2182 238.272C49.2459 238.273 49.273 238.281 49.2966 238.295C51.0328 239.353 52.0854 240.157 52.0652 242.405C52.0673 244.108 52.045 245.01 51.5427 245.29C51.4447 245.345 51.333 245.371 51.2064 245.371ZM49.3835 244.224C50.3669 244.828 51.0837 245.19 51.3907 245.018C51.7317 244.828 51.7551 243.904 51.7533 242.404C51.7716 240.382 50.8669 239.632 49.3719 238.707L49.3835 244.224ZM50.8691 236.539C50.4269 236.539 49.8412 236.249 49.1289 235.818C49.106 235.804 49.0871 235.784 49.0739 235.761C49.0607 235.738 49.0538 235.712 49.0537 235.685L49.0431 230.596C49.0431 230.569 49.0503 230.541 49.0642 230.518C49.0781 230.494 49.098 230.474 49.122 230.46C49.146 230.447 49.1732 230.44 49.2009 230.44C49.2285 230.44 49.2555 230.448 49.2792 230.462C50.7076 231.316 51.8357 231.99 51.8071 234.051C51.8117 235.364 51.7209 236.178 51.2434 236.448C51.1332 236.511 51.0083 236.54 50.8692 236.54L50.8691 236.539ZM49.3654 235.596C50.3019 236.156 50.8198 236.33 51.0898 236.177C51.452 235.972 51.4988 235.033 51.4953 234.049C51.52 232.274 50.6262 231.637 49.3556 230.871L49.3654 235.596Z" fill="black"/>
<path d="M72.8034 254.321L70.3281 252.808C70.3231 253.878 71.0168 257.394 69.1102 256.779C67.9731 256.412 67.6845 254.96 67.6242 253.947C67.5061 251.963 67.6393 249.929 67.6469 247.94C67.6527 246.412 67.3926 244.611 67.6712 243.102C67.8803 241.971 68.3843 241.68 69.3509 242.445C70.7011 243.513 70.3618 245.586 70.3548 247.091L72.8346 248.586L72.845 246.661C72.8601 243.764 71.6234 241.034 69.1975 239.491C66.9831 238.081 65.3029 238.782 65.0915 241.502C64.8586 244.5 65.061 247.59 65.0521 250.591C65.0479 252.035 64.9999 253.466 65.4022 254.871C66.0308 257.066 67.7691 259.323 69.9817 260.029C73.3369 261.099 72.7925 256.321 72.8034 254.321V254.321Z" fill="#ADC4CB"/>
<path d="M70.863 260.338C70.5796 260.338 70.2689 260.284 69.9326 260.177C67.5189 259.407 65.8419 256.978 65.2507 254.914C64.8779 253.611 64.8854 252.27 64.8928 250.974L64.8946 250.59C64.8976 249.614 64.8776 248.609 64.8585 247.638C64.8184 245.612 64.7769 243.518 64.9345 241.489C65.0398 240.135 65.5067 239.214 66.2853 238.826C67.0762 238.431 68.1117 238.615 69.2798 239.359C71.6249 240.851 73.0154 243.581 72.9995 246.661L72.9891 248.587C72.9889 248.614 72.9815 248.641 72.9675 248.665C72.9535 248.689 72.9335 248.708 72.9095 248.722C72.8854 248.735 72.8582 248.742 72.8307 248.742C72.8031 248.741 72.7762 248.734 72.7526 248.719L70.2728 247.224C70.2497 247.21 70.2306 247.19 70.2174 247.167C70.2042 247.143 70.1974 247.117 70.1975 247.09C70.1986 246.849 70.2079 246.598 70.2179 246.333C70.2691 244.966 70.327 243.416 69.2529 242.567C68.841 242.241 68.522 242.117 68.3048 242.198C68.0842 242.281 67.9222 242.594 67.8233 243.13C67.6384 244.131 67.6953 245.272 67.7503 246.376C67.7776 246.923 67.8033 247.44 67.8014 247.94C67.7989 248.603 67.7821 249.282 67.766 249.939C67.7336 251.257 67.6999 252.619 67.7784 253.937C67.8406 254.983 68.1302 256.299 69.1567 256.63C69.4688 256.731 69.7041 256.714 69.8756 256.578C70.4221 256.146 70.2991 254.616 70.2178 253.603C70.192 253.284 70.1699 253.007 70.1708 252.807C70.1709 252.779 70.1784 252.752 70.1925 252.728C70.2065 252.705 70.2266 252.685 70.2508 252.672C70.2749 252.658 70.3022 252.651 70.3299 252.652C70.3575 252.652 70.3845 252.66 70.4081 252.675L72.8832 254.188C72.9061 254.202 72.925 254.221 72.938 254.245C72.9511 254.268 72.9579 254.295 72.9577 254.321C72.9565 254.55 72.9627 254.821 72.9693 255.107C73.0083 256.812 73.0619 259.147 71.9038 260.013C71.6143 260.229 71.2662 260.337 70.8632 260.337L70.863 260.338ZM67.1825 238.935C66.9058 238.935 66.652 238.991 66.4245 239.105C65.7493 239.441 65.3416 240.274 65.2454 241.513C65.0889 243.527 65.1302 245.614 65.1701 247.631C65.1894 248.605 65.2092 249.612 65.2064 250.591L65.2046 250.975C65.1971 252.309 65.1899 253.569 65.5505 254.828C66.1189 256.813 67.7236 259.145 70.0276 259.88C70.7509 260.111 71.3035 260.072 71.7171 259.763C72.7465 258.994 72.6929 256.66 72.6575 255.115C72.6511 254.879 72.6472 254.644 72.6456 254.408L70.4921 253.092C70.5007 253.235 70.514 253.4 70.5283 253.579C70.6201 254.722 70.746 256.287 70.0687 256.823C69.8127 257.025 69.4736 257.06 69.0607 256.927C67.8664 256.541 67.5348 255.099 67.4669 253.956C67.3877 252.625 67.4213 251.256 67.4539 249.931C67.4701 249.276 67.4867 248.599 67.4893 247.939C67.4912 247.447 67.4656 246.934 67.4385 246.392C67.3825 245.27 67.3248 244.11 67.5163 243.074C67.6382 242.414 67.86 242.032 68.1949 241.906C68.5259 241.782 68.9353 241.918 69.446 242.322C70.6443 243.27 70.5805 244.975 70.5293 246.345C70.5202 246.564 70.5137 246.783 70.5098 247.003L72.6785 248.311L72.6876 246.66C72.703 243.687 71.3663 241.056 69.1121 239.622C68.3956 239.166 67.7423 238.935 67.1825 238.935V238.935Z" fill="black"/>
<path d="M79.5316 254.804L83.3576 248.121L80.6516 246.514L80.6487 246.519L80.6454 246.518L77.126 253.089L77.081 253.062L77.1398 244.429L74.4801 242.85V242.857L74.474 242.853L74.356 262.662L76.9983 264.304V264.297L77.0044 264.301L77.0457 258.224L77.8761 256.921L80.414 266.427L83.1752 268.144L83.1729 268.135L83.1814 268.14L79.5316 254.804Z" fill="#ADC4CB"/>
<path d="M83.1681 268.298C83.1411 268.298 83.1147 268.29 83.0917 268.276L80.3307 266.56C80.297 266.539 80.2726 266.506 80.2624 266.468L77.8158 257.304L77.2003 258.27L77.1592 264.302C77.1589 264.34 77.1445 264.377 77.1188 264.405C77.0931 264.434 77.0578 264.452 77.0196 264.456C76.9835 264.462 76.9461 264.456 76.9147 264.436L74.2723 262.794C74.2497 262.78 74.231 262.76 74.2181 262.737C74.2053 262.713 74.1986 262.687 74.1987 262.661L74.3167 242.852C74.3169 242.814 74.3307 242.778 74.3557 242.75C74.3807 242.722 74.4151 242.703 74.4525 242.699C74.4887 242.691 74.5264 242.697 74.5584 242.716L77.2181 244.295C77.2415 244.308 77.2609 244.328 77.2743 244.352C77.2876 244.376 77.2946 244.402 77.2943 244.43L77.2391 252.545L80.5067 246.444C80.5179 246.423 80.5337 246.405 80.5529 246.391C80.5721 246.377 80.5942 246.368 80.6175 246.364C80.6556 246.356 80.6964 246.36 80.73 246.38L83.436 247.987C83.4711 248.007 83.4966 248.041 83.507 248.081C83.5175 248.12 83.5119 248.162 83.4916 248.198L79.6977 254.825L83.3304 268.099C83.3364 268.121 83.3375 268.144 83.3336 268.167C83.3297 268.189 83.3209 268.211 83.3077 268.229C83.2946 268.248 83.2775 268.264 83.2577 268.275C83.2378 268.287 83.2157 268.293 83.1929 268.295C83.1846 268.297 83.1762 268.297 83.1678 268.297L83.1681 268.298ZM80.5477 266.327L82.9274 267.807L79.3801 254.845C79.3747 254.825 79.3733 254.804 79.3758 254.784C79.3784 254.764 79.385 254.744 79.3951 254.726L83.145 248.176L80.7078 246.729L77.2625 253.162C77.2525 253.181 77.2389 253.197 77.2223 253.211C77.2058 253.224 77.1867 253.234 77.1663 253.239C77.1458 253.245 77.1245 253.246 77.1035 253.243C77.0825 253.24 77.0624 253.233 77.0443 253.222L76.999 253.195C76.976 253.181 76.9569 253.161 76.9438 253.137C76.9306 253.114 76.9238 253.087 76.9241 253.06L76.9822 244.517L74.6273 243.119L74.5115 262.575L76.8494 264.029L76.889 258.223C76.8891 258.194 76.8977 258.165 76.9133 258.14L77.7435 256.837C77.7597 256.812 77.783 256.791 77.8106 256.779C77.8382 256.766 77.8689 256.762 77.8989 256.766C77.9288 256.771 77.9568 256.784 77.9794 256.805C78.0019 256.825 78.018 256.851 78.0257 256.881L80.5479 266.328L80.5477 266.327Z" fill="black"/>
<path d="M64.0779 256.266L61.5194 235.155L57.8007 232.947L57.7998 232.954L57.7948 232.951L55.2344 250.776L57.5311 252.204L57.5321 252.197L57.5371 252.2L57.9725 248.972L61.0687 250.881L61.501 254.671L64.072 256.27L64.0711 256.262L64.0779 256.266ZM60.727 248.033L58.2899 246.539L59.495 237.426L59.5 237.429L59.501 237.422L59.5471 237.45L60.7329 248.029L60.7262 248.025L60.727 248.033Z" fill="#ADC4CB"/>
<path d="M64.0669 256.423C64.0397 256.423 64.0131 256.416 63.9899 256.402L61.4189 254.803C61.399 254.791 61.3821 254.774 61.3695 254.754C61.3569 254.735 61.3491 254.712 61.3464 254.689L60.9227 250.974L58.0952 249.231L57.6919 252.221C57.6873 252.255 57.6717 252.286 57.6473 252.311C57.6229 252.335 57.5913 252.35 57.5572 252.354C57.5202 252.362 57.4817 252.355 57.4493 252.336L55.1526 250.908C55.1269 250.892 55.1064 250.869 55.0936 250.841C55.0809 250.814 55.0764 250.783 55.0807 250.753L57.6411 232.929C57.6458 232.895 57.6612 232.864 57.6849 232.841C57.7087 232.817 57.7395 232.801 57.7728 232.797C57.8097 232.788 57.8482 232.794 57.8809 232.813L61.5996 235.021C61.6201 235.033 61.6376 235.05 61.6506 235.07C61.6637 235.09 61.6719 235.113 61.6748 235.137L64.2333 256.247C64.2358 256.268 64.2342 256.289 64.2286 256.309C64.223 256.328 64.2135 256.347 64.2006 256.363C64.1877 256.379 64.1718 256.393 64.1537 256.403C64.1356 256.413 64.1157 256.419 64.0951 256.421C64.0859 256.423 64.0766 256.424 64.0672 256.423L64.0669 256.423ZM61.6476 254.579L63.8851 255.97L61.3742 235.25L57.9172 233.197L55.4034 250.697L57.4141 251.947L57.8182 248.951C57.8216 248.925 57.8314 248.901 57.8467 248.88C57.8621 248.859 57.8824 248.842 57.9059 248.831C57.9294 248.82 57.9553 248.815 57.9813 248.816C58.0073 248.818 58.0325 248.826 58.0545 248.84L61.1508 250.749C61.1915 250.774 61.2184 250.816 61.2239 250.864L61.6476 254.579V254.579ZM60.7219 248.186C60.695 248.186 60.6686 248.179 60.6456 248.165L58.2086 246.672C58.1829 246.656 58.1623 246.633 58.1494 246.606C58.1364 246.579 58.1317 246.548 58.1356 246.518L59.3407 237.405C59.3451 237.371 59.3606 237.34 59.3847 237.316C59.4088 237.291 59.4403 237.276 59.4742 237.271C59.5108 237.264 59.5491 237.27 59.5814 237.288L59.6274 237.316C59.6692 237.341 59.6968 237.384 59.7021 237.432L60.8879 248.011C60.8925 248.052 60.8806 248.093 60.8549 248.126C60.8292 248.158 60.7917 248.179 60.7507 248.183C60.7411 248.185 60.7314 248.186 60.7217 248.186L60.7219 248.186ZM58.458 246.459L60.5434 247.737L59.5091 238.51L58.458 246.459Z" fill="black"/>
</g>
<g clip-path="url(#clip5_1198_8413)">
<path d="M87.1932 105.19C87.7614 106.165 87.7755 107.732 87.3084 108.645C87.0378 109.174 82.6163 111.613 82.6163 111.613L60.0156 73.1197C60.0156 73.1197 62.6459 71.5208 63.7891 70.8638C65.2522 70.023 67.0961 70.7726 67.7521 71.8337L87.1932 105.19V105.19Z" fill="white"/>
<path d="M82.6147 111.775C82.5608 111.775 82.5083 111.748 82.4792 111.698L59.8783 73.2047C59.8576 73.1695 59.8517 73.1276 59.8617 73.0881C59.8717 73.0485 59.8969 73.0144 59.9319 72.9932C59.9582 72.9771 62.5771 71.3857 63.7088 70.7353C65.2046 69.8756 67.1468 70.5666 67.8838 71.7585L87.3271 105.118C87.9036 106.107 87.957 107.724 87.4463 108.722C87.1683 109.266 83.4361 111.345 82.6908 111.756C82.6676 111.769 82.6415 111.775 82.615 111.775L82.6147 111.775ZM60.2264 73.1795L82.6725 111.409C84.373 110.466 86.9903 108.926 87.1668 108.581C87.6269 107.682 87.576 106.167 87.0558 105.275L67.6147 71.9184C66.9686 70.8735 65.1888 70.2447 63.8655 71.0052C62.883 71.5698 60.7726 72.8481 60.2264 73.1795Z" fill="black"/>
<path d="M67.7505 71.8359L87.1917 105.192C87.7598 106.167 87.7739 107.734 87.3068 108.647C87.0363 109.176 82.6147 111.615 82.6147 111.615L61.3208 75.3474L67.7505 71.8359Z" fill="black"/>
<path d="M82.6165 111.773C82.5626 111.773 82.5101 111.745 82.481 111.695L61.1869 75.4275C61.1763 75.4096 61.1695 75.3897 61.1668 75.369C61.1641 75.3484 61.1656 75.3274 61.1712 75.3074C61.1768 75.2873 61.1864 75.2686 61.1994 75.2523C61.2124 75.2359 61.2285 75.2224 61.2469 75.2124L67.6766 71.7009C67.7125 71.6813 67.7546 71.6764 67.794 71.6874C67.8334 71.6983 67.867 71.7241 67.8875 71.7593L87.3286 105.116C87.905 106.105 87.9585 107.721 87.4478 108.72C87.1697 109.264 83.4376 111.342 82.6923 111.753C82.6691 111.766 82.643 111.773 82.6165 111.773ZM61.5386 75.4085L82.6743 111.407C84.3748 110.464 86.9921 108.923 87.1686 108.578C87.6289 107.679 87.578 106.165 87.0576 105.272L67.6932 72.0473L61.5386 75.4085Z" fill="black"/>
<path d="M86.0425 88.7808L81.8069 91.2573L69.3403 98.5197L64.7021 91.2711L82.2458 81.1563C83.4579 80.4602 85.5827 80.8073 87.1653 83.7783C88.509 86.3008 87.6403 87.9127 86.0426 88.7808H86.0425Z" fill="white"/>
<path d="M69.3399 98.6715C69.3136 98.6716 69.2876 98.665 69.2644 98.6524C69.2413 98.6397 69.2217 98.6215 69.2076 98.5994L64.5694 91.3508C64.5581 91.3331 64.5505 91.3133 64.547 91.2926C64.5436 91.2718 64.5444 91.2506 64.5494 91.2302C64.5544 91.2098 64.5635 91.1907 64.5761 91.1738C64.5888 91.157 64.6047 91.1429 64.623 91.1324L82.1667 81.0176C82.7682 80.6721 83.5057 80.5983 84.2439 80.8094C85.0612 81.0431 86.2553 81.7346 87.3029 83.7014C88.9438 86.7817 87.2668 88.2881 86.119 88.9124L81.8856 91.3876L69.4189 98.6502C69.3949 98.6641 69.3677 98.6715 69.3399 98.6715ZM64.9214 91.3204L69.3908 98.3054L81.7271 91.1188L85.9625 88.6426C85.964 88.6418 85.9654 88.6409 85.9667 88.6401C87.2448 87.9456 88.466 86.5503 87.0261 83.8472C86.03 81.977 84.9163 81.3258 84.1575 81.1087C83.5019 80.9213 82.8506 80.9845 82.3236 81.2871L64.9214 91.3203V91.3204Z" fill="black"/>
<path d="M87.7694 85.4316C88.0479 87.0232 87.2548 88.1122 86.0408 88.7719L81.8052 91.2483L69.3386 98.5107L68.2393 96.7928L87.7692 85.4318L87.7694 85.4316Z" fill="black"/>
<path d="M69.3397 98.676C69.3134 98.676 69.2874 98.6695 69.2643 98.6568C69.2411 98.6442 69.2216 98.626 69.2074 98.6039L68.108 96.8859C68.0967 96.8682 68.0891 96.8485 68.0856 96.8278C68.0822 96.8071 68.0829 96.786 68.0879 96.7656C68.0929 96.7452 68.1019 96.7261 68.1145 96.7093C68.1271 96.6925 68.1429 96.6783 68.1611 96.6678L87.6912 85.3066C87.7131 85.2939 87.7377 85.2866 87.7629 85.2853C87.7882 85.2841 87.8134 85.289 87.8364 85.2996C87.8593 85.3102 87.8794 85.3262 87.8947 85.3462C87.9101 85.3662 87.9204 85.3896 87.9246 85.4145C88.2575 87.3175 87.1253 88.3702 86.1168 88.9181L81.8854 91.3921L69.4187 98.6547C69.3948 98.6686 69.3675 98.676 69.3397 98.676ZM68.4597 96.8551L69.3907 98.3099L81.7269 91.1233L85.9623 88.647C86.8442 88.1678 87.8258 87.2733 87.6483 85.6926L68.4597 96.8551Z" fill="black"/>
<path d="M75.5667 94.8935L82.0298 91.1284C83.4954 90.2867 84.4072 88.5996 83.0635 86.0771C81.4809 83.1061 79.4321 82.8132 78.22 83.5093L71.2608 87.5057L63.5968 74.356C62.9774 73.094 61.0592 72.1625 59.8055 73.2894C58.8738 74.1267 58.9709 75.9088 59.6393 77.0602L67.0501 89.9237L60.6448 93.602C59.2334 94.4126 58.7453 96.2243 59.5602 97.628L60.7407 99.6616C61.6618 101.248 63.7018 101.792 65.2971 100.876L71.3339 97.3592L78.4706 109.747C79.5477 111.562 80.9763 112.072 82.2524 111.765C83.6503 111.429 83.8347 109.079 83.0381 107.712L75.5668 94.8935H75.5667Z" fill="#87C159"/>
<path d="M81.5567 112.001C80.3218 112.001 79.1767 111.236 78.3368 109.821L71.2778 97.5682L65.3776 101.006C64.9808 101.235 64.5422 101.384 64.0872 101.443C63.6322 101.503 63.1698 101.472 62.7268 101.353C62.2833 101.236 61.8675 101.033 61.5036 100.755C61.1396 100.477 60.8346 100.13 60.6063 99.7346L59.4258 97.701C59.0108 96.986 58.9013 96.1501 59.1175 95.3472C59.3337 94.5443 59.8487 93.8748 60.5676 93.462L66.8377 89.8613L59.5049 77.1329C58.8103 75.9363 58.688 74.0802 59.7019 73.1688C60.2134 72.7092 60.8867 72.5313 61.5975 72.6679C62.4885 72.8391 63.3492 73.4882 63.739 74.2827L71.3193 87.2879L78.1432 83.3693C78.7541 83.0185 79.4899 82.9393 80.215 83.1467C81.0056 83.3728 82.1659 84.0512 83.2035 85.9989C84.3863 88.2195 83.9775 90.1857 82.1098 91.2583L75.782 94.9446L83.175 107.629C83.7226 108.569 83.826 109.935 83.4208 110.878C83.1819 111.434 82.7909 111.791 82.2907 111.912C82.0505 111.97 81.8042 112 81.557 112L81.5567 112.001ZM71.3352 97.1985C71.3627 97.1985 71.3898 97.2058 71.4137 97.2195C71.4375 97.2333 71.4573 97.2531 71.471 97.2769L78.6076 109.664C79.5358 111.228 80.8513 111.938 82.2168 111.609C82.7228 111.487 82.9941 111.078 83.1325 110.755C83.496 109.91 83.3976 108.633 82.9037 107.786L75.4326 94.9668C75.4118 94.9312 75.4061 94.8888 75.4167 94.849C75.4272 94.8092 75.4532 94.7751 75.489 94.7543L81.9521 90.9892C82.7712 90.5188 84.5038 89.1064 82.9264 86.1452C81.9405 84.2942 80.8605 83.656 80.1282 83.4465C79.486 83.2628 78.8363 83.3312 78.2997 83.6395L71.3405 87.6359C71.3045 87.6565 71.2618 87.6621 71.2217 87.6514C71.1817 87.6408 71.1475 87.6147 71.1267 87.579L63.4626 74.4292C63.1084 73.7084 62.3371 73.1275 61.5378 72.9738C61.1052 72.8906 60.4716 72.8968 59.9119 73.3999C59.0423 74.1814 59.1397 75.8807 59.7764 76.9774L67.1873 89.8413C67.2079 89.8771 67.2135 89.9196 67.2027 89.9594C67.1919 89.9992 67.1656 90.0331 67.1297 90.0537L60.7244 93.7321C60.0781 94.1032 59.6148 94.7056 59.4203 95.428C59.2257 96.1505 59.324 96.9025 59.6972 97.5453L60.8777 99.579C61.3022 100.31 61.9877 100.834 62.8079 101.052C63.6281 101.271 64.4848 101.159 65.2201 100.736L71.2561 97.22C71.28 97.206 71.3073 97.1986 71.3352 97.1987V97.1985Z" fill="black"/>
</g>
<g clip-path="url(#clip6_1198_8413)">
<path d="M123.824 202.24C118.381 209.549 121.443 201.588 121.419 201.574L113.075 187.895C113.052 187.881 113.032 187.861 113.019 187.837C113.006 187.814 112.999 187.787 112.999 187.76C112.999 187.732 113.006 187.706 113.02 187.682C113.034 187.659 113.054 187.639 113.077 187.625L115.829 197.208C102.093 211.722 114.789 193.586 118.039 194.294C118.949 207.749 100.897 203.998 114.789 192.279C100.973 192.279 112.985 194.27 112.999 194.294C112.999 194.266 113.013 194.317 112.999 194.294L116.934 198.346C116.934 198.387 116.233 207.109 122.111 201.574C115.193 205.419 120.828 209.208 122.111 199.884L123.824 202.24ZM112.999 199.884L120.054 201.574V197.208L112.999 199.884ZM188.379 259.324L157.944 232.613V150.418C157.944 150.418 170.061 143.094 174.161 141.001C176.462 139.827 179.524 139.99 182.981 141.161C199.172 146.647 209.612 164.363 209.554 178.836L209.319 236.797C209.36 239.703 208.818 242.202 208.21 244.149C207.349 246.902 206.122 248.802 204.533 249.833C197.682 254.276 188.379 259.324 188.379 259.324L188.379 259.324Z" fill="black"/>
<path d="M188.379 259.478C188.341 259.478 188.305 259.464 188.276 259.439L157.842 232.728C157.825 232.714 157.812 232.696 157.802 232.676C157.793 232.655 157.789 232.633 157.789 232.611V150.416C157.789 150.361 157.817 150.31 157.864 150.282C157.985 150.209 170.033 142.931 174.09 140.86C176.34 139.712 179.348 139.763 183.031 141.011C190.603 143.577 197.514 149.092 202.491 156.539C207.108 163.449 209.739 171.576 209.71 178.835L209.475 236.795C209.51 239.258 209.144 241.678 208.359 244.193C207.49 246.974 206.231 248.915 204.618 249.961C197.84 254.357 188.547 259.409 188.454 259.459C188.43 259.472 188.405 259.478 188.379 259.478ZM158.101 232.541L188.4 259.133C189.404 258.585 198.05 253.849 204.448 249.699C205.999 248.693 207.214 246.809 208.061 244.1C208.837 241.617 209.197 239.228 209.163 236.797L209.398 178.833C209.454 164.814 199.57 146.945 182.932 141.306C179.33 140.086 176.404 140.03 174.232 141.138C170.353 143.118 159.134 149.881 158.101 150.504V232.54L158.101 232.541Z" fill="black"/>
<path d="M146.314 162.438L134.939 169.068C121.321 151.478 108.987 152.295 108.555 152.36L108.549 152.363C108.539 152.363 108.541 152.362 108.555 152.36L121.549 144.693C124.734 146.318 137.409 151.063 146.314 162.438Z" fill="white"/>
<path d="M209.555 178.836C209.613 164.363 199.173 146.647 182.982 141.161C179.526 139.99 176.463 139.827 174.162 141C170.443 142.899 160.125 149.103 158.243 150.239C160.771 148.807 164.088 148.594 168.026 149.929C184.216 155.415 194.657 173.131 194.598 187.605L194.364 245.565C194.404 248.471 193.862 250.97 193.254 252.917C192.294 255.987 190.8 257.881 189.041 258.961C191.284 257.73 198.775 253.567 204.534 249.832C206.123 248.801 207.767 246.909 208.628 244.156C209.235 242.209 209.36 239.702 209.32 236.796L209.555 178.836V178.836Z" fill="white"/>
<path d="M247.092 279.705C247.051 279.705 247.011 279.688 246.982 279.659C246.953 279.63 246.936 279.59 246.936 279.549L246.968 265.128C246.968 265.072 246.998 265.021 247.046 264.993L262.237 256.181C262.26 256.167 262.287 256.16 262.315 256.16C262.342 256.16 262.369 256.167 262.393 256.181C262.417 256.195 262.437 256.215 262.45 256.238C262.464 256.262 262.471 256.289 262.471 256.317L262.439 270.737C262.439 270.793 262.41 270.844 262.362 270.872L247.171 279.684C247.147 279.698 247.12 279.705 247.092 279.705ZM247.28 265.218L247.249 279.278L262.127 270.647L262.158 256.588L247.28 265.218Z" fill="black"/>
<path d="M189.041 259.115C189.007 259.115 188.974 259.104 188.947 259.083C188.92 259.062 188.9 259.034 188.891 259.001C188.882 258.968 188.883 258.933 188.896 258.902C188.908 258.87 188.93 258.843 188.959 258.825C190.834 257.675 192.229 255.671 193.105 252.868C193.88 250.384 194.241 247.995 194.207 245.565L194.442 187.602C194.499 173.583 184.615 155.713 167.976 150.075C164.239 148.808 160.9 148.911 158.32 150.373C158.284 150.393 158.242 150.398 158.202 150.388C158.163 150.377 158.129 150.351 158.108 150.316C158.088 150.28 158.082 150.238 158.092 150.199C158.102 150.159 158.127 150.125 158.162 150.103C158.649 149.81 170.125 142.883 174.091 140.859C176.34 139.712 179.349 139.763 183.032 141.011C190.604 143.576 197.515 149.091 202.492 156.539C207.109 163.449 209.74 171.575 209.711 178.835L209.476 236.795C209.524 240.261 209.315 242.476 208.777 244.2C208.013 246.642 206.498 248.742 204.619 249.961C198.802 253.734 191.282 257.906 189.116 259.095C189.093 259.108 189.068 259.115 189.041 259.115L189.041 259.115ZM163.074 148.883C164.633 148.883 166.312 149.181 168.076 149.779C175.647 152.345 182.558 157.86 187.535 165.308C192.152 172.218 194.784 180.344 194.754 187.604L194.52 245.564C194.554 248.025 194.188 250.445 193.403 252.961C192.751 255.047 191.815 256.704 190.61 257.912C193.775 256.149 199.685 252.789 204.449 249.699C206.267 248.519 207.736 246.481 208.478 244.108C209.006 242.417 209.211 240.23 209.164 236.797L209.398 178.834C209.455 164.815 199.571 146.945 182.932 141.307C179.331 140.087 176.404 140.03 174.233 141.138C171.178 142.697 163.643 147.18 160.146 149.276C161.062 149.014 162.041 148.883 163.074 148.883Z" fill="black"/>
<path d="M194.599 187.603L194.365 245.563C194.404 248.469 193.863 250.968 193.255 252.915C192.295 255.985 190.801 257.879 189.042 258.959C191.284 257.728 198.776 253.565 204.535 249.83C206.124 248.799 207.768 246.907 208.629 244.154C209.236 242.207 209.361 239.7 209.321 236.794L209.556 178.834L194.599 187.603V187.603Z" fill="black"/>
<path d="M189.041 259.114C189.007 259.114 188.974 259.103 188.947 259.083C188.92 259.062 188.9 259.033 188.891 259.001C188.881 258.968 188.883 258.933 188.895 258.901C188.908 258.87 188.93 258.843 188.959 258.825C190.834 257.675 192.229 255.67 193.104 252.868C193.88 250.384 194.24 247.995 194.207 245.565L194.442 187.602C194.442 187.575 194.449 187.548 194.462 187.524C194.476 187.501 194.495 187.481 194.519 187.468L209.475 178.699C209.499 178.685 209.526 178.678 209.554 178.678C209.581 178.678 209.608 178.685 209.632 178.699C209.656 178.712 209.676 178.732 209.69 178.756C209.703 178.78 209.711 178.807 209.71 178.835L209.476 236.795C209.524 240.26 209.315 242.476 208.776 244.2C208.013 246.642 206.497 248.742 204.619 249.96C198.802 253.733 191.282 257.906 189.116 259.095C189.093 259.108 189.067 259.114 189.041 259.114H189.041ZM194.753 187.692L194.519 245.563C194.553 248.024 194.188 250.445 193.402 252.961C192.751 255.046 191.815 256.704 190.61 257.912C193.774 256.148 199.684 252.789 204.448 249.699C206.267 248.519 207.736 246.481 208.478 244.107C209.006 242.416 209.211 240.23 209.163 236.796L209.397 179.107L194.753 187.692V187.692Z" fill="black"/>
<path d="M194.599 187.6C194.658 173.127 184.217 155.411 168.027 149.925C158.498 146.696 152.611 152.521 152.72 162.785L152.611 220.674C152.611 234.406 160.173 248.206 172.5 255.89C172.935 256.161 188.82 267.108 193.255 252.912C193.863 250.966 194.405 248.467 194.365 245.561L194.599 187.6V187.6ZM180.352 238.668C179.689 247.92 171.147 240.617 169.694 238.846C165.734 234.022 166.336 227.827 166.336 218.386L166.436 175.497C166.401 168.441 167.33 164.379 172.377 166.695C178.221 169.378 180.564 173.782 180.545 183.733L180.544 233.523C180.557 235.521 180.449 237.319 180.352 238.668L180.352 238.668Z" fill="#87C159"/>
<path d="M184.383 260.333C179.429 260.333 174.216 257.205 172.489 256.069C172.453 256.046 172.43 256.03 172.418 256.023C166.389 252.265 161.333 246.941 157.796 240.627C154.302 234.387 152.455 227.487 152.455 220.674L152.563 162.785C152.504 157.223 154.198 152.908 157.333 150.637C160.101 148.631 163.816 148.333 168.077 149.777C175.648 152.343 182.559 157.858 187.536 165.306C192.153 172.216 194.785 180.342 194.755 187.601L194.521 245.562C194.555 248.024 194.19 250.445 193.404 252.959C192.288 256.532 190.347 258.834 187.634 259.803C186.592 260.175 185.494 260.333 184.383 260.333H184.383ZM163.071 149.19C160.954 149.19 159.077 149.758 157.516 150.89C154.466 153.1 152.818 157.324 152.876 162.784L152.767 220.675C152.767 234.483 160.546 248.255 172.583 255.758C172.596 255.766 172.622 255.783 172.661 255.809C174.744 257.178 181.974 261.493 187.529 259.509C190.145 258.575 192.021 256.34 193.106 252.866C193.882 250.384 194.243 247.995 194.209 245.563L194.443 187.6C194.5 173.581 184.616 155.711 167.977 150.073C166.237 149.484 164.592 149.19 163.071 149.19H163.071ZM177.131 243.412C174.238 243.412 170.444 240.007 169.574 238.946C166.058 234.663 166.102 229.217 166.163 221.68C166.171 220.623 166.18 219.531 166.18 218.386L166.28 175.497C166.26 171.45 166.505 167.533 168.42 166.299C169.391 165.673 170.706 165.757 172.442 166.554C178.482 169.326 180.72 173.982 180.702 183.734L180.701 233.523C180.714 235.536 180.605 237.337 180.508 238.68C180.323 241.273 179.501 242.819 178.068 243.274C177.771 243.369 177.456 243.412 177.131 243.412L177.131 243.412ZM169.913 166.198C169.405 166.198 168.965 166.319 168.589 166.561C166.796 167.717 166.574 171.727 166.592 175.497L166.492 218.387C166.492 219.532 166.483 220.625 166.475 221.683C166.415 229.154 166.371 234.553 169.815 238.748C170.662 239.78 174.343 243.104 177.102 243.105C177.405 243.105 177.697 243.065 177.973 242.977C179.273 242.564 180.021 241.111 180.197 238.658C180.293 237.32 180.401 235.528 180.388 233.524L180.389 183.734C180.407 174.128 178.218 169.549 172.312 166.838C171.382 166.411 170.587 166.198 169.913 166.198L169.913 166.198ZM255.822 252.489L255.938 183.64L240.785 174.922L225.594 183.734L215.457 229.287L211.231 245.633L238.215 265.822L240.426 294.168L255.617 285.356L255.668 274.622L262.283 270.737L262.315 256.317L255.822 252.489Z" fill="black"/>
<path d="M240.426 294.325C240.387 294.325 240.349 294.31 240.32 294.283C240.291 294.257 240.273 294.22 240.27 294.181L238.065 265.905L211.137 245.758C211.113 245.74 211.094 245.714 211.084 245.685C211.073 245.656 211.072 245.624 211.08 245.594L215.306 229.249L225.441 183.7C225.451 183.657 225.478 183.621 225.515 183.599L240.706 174.787C240.73 174.773 240.757 174.766 240.785 174.766C240.812 174.766 240.839 174.773 240.863 174.786L256.017 183.505C256.04 183.519 256.06 183.539 256.074 183.563C256.088 183.586 256.095 183.613 256.095 183.641L255.979 252.4L262.394 256.183C262.442 256.211 262.471 256.262 262.471 256.317L262.439 270.738C262.439 270.765 262.432 270.792 262.418 270.815C262.405 270.839 262.385 270.859 262.362 270.872L255.824 274.712L255.773 285.357C255.773 285.384 255.766 285.411 255.752 285.435C255.738 285.458 255.719 285.478 255.695 285.491L240.504 294.304C240.48 294.317 240.453 294.325 240.426 294.325ZM211.408 245.571L238.308 265.697C238.344 265.724 238.367 265.766 238.37 265.81L240.562 293.909L255.461 285.266L255.512 274.622C255.512 274.595 255.519 274.568 255.533 274.544C255.546 274.521 255.566 274.501 255.589 274.488L262.127 270.648L262.158 256.406L255.743 252.624C255.719 252.61 255.7 252.591 255.687 252.567C255.673 252.543 255.666 252.517 255.666 252.489L255.782 183.731L240.785 175.102L225.731 183.835L215.609 229.322L211.408 245.571H211.408Z" fill="black"/>
<path d="M240.631 261.302L240.747 192.453L225.593 183.734L200.265 238.1L200.24 252.436L226.651 267.751L226.682 286.163L240.426 294.169L240.6 275.876L247.092 279.551L247.123 265.13L240.631 261.302L240.631 261.302ZM226.65 253.367L213.01 245.258L226.5 215.589L226.692 215.679L226.65 253.367Z" fill="#87C159"/>
<path d="M240.427 294.325C240.399 294.325 240.372 294.318 240.348 294.304L226.604 286.298C226.581 286.284 226.561 286.264 226.548 286.241C226.534 286.217 226.527 286.19 226.527 286.163L226.496 267.84L200.163 252.57C200.139 252.556 200.119 252.537 200.106 252.513C200.092 252.489 200.085 252.462 200.085 252.435L200.11 238.1C200.11 238.077 200.115 238.055 200.125 238.034L225.453 183.668C225.462 183.649 225.475 183.631 225.491 183.617C225.508 183.603 225.527 183.592 225.547 183.585C225.568 183.579 225.59 183.577 225.611 183.579C225.633 183.581 225.654 183.588 225.672 183.599L240.826 192.318C240.85 192.332 240.87 192.351 240.883 192.375C240.897 192.399 240.904 192.426 240.904 192.453L240.788 261.213L247.204 264.995C247.251 265.023 247.281 265.075 247.281 265.13L247.249 279.551C247.249 279.578 247.241 279.605 247.228 279.628C247.214 279.652 247.195 279.672 247.171 279.685C247.147 279.699 247.121 279.706 247.093 279.706C247.066 279.707 247.039 279.7 247.016 279.686L240.755 276.142L240.583 294.17C240.582 294.212 240.566 294.251 240.536 294.28C240.507 294.309 240.468 294.325 240.427 294.325ZM226.839 286.073L240.273 293.899L240.445 275.874C240.445 275.847 240.452 275.82 240.466 275.797C240.48 275.773 240.499 275.754 240.523 275.74C240.547 275.727 240.573 275.719 240.6 275.719C240.627 275.719 240.654 275.726 240.678 275.739L246.937 279.283L246.968 265.219L240.552 261.436C240.529 261.423 240.51 261.403 240.496 261.379C240.483 261.356 240.476 261.329 240.476 261.302L240.592 192.543L225.664 183.954L200.422 238.135L200.397 252.345L226.73 267.615C226.754 267.629 226.773 267.649 226.787 267.672C226.801 267.696 226.808 267.723 226.808 267.75L226.839 286.073ZM226.651 253.523C226.623 253.523 226.596 253.515 226.571 253.501L212.932 245.392C212.899 245.373 212.874 245.342 212.862 245.305C212.851 245.268 212.853 245.229 212.869 245.194L226.36 215.525C226.368 215.506 226.38 215.489 226.395 215.475C226.411 215.461 226.428 215.45 226.448 215.443C226.467 215.435 226.488 215.432 226.508 215.433C226.529 215.434 226.549 215.439 226.568 215.448L226.759 215.538C226.786 215.55 226.809 215.57 226.825 215.595C226.841 215.621 226.849 215.65 226.849 215.679L226.807 253.367C226.807 253.408 226.791 253.448 226.761 253.477C226.732 253.506 226.692 253.523 226.651 253.523ZM213.211 245.195L226.495 253.092L226.536 215.889L213.211 245.195Z" fill="black"/>
<path d="M255.939 183.637L240.748 192.449L225.594 183.73L240.785 174.918L255.939 183.637Z" fill="white"/>
<path d="M240.747 192.609C240.72 192.609 240.693 192.602 240.669 192.588L225.515 183.869C225.492 183.855 225.472 183.836 225.458 183.812C225.445 183.788 225.438 183.761 225.438 183.734C225.437 183.707 225.445 183.68 225.458 183.656C225.472 183.632 225.491 183.613 225.515 183.599L240.706 174.787C240.73 174.773 240.757 174.766 240.784 174.766C240.812 174.766 240.839 174.773 240.862 174.786L256.016 183.505C256.04 183.519 256.059 183.539 256.073 183.562C256.087 183.586 256.094 183.613 256.094 183.64C256.094 183.668 256.087 183.695 256.073 183.718C256.06 183.742 256.04 183.762 256.017 183.776L240.826 192.588C240.802 192.602 240.775 192.609 240.747 192.609ZM225.906 183.733L240.747 192.272L255.626 183.641L240.785 175.102L225.906 183.733Z" fill="black"/>
<path d="M255.821 252.487L240.63 261.3L240.747 192.451L255.938 183.639L255.821 252.487Z" fill="black"/>
<path d="M240.631 261.453C240.61 261.453 240.59 261.449 240.571 261.442C240.552 261.434 240.535 261.422 240.52 261.408C240.506 261.393 240.494 261.376 240.486 261.357C240.479 261.338 240.475 261.318 240.475 261.297L240.591 192.448C240.591 192.393 240.621 192.341 240.669 192.314L255.86 183.502C255.884 183.488 255.91 183.481 255.938 183.48C255.965 183.48 255.992 183.488 256.016 183.501C256.04 183.515 256.06 183.535 256.073 183.559C256.087 183.582 256.094 183.609 256.094 183.637L255.978 252.486C255.978 252.541 255.948 252.593 255.9 252.62L240.709 261.432C240.685 261.446 240.658 261.453 240.631 261.453H240.631ZM240.903 192.539L240.787 261.026L255.666 252.395L255.782 183.908L240.903 192.538L240.903 192.539Z" fill="black"/>
<path d="M262.314 256.314L247.123 265.126L240.63 261.299L255.821 252.486L262.314 256.314Z" fill="white"/>
<path d="M247.122 265.284C247.094 265.284 247.067 265.277 247.043 265.262L240.55 261.435C240.527 261.421 240.507 261.401 240.493 261.378C240.48 261.354 240.473 261.327 240.473 261.3C240.473 261.272 240.48 261.246 240.494 261.222C240.508 261.198 240.527 261.179 240.551 261.165L255.742 252.353C255.766 252.339 255.794 252.332 255.821 252.332C255.849 252.332 255.876 252.34 255.9 252.354L262.393 256.181C262.416 256.195 262.436 256.215 262.449 256.239C262.463 256.262 262.47 256.289 262.47 256.316C262.47 256.344 262.462 256.37 262.449 256.394C262.435 256.418 262.415 256.437 262.392 256.451L247.201 265.263C247.177 265.277 247.15 265.284 247.122 265.284L247.122 265.284ZM240.939 261.301L247.123 264.947L262.004 256.315L255.82 252.669L240.939 261.301ZM255.616 285.355L240.424 294.167L240.599 275.874L247.09 279.549L255.666 274.621L255.616 285.355Z" fill="black"/>
<path d="M240.426 294.325C240.406 294.325 240.385 294.321 240.366 294.313C240.347 294.305 240.33 294.294 240.315 294.279C240.301 294.264 240.289 294.247 240.282 294.228C240.274 294.209 240.27 294.188 240.27 294.168L240.444 275.874C240.445 275.847 240.452 275.82 240.466 275.797C240.479 275.773 240.499 275.754 240.522 275.74C240.546 275.727 240.573 275.719 240.6 275.719C240.627 275.719 240.654 275.726 240.677 275.74L247.091 279.371L255.59 274.488C255.614 274.474 255.641 274.467 255.668 274.467C255.696 274.467 255.723 274.474 255.747 274.488C255.77 274.502 255.79 274.522 255.804 274.545C255.817 274.569 255.824 274.596 255.824 274.624L255.773 285.358C255.773 285.385 255.766 285.412 255.752 285.435C255.738 285.459 255.719 285.478 255.695 285.492L240.504 294.304C240.48 294.318 240.453 294.325 240.426 294.325H240.426ZM240.754 276.142L240.585 293.897L255.462 285.267L255.511 274.893L247.17 279.686C247.146 279.699 247.119 279.706 247.092 279.706C247.065 279.707 247.039 279.7 247.015 279.686L240.754 276.142Z" fill="black"/>
<path d="M262.283 270.737L247.092 279.549L247.124 265.128L262.315 256.316L262.283 270.737Z" fill="black"/>
<path d="M226.718 253.424L213.011 245.256L226.669 237.41L226.718 253.424Z" fill="white"/>
<path d="M226.715 253.584C226.687 253.584 226.66 253.576 226.635 253.562L212.929 245.394C212.906 245.381 212.886 245.361 212.873 245.337C212.86 245.313 212.853 245.286 212.853 245.259C212.853 245.232 212.861 245.205 212.874 245.182C212.888 245.158 212.908 245.139 212.931 245.125L226.589 237.279C226.612 237.265 226.639 237.258 226.667 237.258C226.694 237.258 226.721 237.265 226.745 237.279C226.768 237.292 226.788 237.312 226.802 237.336C226.815 237.359 226.823 237.386 226.823 237.414L226.872 253.427C226.871 253.468 226.855 253.508 226.826 253.538C226.797 253.567 226.757 253.584 226.715 253.584ZM213.318 245.263L226.558 253.152L226.511 237.683L213.318 245.263Z" fill="black"/>
</g>
<defs>
<clipPath id="clip0_1198_8413">
<rect width="171.132" height="260.52" fill="white" transform="translate(151.006 42.9004)"/>
</clipPath>
<clipPath id="clip1_1198_8413">
<rect width="114.816" height="131.196" fill="white" transform="translate(246.48 93.5996)"/>
</clipPath>
<clipPath id="clip2_1198_8413">
<rect width="209.976" height="325.728" fill="white" transform="translate(75.3481 31.2012)"/>
</clipPath>
<clipPath id="clip3_1198_8413">
<rect width="80.2061" height="132.34" fill="white" transform="translate(81.3813 100.887)"/>
</clipPath>
<clipPath id="clip4_1198_8413">
<rect width="80.808" height="80.652" fill="white" transform="translate(29.1714 205.611)"/>
</clipPath>
<clipPath id="clip5_1198_8413">
<rect width="29.016" height="41.652" fill="white" transform="translate(58.9683 70.3516)"/>
</clipPath>
<clipPath id="clip6_1198_8413">
<rect width="162.24" height="177.06" fill="white" transform="translate(100.23 117.262)"/>
</clipPath>
</defs>
</svg>
