<svg width="44" height="44" viewBox="0 0 44 44" fill="none" xmlns="http://www.w3.org/2000/svg">
<g id="Twitter">
<rect id="Rectangle" width="44" height="44" rx="22" fill="#282A2C"/>
<path id="Path" d="M32.7821 17.2451C32.7821 17.4857 32.7821 17.7264 32.7821 17.9326C32.7821 25.0482 27.3509 33.2639 17.4509 33.2639C14.3915 33.2639 11.5728 32.3701 9.1665 30.8576C9.579 30.892 10.0259 30.9264 10.4384 30.9264C12.9478 30.9264 15.2853 30.067 17.1415 28.6232C14.7696 28.5889 12.7759 27.0076 12.1228 24.8764C12.4665 24.9451 12.7759 24.9795 13.154 24.9795C13.6353 24.9795 14.1165 24.9107 14.5634 24.7732C12.0884 24.292 10.2321 22.1264 10.2321 19.5139C10.2321 19.4795 10.2321 19.4795 10.2321 19.4451C10.954 19.8576 11.779 20.0982 12.6728 20.1326C11.229 19.1701 10.2665 17.5201 10.2665 15.6295C10.2665 14.6326 10.5415 13.7045 10.9884 12.9139C13.6353 16.1795 17.6228 18.3107 22.0915 18.5514C21.9884 18.1732 21.954 17.7264 21.954 17.3139C21.954 14.3232 24.3603 11.917 27.3509 11.917C28.8978 11.917 30.3071 12.5701 31.2696 13.6014C32.5071 13.3607 33.6415 12.9139 34.7071 12.2951C34.2946 13.567 33.4353 14.5982 32.3353 15.2857C33.4353 15.1482 34.4665 14.8732 35.429 14.4264C34.7415 15.5264 33.8478 16.4889 32.7821 17.2451Z" stroke="#BEFF54"/>
</g>
</svg>
