<svg width="690" height="690" viewBox="0 0 690 690" fill="none" xmlns="http://www.w3.org/2000/svg">
<rect width="690" height="690" rx="12" fill="#282A2C"/>
<g clip-path="url(#clip0_291_4727)">
<rect x="32.0493" y="141.394" width="626.482" height="407.213" rx="10.9361" fill="#F5F6F6"/>
<path d="M32.0493 141.394H658.531V171.739H32.0493V141.394Z" fill="#121112"/>
<rect x="523.568" y="147.389" width="48.6992" height="18.354" rx="9.17698" stroke="#EAFFCE" stroke-width="0.244719"/>
<rect x="580.221" y="147.267" width="48.9439" height="18.5987" rx="9.29934" fill="#EAFFCE"/>
<path d="M539.77 158.143H541.442V158.65H539.146V153.874H539.77V158.143ZM543.742 158.712C543.39 158.712 543.07 158.632 542.782 158.472C542.499 158.312 542.275 158.086 542.111 157.794C541.951 157.497 541.871 157.154 541.871 156.766C541.871 156.382 541.953 156.044 542.118 155.752C542.287 155.455 542.515 155.229 542.803 155.074C543.091 154.914 543.413 154.834 543.769 154.834C544.125 154.834 544.447 154.914 544.735 155.074C545.023 155.229 545.249 155.453 545.414 155.745C545.583 156.037 545.667 156.378 545.667 156.766C545.667 157.154 545.58 157.497 545.407 157.794C545.238 158.086 545.007 158.312 544.715 158.472C544.422 158.632 544.098 158.712 543.742 158.712ZM543.742 158.164C543.965 158.164 544.176 158.111 544.372 158.006C544.568 157.901 544.726 157.744 544.845 157.533C544.968 157.323 545.03 157.068 545.03 156.766C545.03 156.465 544.97 156.209 544.852 155.999C544.733 155.788 544.578 155.633 544.386 155.533C544.194 155.428 543.986 155.375 543.762 155.375C543.534 155.375 543.324 155.428 543.132 155.533C542.944 155.633 542.794 155.788 542.68 155.999C542.565 156.209 542.508 156.465 542.508 156.766C542.508 157.072 542.563 157.33 542.673 157.54C542.787 157.75 542.938 157.908 543.125 158.013C543.312 158.114 543.518 158.164 543.742 158.164ZM548.035 154.834C548.36 154.834 548.643 154.905 548.885 155.046C549.132 155.188 549.315 155.366 549.433 155.581V154.895H550.064V158.733C550.064 159.075 549.991 159.379 549.844 159.644C549.698 159.913 549.488 160.124 549.214 160.274C548.945 160.425 548.629 160.5 548.268 160.5C547.775 160.5 547.364 160.384 547.035 160.151C546.706 159.918 546.512 159.601 546.453 159.199H547.069C547.138 159.427 547.279 159.61 547.494 159.747C547.709 159.888 547.967 159.959 548.268 159.959C548.611 159.959 548.89 159.852 549.104 159.637C549.324 159.422 549.433 159.121 549.433 158.733V157.945C549.31 158.164 549.127 158.347 548.885 158.493C548.643 158.639 548.36 158.712 548.035 158.712C547.702 158.712 547.398 158.63 547.124 158.465C546.855 158.301 546.642 158.07 546.487 157.773C546.332 157.476 546.254 157.138 546.254 156.759C546.254 156.375 546.332 156.04 546.487 155.752C546.642 155.46 546.855 155.233 547.124 155.074C547.398 154.914 547.702 154.834 548.035 154.834ZM549.433 156.766C549.433 156.483 549.376 156.236 549.262 156.026C549.148 155.816 548.992 155.656 548.796 155.546C548.604 155.432 548.392 155.375 548.159 155.375C547.926 155.375 547.713 155.43 547.522 155.54C547.33 155.649 547.177 155.809 547.062 156.019C546.948 156.229 546.891 156.476 546.891 156.759C546.891 157.047 546.948 157.298 547.062 157.513C547.177 157.723 547.33 157.885 547.522 157.999C547.713 158.109 547.926 158.164 548.159 158.164C548.392 158.164 548.604 158.109 548.796 157.999C548.992 157.885 549.148 157.723 549.262 157.513C549.376 157.298 549.433 157.049 549.433 156.766ZM551.439 154.286C551.321 154.286 551.22 154.244 551.138 154.162C551.056 154.08 551.015 153.98 551.015 153.861C551.015 153.742 551.056 153.641 551.138 153.559C551.22 153.477 551.321 153.436 551.439 153.436C551.554 153.436 551.65 153.477 551.727 153.559C551.81 153.641 551.851 153.742 551.851 153.861C551.851 153.98 551.81 154.08 551.727 154.162C551.65 154.244 551.554 154.286 551.439 154.286ZM551.741 154.895V158.65H551.117V154.895H551.741ZM554.633 154.827C555.09 154.827 555.46 154.966 555.743 155.245C556.027 155.519 556.168 155.916 556.168 156.437V158.65H555.551V156.526C555.551 156.152 555.458 155.866 555.27 155.67C555.083 155.469 554.827 155.368 554.503 155.368C554.174 155.368 553.911 155.471 553.715 155.677C553.523 155.882 553.427 156.181 553.427 156.574V158.65H552.804V154.895H553.427V155.43C553.551 155.238 553.717 155.09 553.927 154.984C554.142 154.879 554.377 154.827 554.633 154.827Z" fill="#EAFFCE"/>
<path d="M593.52 158.698C593.205 158.698 592.921 158.644 592.67 158.534C592.423 158.42 592.229 158.264 592.088 158.068C591.946 157.867 591.873 157.636 591.868 157.376H592.533C592.556 157.6 592.647 157.789 592.807 157.945C592.972 158.095 593.209 158.171 593.52 158.171C593.817 158.171 594.05 158.098 594.219 157.951C594.392 157.801 594.479 157.609 594.479 157.376C594.479 157.193 594.429 157.045 594.328 156.931C594.228 156.816 594.102 156.73 593.951 156.67C593.801 156.611 593.597 156.547 593.342 156.478C593.026 156.396 592.773 156.314 592.581 156.232C592.394 156.149 592.232 156.021 592.094 155.848C591.962 155.67 591.896 155.432 591.896 155.135C591.896 154.875 591.962 154.644 592.094 154.443C592.227 154.242 592.412 154.087 592.649 153.977C592.892 153.868 593.168 153.813 593.479 153.813C593.926 153.813 594.292 153.925 594.575 154.149C594.863 154.372 595.025 154.669 595.061 155.039H594.376C594.353 154.857 594.257 154.697 594.088 154.56C593.919 154.418 593.696 154.347 593.417 154.347C593.157 154.347 592.944 154.416 592.78 154.553C592.615 154.685 592.533 154.873 592.533 155.115C592.533 155.288 592.581 155.43 592.677 155.54C592.777 155.649 592.898 155.734 593.04 155.793C593.186 155.848 593.39 155.912 593.65 155.985C593.965 156.072 594.219 156.158 594.411 156.245C594.602 156.328 594.767 156.458 594.904 156.636C595.041 156.809 595.109 157.047 595.109 157.348C595.109 157.581 595.048 157.801 594.924 158.006C594.801 158.212 594.618 158.379 594.376 158.506C594.134 158.634 593.849 158.698 593.52 158.698ZM596.349 154.286C596.23 154.286 596.13 154.244 596.048 154.162C595.965 154.08 595.924 153.98 595.924 153.861C595.924 153.742 595.965 153.641 596.048 153.559C596.13 153.477 596.23 153.436 596.349 153.436C596.463 153.436 596.559 153.477 596.637 153.559C596.719 153.641 596.76 153.742 596.76 153.861C596.76 153.98 596.719 154.08 596.637 154.162C596.559 154.244 596.463 154.286 596.349 154.286ZM596.651 154.895V158.65H596.027V154.895H596.651ZM599.262 154.834C599.586 154.834 599.869 154.905 600.112 155.046C600.358 155.188 600.541 155.366 600.66 155.581V154.895H601.29V158.733C601.29 159.075 601.217 159.379 601.071 159.644C600.925 159.913 600.715 160.124 600.44 160.274C600.171 160.425 599.856 160.5 599.495 160.5C599.001 160.5 598.59 160.384 598.261 160.151C597.933 159.918 597.738 159.601 597.679 159.199H598.296C598.364 159.427 598.506 159.61 598.721 159.747C598.935 159.888 599.193 159.959 599.495 159.959C599.837 159.959 600.116 159.852 600.331 159.637C600.55 159.422 600.66 159.121 600.66 158.733V157.945C600.536 158.164 600.354 158.347 600.112 158.493C599.869 158.639 599.586 158.712 599.262 158.712C598.928 158.712 598.625 158.63 598.351 158.465C598.081 158.301 597.869 158.07 597.713 157.773C597.558 157.476 597.48 157.138 597.48 156.759C597.48 156.375 597.558 156.04 597.713 155.752C597.869 155.46 598.081 155.233 598.351 155.074C598.625 154.914 598.928 154.834 599.262 154.834ZM600.66 156.766C600.66 156.483 600.603 156.236 600.488 156.026C600.374 155.816 600.219 155.656 600.022 155.546C599.831 155.432 599.618 155.375 599.385 155.375C599.152 155.375 598.94 155.43 598.748 155.54C598.556 155.649 598.403 155.809 598.289 156.019C598.175 156.229 598.118 156.476 598.118 156.759C598.118 157.047 598.175 157.298 598.289 157.513C598.403 157.723 598.556 157.885 598.748 157.999C598.94 158.109 599.152 158.164 599.385 158.164C599.618 158.164 599.831 158.109 600.022 157.999C600.219 157.885 600.374 157.723 600.488 157.513C600.603 157.298 600.66 157.049 600.66 156.766ZM604.173 154.827C604.63 154.827 605 154.966 605.283 155.245C605.567 155.519 605.708 155.916 605.708 156.437V158.65H605.092V156.526C605.092 156.152 604.998 155.866 604.811 155.67C604.623 155.469 604.368 155.368 604.043 155.368C603.714 155.368 603.452 155.471 603.255 155.677C603.063 155.882 602.967 156.181 602.967 156.574V158.65H602.344V154.895H602.967V155.43C603.091 155.238 603.257 155.09 603.468 154.984C603.682 154.879 603.918 154.827 604.173 154.827ZM611.884 154.895V158.65H611.26V158.095C611.141 158.287 610.975 158.438 610.76 158.548C610.55 158.653 610.317 158.705 610.061 158.705C609.769 158.705 609.506 158.646 609.273 158.527C609.04 158.404 608.855 158.221 608.718 157.979C608.586 157.737 608.519 157.442 608.519 157.095V154.895H609.136V157.013C609.136 157.383 609.23 157.668 609.417 157.869C609.604 158.066 609.86 158.164 610.184 158.164C610.518 158.164 610.781 158.061 610.972 157.856C611.164 157.65 611.26 157.351 611.26 156.958V154.895H611.884ZM613.56 155.587C613.683 155.373 613.866 155.195 614.108 155.053C614.355 154.907 614.64 154.834 614.965 154.834C615.298 154.834 615.6 154.914 615.869 155.074C616.143 155.233 616.358 155.46 616.513 155.752C616.669 156.04 616.746 156.375 616.746 156.759C616.746 157.138 616.669 157.476 616.513 157.773C616.358 158.07 616.143 158.301 615.869 158.465C615.6 158.63 615.298 158.712 614.965 158.712C614.645 158.712 614.362 158.641 614.115 158.5C613.873 158.353 613.688 158.173 613.56 157.958V160.432H612.937V154.895H613.56V155.587ZM616.109 156.759C616.109 156.476 616.052 156.229 615.938 156.019C615.824 155.809 615.668 155.649 615.472 155.54C615.28 155.43 615.068 155.375 614.835 155.375C614.606 155.375 614.394 155.432 614.197 155.546C614.005 155.656 613.85 155.818 613.731 156.033C613.617 156.243 613.56 156.487 613.56 156.766C613.56 157.049 613.617 157.298 613.731 157.513C613.85 157.723 614.005 157.885 614.197 157.999C614.394 158.109 614.606 158.164 614.835 158.164C615.068 158.164 615.28 158.109 615.472 157.999C615.668 157.885 615.824 157.723 615.938 157.513C616.052 157.298 616.109 157.047 616.109 156.759Z" fill="#121112"/>
<path d="M62.2449 160.182V152.645H66.8857V153.98H63.6231V155.585H66.1428V156.92H63.6231V160.182H62.2449ZM69.0232 160.29C68.7038 160.29 68.4418 160.227 68.2372 160.102C68.0362 159.972 67.8872 159.802 67.7903 159.59C67.6934 159.375 67.6449 159.138 67.6449 158.879V152.107H68.9801V158.33C68.9801 158.617 68.9963 158.822 69.0286 158.944C69.0645 159.063 69.1291 159.134 69.2224 159.159C69.3157 159.181 69.4503 159.192 69.6262 159.192L69.5077 160.29H69.0232ZM72.8652 160.29C72.2802 160.29 71.7813 160.163 71.3685 159.908C70.9558 159.653 70.6399 159.314 70.421 158.89C70.2056 158.467 70.0979 158.004 70.0979 157.501C70.0979 156.995 70.2056 156.529 70.421 156.101C70.6399 155.674 70.9558 155.333 71.3685 155.079C71.7813 154.82 72.2802 154.691 72.8652 154.691C73.4503 154.691 73.9492 154.82 74.3619 155.079C74.7747 155.333 75.0888 155.674 75.3041 156.101C75.5231 156.529 75.6325 156.995 75.6325 157.501C75.6325 158.004 75.5231 158.467 75.3041 158.89C75.0888 159.314 74.7747 159.653 74.3619 159.908C73.9492 160.163 73.4503 160.29 72.8652 160.29ZM72.8652 159.192C73.3139 159.192 73.6585 159.036 73.8989 158.723C74.143 158.408 74.265 158 74.265 157.501C74.265 156.995 74.143 156.584 73.8989 156.268C73.6585 155.949 73.3139 155.789 72.8652 155.789C72.4202 155.789 72.0756 155.949 71.8315 156.268C71.5875 156.584 71.4654 156.995 71.4654 157.501C71.4654 158 71.5875 158.408 71.8315 158.723C72.0756 159.036 72.4202 159.192 72.8652 159.192ZM77.554 160.182L75.982 154.799H77.2849L78.2109 158.556L79.223 154.906H80.3429L81.3443 158.556L82.281 154.799H83.5839L82.0119 160.182H80.892L79.783 156.672L78.6739 160.182H77.554ZM90.3481 160.333C89.5836 160.333 88.9106 160.172 88.3292 159.849C87.7477 159.522 87.2937 159.066 86.9671 158.481C86.644 157.892 86.4825 157.203 86.4825 156.414C86.4825 155.624 86.6494 154.937 86.9832 154.352C87.3206 153.763 87.7836 153.307 88.3723 152.984C88.9609 152.658 89.6339 152.494 90.3912 152.494C90.7896 152.494 91.1539 152.537 91.4841 152.623C91.8143 152.706 92.0997 152.81 92.3401 152.936L92.1894 154.249C91.9166 154.124 91.6349 154.021 91.3441 153.943C91.057 153.86 90.7358 153.819 90.3804 153.819C89.8528 153.819 89.4113 153.93 89.056 154.152C88.7043 154.375 88.4387 154.682 88.2592 155.073C88.0797 155.464 87.99 155.911 87.99 156.414C87.99 156.916 88.0779 157.363 88.2538 157.754C88.4297 158.145 88.6917 158.452 89.0399 158.675C89.3916 158.897 89.8277 159.009 90.3481 159.009C90.7106 159.009 91.0355 158.969 91.3226 158.89C91.6097 158.811 91.8987 158.707 92.1894 158.578L92.3401 159.892C92.0566 160.024 91.7443 160.13 91.4034 160.209C91.066 160.292 90.7142 160.333 90.3481 160.333ZM95.6308 160.29C95.0458 160.29 94.5469 160.163 94.1341 159.908C93.7214 159.653 93.4055 159.314 93.1866 158.89C92.9712 158.467 92.8635 158.004 92.8635 157.501C92.8635 156.995 92.9712 156.529 93.1866 156.101C93.4055 155.674 93.7214 155.333 94.1341 155.079C94.5469 154.82 95.0458 154.691 95.6308 154.691C96.2159 154.691 96.7148 154.82 97.1275 155.079C97.5403 155.333 97.8544 155.674 98.0697 156.101C98.2887 156.529 98.3981 156.995 98.3981 157.501C98.3981 158.004 98.2887 158.467 98.0697 158.89C97.8544 159.314 97.5403 159.653 97.1275 159.908C96.7148 160.163 96.2159 160.29 95.6308 160.29ZM95.6308 159.192C96.0795 159.192 96.4241 159.036 96.6645 158.723C96.9086 158.408 97.0306 158 97.0306 157.501C97.0306 156.995 96.9086 156.584 96.6645 156.268C96.4241 155.949 96.0795 155.789 95.6308 155.789C95.1858 155.789 94.8412 155.949 94.5971 156.268C94.3531 156.584 94.231 156.995 94.231 157.501C94.231 158 94.3531 158.408 94.5971 158.723C94.8412 159.036 95.1858 159.192 95.6308 159.192ZM99.1983 160.182V158.718H100.598V160.182H99.1983Z" fill="white"/>
<path d="M330.819 236.143H333.746V237.556H329.038V228.674H330.819V236.143ZM338.009 237.67C337.33 237.67 336.719 237.522 336.176 237.225C335.634 236.92 335.205 236.491 334.891 235.94C334.586 235.388 334.433 234.752 334.433 234.031C334.433 233.31 334.59 232.674 334.904 232.122C335.226 231.571 335.663 231.147 336.215 230.85C336.766 230.544 337.381 230.392 338.06 230.392C338.739 230.392 339.354 230.544 339.905 230.85C340.456 231.147 340.889 231.571 341.203 232.122C341.525 232.674 341.687 233.31 341.687 234.031C341.687 234.752 341.521 235.388 341.19 235.94C340.868 236.491 340.427 236.92 339.867 237.225C339.315 237.522 338.696 237.67 338.009 237.67ZM338.009 236.118C338.331 236.118 338.632 236.042 338.912 235.889C339.201 235.728 339.43 235.49 339.6 235.176C339.769 234.862 339.854 234.481 339.854 234.031C339.854 233.361 339.676 232.848 339.32 232.491C338.972 232.126 338.543 231.944 338.034 231.944C337.525 231.944 337.097 232.126 336.749 232.491C336.41 232.848 336.24 233.361 336.24 234.031C336.24 234.701 336.406 235.219 336.736 235.583C337.076 235.94 337.5 236.118 338.009 236.118ZM345.755 230.392C346.281 230.392 346.743 230.498 347.142 230.71C347.541 230.913 347.855 231.18 348.084 231.511V230.506H349.878V237.607C349.878 238.26 349.746 238.841 349.483 239.35C349.22 239.868 348.826 240.275 348.3 240.572C347.774 240.877 347.138 241.03 346.391 241.03C345.39 241.03 344.567 240.797 343.922 240.33C343.286 239.863 342.926 239.227 342.841 238.421H344.61C344.703 238.744 344.902 238.998 345.208 239.185C345.522 239.38 345.899 239.477 346.34 239.477C346.858 239.477 347.278 239.32 347.6 239.007C347.922 238.701 348.084 238.235 348.084 237.607V236.512C347.855 236.843 347.536 237.119 347.129 237.34C346.73 237.56 346.272 237.67 345.755 237.67C345.161 237.67 344.618 237.518 344.126 237.212C343.634 236.907 343.244 236.478 342.955 235.927C342.675 235.367 342.535 234.727 342.535 234.006C342.535 233.293 342.675 232.661 342.955 232.109C343.244 231.558 343.63 231.134 344.113 230.837C344.605 230.54 345.152 230.392 345.755 230.392ZM348.084 234.031C348.084 233.598 347.999 233.229 347.829 232.924C347.659 232.61 347.43 232.372 347.142 232.211C346.853 232.042 346.544 231.957 346.213 231.957C345.882 231.957 345.577 232.037 345.297 232.199C345.017 232.36 344.788 232.597 344.61 232.911C344.44 233.217 344.355 233.581 344.355 234.006C344.355 234.43 344.44 234.803 344.61 235.125C344.788 235.439 345.017 235.681 345.297 235.851C345.585 236.02 345.891 236.105 346.213 236.105C346.544 236.105 346.853 236.025 347.142 235.863C347.43 235.694 347.659 235.456 347.829 235.151C347.999 234.837 348.084 234.464 348.084 234.031ZM352.521 229.666C352.207 229.666 351.944 229.569 351.732 229.373C351.529 229.17 351.427 228.92 351.427 228.623C351.427 228.326 351.529 228.08 351.732 227.885C351.944 227.681 352.207 227.579 352.521 227.579C352.835 227.579 353.094 227.681 353.298 227.885C353.51 228.08 353.616 228.326 353.616 228.623C353.616 228.92 353.51 229.17 353.298 229.373C353.094 229.569 352.835 229.666 352.521 229.666ZM353.399 230.506V237.556H351.618V230.506H353.399ZM359.066 230.404C359.906 230.404 360.585 230.671 361.102 231.206C361.62 231.732 361.879 232.47 361.879 233.42V237.556H360.097V233.662C360.097 233.102 359.957 232.674 359.677 232.377C359.397 232.071 359.015 231.919 358.532 231.919C358.04 231.919 357.65 232.071 357.361 232.377C357.081 232.674 356.941 233.102 356.941 233.662V237.556H355.16V230.506H356.941V231.384C357.179 231.079 357.48 230.841 357.845 230.671C358.218 230.493 358.625 230.404 359.066 230.404Z" fill="#282A2C"/>
<rect x="260.739" y="280.517" width="169.591" height="18.354" rx="9.17698" stroke="#93959B" stroke-width="0.244719"/>
<path d="M271.972 288.537H271.184V291.778H270.56V288.537H270.074V288.023H270.56V287.756C270.56 287.336 270.668 287.03 270.882 286.838C271.102 286.641 271.451 286.543 271.931 286.543V287.064C271.657 287.064 271.463 287.119 271.348 287.228C271.239 287.334 271.184 287.509 271.184 287.756V288.023H271.972V288.537ZM273.322 286.708V291.778H272.699V286.708H273.322ZM276.023 291.84C275.671 291.84 275.351 291.76 275.064 291.6C274.78 291.44 274.556 291.214 274.392 290.922C274.232 290.625 274.152 290.282 274.152 289.894C274.152 289.51 274.234 289.172 274.399 288.88C274.568 288.583 274.796 288.357 275.084 288.202C275.372 288.042 275.694 287.962 276.05 287.962C276.407 287.962 276.729 288.042 277.016 288.202C277.304 288.357 277.53 288.581 277.695 288.873C277.864 289.165 277.948 289.506 277.948 289.894C277.948 290.282 277.862 290.625 277.688 290.922C277.519 291.214 277.288 291.44 276.996 291.6C276.704 291.76 276.379 291.84 276.023 291.84ZM276.023 291.292C276.247 291.292 276.457 291.239 276.653 291.134C276.85 291.029 277.007 290.872 277.126 290.661C277.249 290.451 277.311 290.195 277.311 289.894C277.311 289.592 277.252 289.337 277.133 289.127C277.014 288.916 276.859 288.761 276.667 288.661C276.475 288.556 276.267 288.503 276.043 288.503C275.815 288.503 275.605 288.556 275.413 288.661C275.226 288.761 275.075 288.916 274.961 289.127C274.847 289.337 274.789 289.592 274.789 289.894C274.789 290.2 274.844 290.458 274.954 290.668C275.068 290.878 275.219 291.036 275.406 291.141C275.593 291.242 275.799 291.292 276.023 291.292ZM283.77 288.023L282.599 291.778H281.954L281.05 288.798L280.145 291.778H279.501L278.323 288.023H278.96L279.823 291.175L280.755 288.023H281.393L282.304 291.182L283.154 288.023H283.77ZM288.226 292.039V292.614H284.581V292.039H288.226ZM289.181 289.894C289.181 289.506 289.259 289.168 289.414 288.88C289.57 288.588 289.784 288.361 290.059 288.202C290.337 288.042 290.655 287.962 291.011 287.962C291.472 287.962 291.851 288.074 292.148 288.297C292.45 288.521 292.649 288.832 292.745 289.229H292.073C292.009 289.001 291.883 288.82 291.696 288.688C291.513 288.556 291.285 288.489 291.011 288.489C290.655 288.489 290.367 288.613 290.148 288.859C289.928 289.101 289.819 289.446 289.819 289.894C289.819 290.346 289.928 290.696 290.148 290.942C290.367 291.189 290.655 291.312 291.011 291.312C291.285 291.312 291.513 291.248 291.696 291.121C291.879 290.993 292.005 290.81 292.073 290.572H292.745C292.644 290.956 292.443 291.264 292.142 291.497C291.84 291.726 291.463 291.84 291.011 291.84C290.655 291.84 290.337 291.76 290.059 291.6C289.784 291.44 289.57 291.214 289.414 290.922C289.259 290.629 289.181 290.287 289.181 289.894ZM295.214 291.84C294.862 291.84 294.543 291.76 294.255 291.6C293.972 291.44 293.748 291.214 293.583 290.922C293.424 290.625 293.344 290.282 293.344 289.894C293.344 289.51 293.426 289.172 293.59 288.88C293.759 288.583 293.988 288.357 294.275 288.202C294.563 288.042 294.885 287.962 295.242 287.962C295.598 287.962 295.92 288.042 296.208 288.202C296.496 288.357 296.722 288.581 296.886 288.873C297.055 289.165 297.14 289.506 297.14 289.894C297.14 290.282 297.053 290.625 296.879 290.922C296.71 291.214 296.48 291.44 296.187 291.6C295.895 291.76 295.571 291.84 295.214 291.84ZM295.214 291.292C295.438 291.292 295.648 291.239 295.845 291.134C296.041 291.029 296.199 290.872 296.317 290.661C296.441 290.451 296.502 290.195 296.502 289.894C296.502 289.592 296.443 289.337 296.324 289.127C296.205 288.916 296.05 288.761 295.858 288.661C295.666 288.556 295.459 288.503 295.235 288.503C295.006 288.503 294.796 288.556 294.604 288.661C294.417 288.761 294.266 288.916 294.152 289.127C294.038 289.337 293.981 289.592 293.981 289.894C293.981 290.2 294.036 290.458 294.145 290.668C294.259 290.878 294.41 291.036 294.598 291.141C294.785 291.242 294.99 291.292 295.214 291.292ZM301.386 287.386C301.893 287.386 302.333 287.482 302.708 287.674C303.083 287.866 303.37 288.135 303.571 288.482C303.772 288.825 303.873 289.222 303.873 289.675C303.873 290.036 303.814 290.383 303.695 290.716C303.576 291.045 303.402 291.312 303.174 291.518C302.95 291.724 302.687 291.826 302.386 291.826C302.158 291.826 301.982 291.769 301.858 291.655C301.735 291.541 301.664 291.385 301.646 291.189C301.504 291.385 301.324 291.541 301.105 291.655C300.89 291.769 300.662 291.826 300.419 291.826C300.072 291.826 299.798 291.721 299.597 291.511C299.401 291.296 299.303 291.009 299.303 290.648C299.303 290.305 299.373 289.985 299.515 289.688C299.661 289.391 299.862 289.154 300.118 288.976C300.374 288.793 300.664 288.702 300.988 288.702C301.422 288.702 301.714 288.866 301.865 289.195L301.941 288.77H302.482L302.139 290.75C302.126 290.837 302.119 290.917 302.119 290.99C302.119 291.264 302.24 291.401 302.482 291.401C302.665 291.401 302.822 291.315 302.955 291.141C303.092 290.967 303.195 290.75 303.263 290.49C303.332 290.225 303.366 289.965 303.366 289.709C303.366 289.111 303.185 288.647 302.825 288.318C302.468 287.989 301.963 287.825 301.31 287.825C300.767 287.825 300.276 287.957 299.837 288.222C299.403 288.482 299.063 288.841 298.816 289.298C298.569 289.755 298.446 290.259 298.446 290.812C298.441 291.415 298.622 291.879 298.987 292.203C299.353 292.532 299.86 292.697 300.509 292.697C300.938 292.697 301.317 292.619 301.646 292.464L301.728 292.888C301.322 293.057 300.874 293.142 300.385 293.142C299.896 293.142 299.465 293.048 299.09 292.861C298.72 292.678 298.432 292.413 298.227 292.066C298.026 291.724 297.925 291.324 297.925 290.867C297.925 290.223 298.074 289.636 298.371 289.106C298.668 288.572 299.079 288.151 299.604 287.845C300.134 287.539 300.728 287.386 301.386 287.386ZM300.604 291.34C300.81 291.34 301 291.28 301.173 291.162C301.347 291.038 301.484 290.874 301.584 290.668C301.685 290.458 301.735 290.23 301.735 289.983C301.735 289.746 301.669 289.554 301.536 289.407C301.408 289.257 301.226 289.181 300.988 289.181C300.769 289.181 300.575 289.248 300.406 289.38C300.241 289.508 300.113 289.679 300.022 289.894C299.931 290.104 299.885 290.323 299.885 290.552C299.885 290.794 299.947 290.986 300.07 291.127C300.193 291.269 300.371 291.34 300.604 291.34ZM306.447 287.962C306.772 287.962 307.055 288.032 307.297 288.174C307.544 288.316 307.726 288.494 307.845 288.709V288.023H308.475V291.861C308.475 292.203 308.402 292.507 308.256 292.772C308.11 293.041 307.9 293.252 307.626 293.402C307.356 293.553 307.041 293.628 306.68 293.628C306.187 293.628 305.776 293.512 305.447 293.279C305.118 293.046 304.924 292.728 304.864 292.326H305.481C305.55 292.555 305.691 292.738 305.906 292.875C306.121 293.016 306.379 293.087 306.68 293.087C307.023 293.087 307.301 292.98 307.516 292.765C307.735 292.55 307.845 292.249 307.845 291.861V291.073C307.722 291.292 307.539 291.475 307.297 291.621C307.055 291.767 306.772 291.84 306.447 291.84C306.114 291.84 305.81 291.758 305.536 291.593C305.266 291.429 305.054 291.198 304.899 290.901C304.743 290.604 304.666 290.266 304.666 289.887C304.666 289.503 304.743 289.168 304.899 288.88C305.054 288.588 305.266 288.361 305.536 288.202C305.81 288.042 306.114 287.962 306.447 287.962ZM307.845 289.894C307.845 289.611 307.788 289.364 307.674 289.154C307.56 288.944 307.404 288.784 307.208 288.674C307.016 288.56 306.804 288.503 306.571 288.503C306.338 288.503 306.125 288.558 305.933 288.667C305.741 288.777 305.588 288.937 305.474 289.147C305.36 289.357 305.303 289.604 305.303 289.887C305.303 290.175 305.36 290.426 305.474 290.641C305.588 290.851 305.741 291.013 305.933 291.127C306.125 291.237 306.338 291.292 306.571 291.292C306.804 291.292 307.016 291.237 307.208 291.127C307.404 291.013 307.56 290.851 307.674 290.641C307.788 290.426 307.845 290.177 307.845 289.894ZM314.045 287.955C314.337 287.955 314.597 288.016 314.826 288.14C315.054 288.259 315.235 288.439 315.367 288.681C315.5 288.923 315.566 289.218 315.566 289.565V291.778H314.949V289.654C314.949 289.28 314.856 288.994 314.668 288.798C314.486 288.597 314.237 288.496 313.921 288.496C313.597 288.496 313.339 288.601 313.147 288.811C312.955 289.017 312.859 289.316 312.859 289.709V291.778H312.243V289.654C312.243 289.28 312.149 288.994 311.962 288.798C311.779 288.597 311.53 288.496 311.215 288.496C310.89 288.496 310.632 288.601 310.441 288.811C310.249 289.017 310.153 289.316 310.153 289.709V291.778H309.529V288.023H310.153V288.565C310.276 288.368 310.441 288.217 310.646 288.112C310.856 288.007 311.087 287.955 311.338 287.955C311.653 287.955 311.932 288.026 312.174 288.167C312.416 288.309 312.597 288.517 312.715 288.791C312.821 288.526 312.994 288.32 313.236 288.174C313.478 288.028 313.748 287.955 314.045 287.955ZM316.356 289.887C316.356 289.503 316.433 289.168 316.589 288.88C316.744 288.588 316.957 288.361 317.226 288.202C317.5 288.042 317.804 287.962 318.137 287.962C318.466 287.962 318.752 288.032 318.994 288.174C319.236 288.316 319.416 288.494 319.535 288.709V288.023H320.166V291.778H319.535V291.079C319.412 291.299 319.227 291.481 318.98 291.628C318.738 291.769 318.455 291.84 318.131 291.84C317.797 291.84 317.496 291.758 317.226 291.593C316.957 291.429 316.744 291.198 316.589 290.901C316.433 290.604 316.356 290.266 316.356 289.887ZM319.535 289.894C319.535 289.611 319.478 289.364 319.364 289.154C319.25 288.944 319.094 288.784 318.898 288.674C318.706 288.56 318.494 288.503 318.261 288.503C318.028 288.503 317.815 288.558 317.623 288.667C317.432 288.777 317.279 288.937 317.164 289.147C317.05 289.357 316.993 289.604 316.993 289.887C316.993 290.175 317.05 290.426 317.164 290.641C317.279 290.851 317.432 291.013 317.623 291.127C317.815 291.237 318.028 291.292 318.261 291.292C318.494 291.292 318.706 291.237 318.898 291.127C319.094 291.013 319.25 290.851 319.364 290.641C319.478 290.426 319.535 290.177 319.535 289.894ZM321.541 287.414C321.423 287.414 321.322 287.372 321.24 287.29C321.158 287.208 321.117 287.107 321.117 286.989C321.117 286.87 321.158 286.769 321.24 286.687C321.322 286.605 321.423 286.564 321.541 286.564C321.656 286.564 321.752 286.605 321.829 286.687C321.911 286.769 321.953 286.87 321.953 286.989C321.953 287.107 321.911 287.208 321.829 287.29C321.752 287.372 321.656 287.414 321.541 287.414ZM321.843 288.023V291.778H321.219V288.023H321.843ZM323.529 286.708V291.778H322.906V286.708H323.529ZM324.791 291.819C324.672 291.819 324.571 291.778 324.489 291.696C324.407 291.614 324.366 291.513 324.366 291.395C324.366 291.276 324.407 291.175 324.489 291.093C324.571 291.011 324.672 290.97 324.791 290.97C324.905 290.97 325.001 291.011 325.078 291.093C325.161 291.175 325.202 291.276 325.202 291.395C325.202 291.513 325.161 291.614 325.078 291.696C325.001 291.778 324.905 291.819 324.791 291.819ZM325.798 289.894C325.798 289.506 325.875 289.168 326.031 288.88C326.186 288.588 326.401 288.361 326.675 288.202C326.953 288.042 327.271 287.962 327.627 287.962C328.088 287.962 328.468 288.074 328.765 288.297C329.066 288.521 329.265 288.832 329.361 289.229H328.689C328.625 289.001 328.5 288.82 328.312 288.688C328.13 288.556 327.901 288.489 327.627 288.489C327.271 288.489 326.983 288.613 326.764 288.859C326.544 289.101 326.435 289.446 326.435 289.894C326.435 290.346 326.544 290.696 326.764 290.942C326.983 291.189 327.271 291.312 327.627 291.312C327.901 291.312 328.13 291.248 328.312 291.121C328.495 290.993 328.621 290.81 328.689 290.572H329.361C329.26 290.956 329.059 291.264 328.758 291.497C328.456 291.726 328.079 291.84 327.627 291.84C327.271 291.84 326.953 291.76 326.675 291.6C326.401 291.44 326.186 291.214 326.031 290.922C325.875 290.629 325.798 290.287 325.798 289.894ZM331.83 291.84C331.479 291.84 331.159 291.76 330.871 291.6C330.588 291.44 330.364 291.214 330.2 290.922C330.04 290.625 329.96 290.282 329.96 289.894C329.96 289.51 330.042 289.172 330.206 288.88C330.375 288.583 330.604 288.357 330.892 288.202C331.179 288.042 331.501 287.962 331.858 287.962C332.214 287.962 332.536 288.042 332.824 288.202C333.112 288.357 333.338 288.581 333.502 288.873C333.671 289.165 333.756 289.506 333.756 289.894C333.756 290.282 333.669 290.625 333.495 290.922C333.326 291.214 333.096 291.44 332.803 291.6C332.511 291.76 332.187 291.84 331.83 291.84ZM331.83 291.292C332.054 291.292 332.264 291.239 332.461 291.134C332.657 291.029 332.815 290.872 332.934 290.661C333.057 290.451 333.119 290.195 333.119 289.894C333.119 289.592 333.059 289.337 332.94 289.127C332.822 288.916 332.666 288.761 332.474 288.661C332.283 288.556 332.075 288.503 331.851 288.503C331.622 288.503 331.412 288.556 331.221 288.661C331.033 288.761 330.882 288.916 330.768 289.127C330.654 289.337 330.597 289.592 330.597 289.894C330.597 290.2 330.652 290.458 330.761 290.668C330.876 290.878 331.026 291.036 331.214 291.141C331.401 291.242 331.607 291.292 331.83 291.292ZM339.091 287.955C339.384 287.955 339.644 288.016 339.872 288.14C340.101 288.259 340.281 288.439 340.414 288.681C340.546 288.923 340.612 289.218 340.612 289.565V291.778H339.996V289.654C339.996 289.28 339.902 288.994 339.715 288.798C339.532 288.597 339.283 288.496 338.968 288.496C338.644 288.496 338.385 288.601 338.194 288.811C338.002 289.017 337.906 289.316 337.906 289.709V291.778H337.289V289.654C337.289 289.28 337.195 288.994 337.008 288.798C336.825 288.597 336.576 288.496 336.261 288.496C335.937 288.496 335.679 288.601 335.487 288.811C335.295 289.017 335.199 289.316 335.199 289.709V291.778H334.576V288.023H335.199V288.565C335.323 288.368 335.487 288.217 335.693 288.112C335.903 288.007 336.133 287.955 336.385 287.955C336.7 287.955 336.978 288.026 337.221 288.167C337.463 288.309 337.643 288.517 337.762 288.791C337.867 288.526 338.041 288.32 338.283 288.174C338.525 288.028 338.794 287.955 339.091 287.955Z" fill="#121112"/>
<path d="M271.067 268.421V270.018H272.808V270.532H271.067V272.176H273.013V272.69H270.444V267.907H273.013V268.421H271.067ZM278.472 268.866C278.765 268.866 279.025 268.928 279.254 269.051C279.482 269.17 279.662 269.351 279.795 269.593C279.927 269.835 279.994 270.13 279.994 270.477V272.69H279.377V270.566C279.377 270.191 279.283 269.906 279.096 269.709C278.913 269.508 278.664 269.408 278.349 269.408C278.025 269.408 277.767 269.513 277.575 269.723C277.383 269.929 277.287 270.228 277.287 270.621V272.69H276.67V270.566C276.67 270.191 276.577 269.906 276.389 269.709C276.207 269.508 275.958 269.408 275.643 269.408C275.318 269.408 275.06 269.513 274.868 269.723C274.676 269.929 274.58 270.228 274.58 270.621V272.69H273.957V268.935H274.58V269.476C274.704 269.28 274.868 269.129 275.074 269.024C275.284 268.919 275.515 268.866 275.766 268.866C276.081 268.866 276.36 268.937 276.602 269.079C276.844 269.22 277.024 269.428 277.143 269.702C277.248 269.437 277.422 269.232 277.664 269.086C277.906 268.94 278.176 268.866 278.472 268.866ZM280.784 270.799C280.784 270.415 280.861 270.079 281.017 269.791C281.172 269.499 281.384 269.273 281.654 269.113C281.928 268.953 282.232 268.873 282.565 268.873C282.894 268.873 283.18 268.944 283.422 269.086C283.664 269.227 283.844 269.405 283.963 269.62V268.935H284.593V272.69H283.963V271.991C283.84 272.21 283.655 272.393 283.408 272.539C283.166 272.681 282.883 272.752 282.558 272.752C282.225 272.752 281.923 272.669 281.654 272.505C281.384 272.34 281.172 272.11 281.017 271.813C280.861 271.516 280.784 271.178 280.784 270.799ZM283.963 270.806C283.963 270.522 283.906 270.276 283.792 270.066C283.677 269.855 283.522 269.696 283.326 269.586C283.134 269.472 282.921 269.415 282.688 269.415C282.455 269.415 282.243 269.469 282.051 269.579C281.859 269.689 281.706 269.849 281.592 270.059C281.478 270.269 281.421 270.516 281.421 270.799C281.421 271.087 281.478 271.338 281.592 271.552C281.706 271.763 281.859 271.925 282.051 272.039C282.243 272.149 282.455 272.203 282.688 272.203C282.921 272.203 283.134 272.149 283.326 272.039C283.522 271.925 283.677 271.763 283.792 271.552C283.906 271.338 283.963 271.089 283.963 270.806ZM285.969 268.325C285.85 268.325 285.75 268.284 285.668 268.202C285.585 268.12 285.544 268.019 285.544 267.9C285.544 267.782 285.585 267.681 285.668 267.599C285.75 267.517 285.85 267.475 285.969 267.475C286.083 267.475 286.179 267.517 286.257 267.599C286.339 267.681 286.38 267.782 286.38 267.9C286.38 268.019 286.339 268.12 286.257 268.202C286.179 268.284 286.083 268.325 285.969 268.325ZM286.271 268.935V272.69H285.647V268.935H286.271ZM287.957 267.619V272.69H287.333V267.619H287.957ZM291.144 268.099L291.39 268.544L290.438 268.942L291.397 269.332L291.137 269.791L290.308 269.188L290.417 270.223H289.904L290.006 269.188L289.177 269.798L288.91 269.332L289.862 268.935L288.91 268.551L289.164 268.092L290.013 268.702L289.904 267.66H290.424L290.308 268.702L291.144 268.099Z" fill="#121112"/>
<rect x="260.739" y="326.524" width="169.591" height="18.354" rx="9.17698" stroke="#93959B" stroke-width="0.244719"/>
<path d="M273.637 315.319C273.637 315.717 273.5 316.048 273.226 316.313C272.956 316.573 272.543 316.703 271.986 316.703H271.067V318.697H270.444V313.921H271.986C272.525 313.921 272.933 314.052 273.212 314.312C273.495 314.572 273.637 314.908 273.637 315.319ZM271.986 316.189C272.333 316.189 272.589 316.114 272.753 315.963C272.917 315.813 273 315.598 273 315.319C273 314.73 272.662 314.435 271.986 314.435H271.067V316.189H271.986ZM274.179 316.806C274.179 316.422 274.257 316.087 274.412 315.799C274.567 315.506 274.78 315.28 275.049 315.12C275.323 314.961 275.627 314.881 275.961 314.881C276.289 314.881 276.575 314.951 276.817 315.093C277.059 315.235 277.24 315.413 277.358 315.628V314.942H277.989V318.697H277.358V317.998C277.235 318.218 277.05 318.4 276.803 318.547C276.561 318.688 276.278 318.759 275.954 318.759C275.62 318.759 275.319 318.677 275.049 318.512C274.78 318.348 274.567 318.117 274.412 317.82C274.257 317.523 274.179 317.185 274.179 316.806ZM277.358 316.813C277.358 316.53 277.301 316.283 277.187 316.073C277.073 315.863 276.918 315.703 276.721 315.593C276.529 315.479 276.317 315.422 276.084 315.422C275.851 315.422 275.638 315.477 275.447 315.586C275.255 315.696 275.102 315.856 274.988 316.066C274.873 316.276 274.816 316.523 274.816 316.806C274.816 317.094 274.873 317.345 274.988 317.56C275.102 317.77 275.255 317.932 275.447 318.046C275.638 318.156 275.851 318.211 276.084 318.211C276.317 318.211 276.529 318.156 276.721 318.046C276.918 317.932 277.073 317.77 277.187 317.56C277.301 317.345 277.358 317.096 277.358 316.813ZM280.372 318.759C280.084 318.759 279.826 318.711 279.598 318.615C279.369 318.515 279.189 318.377 279.056 318.204C278.924 318.026 278.851 317.822 278.837 317.594H279.481C279.499 317.781 279.586 317.934 279.741 318.053C279.901 318.172 280.109 318.231 280.365 318.231C280.603 318.231 280.79 318.179 280.927 318.074C281.064 317.969 281.132 317.836 281.132 317.676C281.132 317.512 281.059 317.391 280.913 317.313C280.767 317.231 280.541 317.151 280.235 317.073C279.956 317 279.728 316.927 279.55 316.854C279.376 316.776 279.225 316.664 279.097 316.518C278.974 316.368 278.912 316.171 278.912 315.929C278.912 315.737 278.969 315.561 279.084 315.401C279.198 315.242 279.36 315.116 279.57 315.025C279.78 314.929 280.02 314.881 280.29 314.881C280.705 314.881 281.041 314.986 281.297 315.196C281.553 315.406 281.69 315.694 281.708 316.059H281.084C281.071 315.863 280.991 315.705 280.845 315.586C280.703 315.468 280.511 315.408 280.269 315.408C280.045 315.408 279.867 315.456 279.735 315.552C279.602 315.648 279.536 315.774 279.536 315.929C279.536 316.052 279.575 316.155 279.652 316.237C279.735 316.315 279.835 316.379 279.954 316.429C280.077 316.475 280.246 316.527 280.461 316.587C280.73 316.66 280.95 316.733 281.119 316.806C281.288 316.875 281.432 316.98 281.55 317.121C281.674 317.263 281.738 317.448 281.742 317.676C281.742 317.882 281.685 318.067 281.571 318.231C281.457 318.396 281.295 318.526 281.084 318.622C280.879 318.713 280.641 318.759 280.372 318.759ZM283.952 318.759C283.664 318.759 283.406 318.711 283.178 318.615C282.949 318.515 282.769 318.377 282.636 318.204C282.504 318.026 282.431 317.822 282.417 317.594H283.061C283.079 317.781 283.166 317.934 283.321 318.053C283.481 318.172 283.689 318.231 283.945 318.231C284.182 318.231 284.37 318.179 284.507 318.074C284.644 317.969 284.712 317.836 284.712 317.676C284.712 317.512 284.639 317.391 284.493 317.313C284.347 317.231 284.121 317.151 283.815 317.073C283.536 317 283.308 316.927 283.13 316.854C282.956 316.776 282.805 316.664 282.677 316.518C282.554 316.368 282.492 316.171 282.492 315.929C282.492 315.737 282.549 315.561 282.664 315.401C282.778 315.242 282.94 315.116 283.15 315.025C283.36 314.929 283.6 314.881 283.87 314.881C284.285 314.881 284.621 314.986 284.877 315.196C285.133 315.406 285.27 315.694 285.288 316.059H284.664C284.651 315.863 284.571 315.705 284.425 315.586C284.283 315.468 284.091 315.408 283.849 315.408C283.625 315.408 283.447 315.456 283.315 315.552C283.182 315.648 283.116 315.774 283.116 315.929C283.116 316.052 283.155 316.155 283.232 316.237C283.315 316.315 283.415 316.379 283.534 316.429C283.657 316.475 283.826 316.527 284.041 316.587C284.31 316.66 284.53 316.733 284.699 316.806C284.868 316.875 285.012 316.98 285.13 317.121C285.254 317.263 285.318 317.448 285.322 317.676C285.322 317.882 285.265 318.067 285.151 318.231C285.037 318.396 284.875 318.526 284.664 318.622C284.459 318.713 284.221 318.759 283.952 318.759ZM291.205 314.942L290.033 318.697H289.389L288.484 315.717L287.58 318.697H286.936L285.757 314.942H286.394L287.258 318.094L288.19 314.942H288.827L289.738 318.101L290.588 314.942H291.205ZM293.461 318.759C293.109 318.759 292.79 318.679 292.502 318.519C292.219 318.359 291.995 318.133 291.83 317.841C291.67 317.544 291.59 317.201 291.59 316.813C291.59 316.429 291.673 316.091 291.837 315.799C292.006 315.502 292.234 315.276 292.522 315.12C292.81 314.961 293.132 314.881 293.488 314.881C293.845 314.881 294.167 314.961 294.455 315.12C294.742 315.276 294.968 315.5 295.133 315.792C295.302 316.084 295.386 316.425 295.386 316.813C295.386 317.201 295.3 317.544 295.126 317.841C294.957 318.133 294.726 318.359 294.434 318.519C294.142 318.679 293.817 318.759 293.461 318.759ZM293.461 318.211C293.685 318.211 293.895 318.158 294.091 318.053C294.288 317.948 294.445 317.79 294.564 317.58C294.688 317.37 294.749 317.114 294.749 316.813C294.749 316.511 294.69 316.256 294.571 316.045C294.452 315.835 294.297 315.68 294.105 315.58C293.913 315.474 293.705 315.422 293.482 315.422C293.253 315.422 293.043 315.474 292.851 315.58C292.664 315.68 292.513 315.835 292.399 316.045C292.285 316.256 292.228 316.511 292.228 316.813C292.228 317.119 292.282 317.377 292.392 317.587C292.506 317.797 292.657 317.955 292.844 318.06C293.032 318.161 293.237 318.211 293.461 318.211ZM296.83 315.552C296.94 315.337 297.095 315.171 297.296 315.052C297.501 314.933 297.75 314.874 298.043 314.874V315.518H297.878C297.179 315.518 296.83 315.897 296.83 316.655V318.697H296.206V314.942H296.83V315.552ZM298.53 316.806C298.53 316.422 298.607 316.087 298.762 315.799C298.918 315.506 299.13 315.28 299.4 315.12C299.674 314.961 299.98 314.881 300.318 314.881C300.61 314.881 300.882 314.949 301.133 315.086C301.385 315.219 301.576 315.395 301.709 315.614V313.627H302.339V318.697H301.709V317.991C301.586 318.215 301.403 318.4 301.161 318.547C300.919 318.688 300.635 318.759 300.311 318.759C299.978 318.759 299.674 318.677 299.4 318.512C299.13 318.348 298.918 318.117 298.762 317.82C298.607 317.523 298.53 317.185 298.53 316.806ZM301.709 316.813C301.709 316.53 301.652 316.283 301.538 316.073C301.423 315.863 301.268 315.703 301.072 315.593C300.88 315.479 300.667 315.422 300.434 315.422C300.201 315.422 299.989 315.477 299.797 315.586C299.605 315.696 299.452 315.856 299.338 316.066C299.224 316.276 299.167 316.523 299.167 316.806C299.167 317.094 299.224 317.345 299.338 317.56C299.452 317.77 299.605 317.932 299.797 318.046C299.989 318.156 300.201 318.211 300.434 318.211C300.667 318.211 300.88 318.156 301.072 318.046C301.268 317.932 301.423 317.77 301.538 317.56C301.652 317.345 301.709 317.096 301.709 316.813ZM305.517 314.106L305.764 314.552L304.811 314.949L305.771 315.34L305.51 315.799L304.681 315.196L304.791 316.23H304.277L304.38 315.196L303.551 315.806L303.283 315.34L304.236 314.942L303.283 314.559L303.537 314.099L304.387 314.709L304.277 313.668H304.798L304.681 314.709L305.517 314.106Z" fill="#121112"/>
<circle cx="270.895" cy="335.701" r="0.978878" fill="#121112"/>
<circle cx="282.642" cy="335.701" r="0.978878" fill="#121112"/>
<circle cx="276.769" cy="335.701" r="0.978878" fill="#121112"/>
<circle cx="288.515" cy="335.701" r="0.978878" fill="#121112"/>
<circle cx="273.832" cy="335.701" r="0.978878" fill="#121112"/>
<circle cx="285.578" cy="335.701" r="0.978878" fill="#121112"/>
<circle cx="279.706" cy="335.701" r="0.978878" fill="#121112"/>
<circle cx="291.452" cy="335.701" r="0.978878" fill="#121112"/>
<circle cx="294.389" cy="335.701" r="0.978878" fill="#121112"/>
<path fill-rule="evenodd" clip-rule="evenodd" d="M417.991 336.285C417.998 336.227 418.001 336.168 418.001 336.109C418.001 335.207 417.27 334.477 416.369 334.477C416.31 334.477 416.251 334.48 416.193 334.486L416.732 335.025C417.071 335.139 417.339 335.407 417.453 335.746L417.991 336.285ZM415.31 335.68C415.257 335.813 415.227 335.957 415.227 336.109C415.227 336.739 415.739 337.251 416.369 337.251C416.521 337.251 416.665 337.221 416.797 337.168L417.164 337.534C416.929 337.665 416.658 337.74 416.369 337.74C415.468 337.74 414.738 337.01 414.738 336.109C414.738 335.82 414.813 335.549 414.944 335.314L415.31 335.68Z" fill="#93959B"/>
<path fill-rule="evenodd" clip-rule="evenodd" d="M419.176 337.47C419.435 337.227 419.655 336.987 419.825 336.786L419.853 336.752C420.017 336.56 420.17 336.38 420.17 336.109C420.17 335.838 420.017 335.658 419.853 335.465L419.825 335.432C419.513 335.064 419.037 334.565 418.45 334.156C417.864 333.748 417.15 333.417 416.369 333.417C416.001 333.417 415.648 333.49 415.316 333.61L415.706 334C415.922 333.94 416.144 333.906 416.369 333.906C417.013 333.906 417.629 334.181 418.17 334.557C418.709 334.933 419.155 335.398 419.451 335.748C419.66 335.995 419.681 336.037 419.681 336.109C419.681 336.181 419.66 336.223 419.451 336.47C419.287 336.664 419.076 336.894 418.83 337.124L419.176 337.47ZM414.348 334.719C413.907 335.06 413.541 335.447 413.286 335.748C413.077 335.995 413.057 336.037 413.057 336.109C413.057 336.181 413.077 336.223 413.286 336.47C413.582 336.82 414.028 337.285 414.567 337.661C415.108 338.037 415.725 338.311 416.369 338.311C416.803 338.311 417.225 338.187 417.619 337.99L417.982 338.353C417.499 338.616 416.953 338.801 416.369 338.801C415.587 338.801 414.873 338.47 414.287 338.062C413.701 337.653 413.224 337.154 412.912 336.786L412.884 336.752C412.72 336.56 412.567 336.38 412.567 336.109C412.567 335.838 412.72 335.658 412.884 335.465L412.912 335.432C413.171 335.126 413.544 334.73 413.999 334.37L414.348 334.719Z" fill="#93959B"/>
<path d="M413.514 332.03L420.04 338.556" stroke="#93959B" stroke-width="0.489439"/>
<rect x="260.617" y="377.303" width="169.835" height="18.5987" rx="9.29934" fill="#121112"/>
<path d="M337.775 388.567H339.386V389.198H336.994V384.436H337.775V388.567ZM341.676 389.259C341.32 389.259 340.998 389.179 340.71 389.02C340.423 388.855 340.196 388.627 340.032 388.334C339.867 388.037 339.785 387.695 339.785 387.307C339.785 386.923 339.87 386.583 340.039 386.286C340.208 385.989 340.438 385.76 340.731 385.6C341.023 385.44 341.35 385.361 341.711 385.361C342.072 385.361 342.398 385.44 342.691 385.6C342.983 385.76 343.214 385.989 343.383 386.286C343.552 386.583 343.636 386.923 343.636 387.307C343.636 387.69 343.549 388.031 343.376 388.328C343.202 388.624 342.965 388.855 342.663 389.02C342.366 389.179 342.037 389.259 341.676 389.259ZM341.676 388.581C341.877 388.581 342.065 388.533 342.238 388.437C342.416 388.341 342.56 388.197 342.67 388.005C342.78 387.814 342.834 387.581 342.834 387.307C342.834 387.032 342.782 386.802 342.677 386.614C342.572 386.423 342.432 386.279 342.259 386.183C342.085 386.087 341.898 386.039 341.697 386.039C341.496 386.039 341.309 386.087 341.135 386.183C340.966 386.279 340.831 386.423 340.731 386.614C340.63 386.802 340.58 387.032 340.58 387.307C340.58 387.713 340.683 388.028 340.888 388.252C341.099 388.471 341.361 388.581 341.676 388.581ZM345.93 385.361C346.222 385.361 346.48 385.42 346.704 385.539C346.932 385.653 347.11 385.797 347.238 385.97V385.422H348.026V389.259C348.026 389.607 347.953 389.915 347.807 390.184C347.661 390.459 347.448 390.673 347.17 390.829C346.896 390.984 346.567 391.062 346.183 391.062C345.671 391.062 345.247 390.94 344.909 390.698C344.571 390.461 344.379 390.136 344.333 389.725H345.107C345.167 389.922 345.292 390.079 345.484 390.198C345.681 390.322 345.914 390.383 346.183 390.383C346.498 390.383 346.752 390.287 346.944 390.095C347.14 389.904 347.238 389.625 347.238 389.259V388.629C347.106 388.807 346.925 388.958 346.697 389.081C346.473 389.2 346.217 389.259 345.93 389.259C345.601 389.259 345.299 389.177 345.025 389.013C344.756 388.844 344.541 388.611 344.381 388.314C344.226 388.012 344.148 387.672 344.148 387.293C344.148 386.914 344.226 386.578 344.381 386.286C344.541 385.993 344.756 385.767 345.025 385.607C345.299 385.443 345.601 385.361 345.93 385.361ZM347.238 387.307C347.238 387.046 347.183 386.82 347.074 386.628C346.969 386.436 346.829 386.29 346.656 386.19C346.482 386.089 346.295 386.039 346.094 386.039C345.893 386.039 345.706 386.089 345.532 386.19C345.359 386.286 345.217 386.429 345.107 386.621C345.002 386.809 344.95 387.032 344.95 387.293C344.95 387.553 345.002 387.782 345.107 387.978C345.217 388.175 345.359 388.325 345.532 388.43C345.71 388.531 345.898 388.581 346.094 388.581C346.295 388.581 346.482 388.531 346.656 388.43C346.829 388.33 346.969 388.184 347.074 387.992C347.183 387.795 347.238 387.567 347.238 387.307ZM349.45 384.922C349.308 384.922 349.189 384.874 349.093 384.778C348.997 384.682 348.95 384.563 348.95 384.422C348.95 384.28 348.997 384.161 349.093 384.065C349.189 383.97 349.308 383.922 349.45 383.922C349.587 383.922 349.703 383.97 349.799 384.065C349.895 384.161 349.943 384.28 349.943 384.422C349.943 384.563 349.895 384.682 349.799 384.778C349.703 384.874 349.587 384.922 349.45 384.922ZM349.833 385.422V389.198H349.052V385.422H349.833ZM352.764 385.361C353.061 385.361 353.326 385.422 353.559 385.546C353.796 385.669 353.981 385.852 354.114 386.094C354.246 386.336 354.312 386.628 354.312 386.971V389.198H353.538V387.087C353.538 386.749 353.454 386.491 353.285 386.313C353.116 386.13 352.885 386.039 352.593 386.039C352.3 386.039 352.067 386.13 351.894 386.313C351.725 386.491 351.64 386.749 351.64 387.087V389.198H350.859V385.422H351.64V385.854C351.768 385.699 351.93 385.578 352.127 385.491C352.328 385.404 352.54 385.361 352.764 385.361Z" fill="#EAFFCE"/>
<rect x="260.862" y="436.28" width="169.346" height="18.1092" rx="9.05462" stroke="#121112" stroke-width="0.489439"/>
<path d="M326.029 447.3H327.639V447.93H325.248V443.168H326.029V447.3ZM329.93 447.992C329.574 447.992 329.252 447.912 328.964 447.752C328.676 447.588 328.45 447.359 328.286 447.067C328.121 446.77 328.039 446.427 328.039 446.039C328.039 445.655 328.123 445.315 328.292 445.018C328.461 444.721 328.692 444.493 328.985 444.333C329.277 444.173 329.603 444.093 329.964 444.093C330.325 444.093 330.652 444.173 330.944 444.333C331.237 444.493 331.467 444.721 331.636 445.018C331.805 445.315 331.89 445.655 331.89 446.039C331.89 446.423 331.803 446.763 331.629 447.06C331.456 447.357 331.218 447.588 330.917 447.752C330.62 447.912 330.291 447.992 329.93 447.992ZM329.93 447.313C330.131 447.313 330.318 447.266 330.492 447.17C330.67 447.074 330.814 446.93 330.924 446.738C331.033 446.546 331.088 446.313 331.088 446.039C331.088 445.765 331.036 445.534 330.931 445.347C330.825 445.155 330.686 445.011 330.513 444.915C330.339 444.819 330.152 444.771 329.951 444.771C329.75 444.771 329.562 444.819 329.389 444.915C329.22 445.011 329.085 445.155 328.985 445.347C328.884 445.534 328.834 445.765 328.834 446.039C328.834 446.446 328.937 446.761 329.142 446.985C329.352 447.204 329.615 447.313 329.93 447.313ZM334.183 444.093C334.476 444.093 334.734 444.152 334.957 444.271C335.186 444.385 335.364 444.529 335.492 444.703V444.155H336.28V447.992C336.28 448.339 336.207 448.647 336.061 448.917C335.915 449.191 335.702 449.406 335.423 449.561C335.149 449.716 334.82 449.794 334.437 449.794C333.925 449.794 333.5 449.673 333.162 449.431C332.824 449.193 332.632 448.869 332.587 448.458H333.361C333.42 448.654 333.546 448.812 333.738 448.931C333.934 449.054 334.167 449.116 334.437 449.116C334.752 449.116 335.005 449.02 335.197 448.828C335.394 448.636 335.492 448.357 335.492 447.992V447.361C335.359 447.54 335.179 447.69 334.951 447.814C334.727 447.932 334.471 447.992 334.183 447.992C333.854 447.992 333.553 447.91 333.279 447.745C333.009 447.576 332.795 447.343 332.635 447.046C332.479 446.745 332.402 446.404 332.402 446.025C332.402 445.646 332.479 445.31 332.635 445.018C332.795 444.726 333.009 444.5 333.279 444.34C333.553 444.175 333.854 444.093 334.183 444.093ZM335.492 446.039C335.492 445.779 335.437 445.552 335.328 445.361C335.222 445.169 335.083 445.023 334.91 444.922C334.736 444.822 334.549 444.771 334.348 444.771C334.147 444.771 333.959 444.822 333.786 444.922C333.612 445.018 333.471 445.162 333.361 445.354C333.256 445.541 333.203 445.765 333.203 446.025C333.203 446.286 333.256 446.514 333.361 446.71C333.471 446.907 333.612 447.058 333.786 447.163C333.964 447.263 334.151 447.313 334.348 447.313C334.549 447.313 334.736 447.263 334.91 447.163C335.083 447.062 335.222 446.916 335.328 446.724C335.437 446.528 335.492 446.299 335.492 446.039ZM337.703 443.654C337.562 443.654 337.443 443.606 337.347 443.511C337.251 443.415 337.203 443.296 337.203 443.154C337.203 443.013 337.251 442.894 337.347 442.798C337.443 442.702 337.562 442.654 337.703 442.654C337.84 442.654 337.957 442.702 338.053 442.798C338.149 442.894 338.197 443.013 338.197 443.154C338.197 443.296 338.149 443.415 338.053 443.511C337.957 443.606 337.84 443.654 337.703 443.654ZM338.087 444.155V447.93H337.306V444.155H338.087ZM341.018 444.093C341.315 444.093 341.579 444.155 341.812 444.278C342.05 444.401 342.235 444.584 342.367 444.826C342.5 445.068 342.566 445.361 342.566 445.703V447.93H341.792V445.82C341.792 445.482 341.707 445.224 341.538 445.045C341.369 444.863 341.139 444.771 340.846 444.771C340.554 444.771 340.321 444.863 340.147 445.045C339.978 445.224 339.894 445.482 339.894 445.82V447.93H339.113V444.155H339.894V444.586C340.022 444.431 340.184 444.31 340.38 444.223C340.581 444.136 340.794 444.093 341.018 444.093ZM350.413 444.155L349.241 447.93H348.419L347.659 445.141L346.898 447.93H346.076L344.897 444.155H345.692L346.48 447.19L347.282 444.155H348.097L348.865 447.176L349.646 444.155H350.413ZM351.394 443.654C351.253 443.654 351.134 443.606 351.038 443.511C350.942 443.415 350.894 443.296 350.894 443.154C350.894 443.013 350.942 442.894 351.038 442.798C351.134 442.702 351.253 442.654 351.394 442.654C351.531 442.654 351.648 442.702 351.744 442.798C351.84 442.894 351.888 443.013 351.888 443.154C351.888 443.296 351.84 443.415 351.744 443.511C351.648 443.606 351.531 443.654 351.394 443.654ZM351.778 444.155V447.93H350.997V444.155H351.778ZM353.715 444.792V446.882C353.715 447.023 353.747 447.126 353.811 447.19C353.879 447.25 353.994 447.279 354.153 447.279H354.633V447.93H354.016C353.665 447.93 353.395 447.848 353.208 447.683C353.021 447.519 352.927 447.252 352.927 446.882V444.792H352.482V444.155H352.927V443.216H353.715V444.155H354.633V444.792H353.715ZM357.306 444.093C357.594 444.093 357.85 444.155 358.073 444.278C358.302 444.401 358.48 444.584 358.608 444.826C358.74 445.068 358.807 445.361 358.807 445.703V447.93H358.032V445.82C358.032 445.482 357.948 445.224 357.779 445.045C357.61 444.863 357.379 444.771 357.087 444.771C356.794 444.771 356.561 444.863 356.388 445.045C356.219 445.224 356.134 445.482 356.134 445.82V447.93H355.353V442.86H356.134V444.593C356.267 444.433 356.433 444.31 356.634 444.223C356.84 444.136 357.064 444.093 357.306 444.093ZM364.454 446.957H362.46L362.117 447.93H361.302L363.008 443.161H363.913L365.619 447.93H364.797L364.454 446.957ZM364.235 446.32L363.46 444.107L362.679 446.32H364.235ZM367.142 444.71C367.274 444.536 367.455 444.39 367.683 444.271C367.912 444.152 368.17 444.093 368.457 444.093C368.786 444.093 369.086 444.175 369.355 444.34C369.629 444.5 369.844 444.726 369.999 445.018C370.154 445.31 370.232 445.646 370.232 446.025C370.232 446.404 370.154 446.745 369.999 447.046C369.844 447.343 369.629 447.576 369.355 447.745C369.086 447.91 368.786 447.992 368.457 447.992C368.17 447.992 367.914 447.935 367.69 447.821C367.466 447.702 367.283 447.556 367.142 447.382V449.725H366.361V444.155H367.142V444.71ZM369.437 446.025C369.437 445.765 369.382 445.541 369.273 445.354C369.168 445.162 369.026 445.018 368.848 444.922C368.674 444.822 368.487 444.771 368.286 444.771C368.09 444.771 367.902 444.822 367.724 444.922C367.551 445.023 367.409 445.169 367.299 445.361C367.194 445.552 367.142 445.779 367.142 446.039C367.142 446.299 367.194 446.528 367.299 446.724C367.409 446.916 367.551 447.062 367.724 447.163C367.902 447.263 368.09 447.313 368.286 447.313C368.487 447.313 368.674 447.263 368.848 447.163C369.026 447.058 369.168 446.907 369.273 446.71C369.382 446.514 369.437 446.286 369.437 446.025ZM371.786 444.71C371.918 444.536 372.099 444.39 372.327 444.271C372.555 444.152 372.814 444.093 373.101 444.093C373.43 444.093 373.729 444.175 373.999 444.34C374.273 444.5 374.488 444.726 374.643 445.018C374.798 445.31 374.876 445.646 374.876 446.025C374.876 446.404 374.798 446.745 374.643 447.046C374.488 447.343 374.273 447.576 373.999 447.745C373.729 447.91 373.43 447.992 373.101 447.992C372.814 447.992 372.558 447.935 372.334 447.821C372.11 447.702 371.927 447.556 371.786 447.382V449.725H371.005V444.155H371.786V444.71ZM374.081 446.025C374.081 445.765 374.026 445.541 373.917 445.354C373.812 445.162 373.67 445.018 373.492 444.922C373.318 444.822 373.131 444.771 372.93 444.771C372.734 444.771 372.546 444.822 372.368 444.922C372.195 445.023 372.053 445.169 371.943 445.361C371.838 445.552 371.786 445.779 371.786 446.039C371.786 446.299 371.838 446.528 371.943 446.724C372.053 446.916 372.195 447.062 372.368 447.163C372.546 447.263 372.734 447.313 372.93 447.313C373.131 447.313 373.318 447.263 373.492 447.163C373.67 447.058 373.812 446.907 373.917 446.71C374.026 446.514 374.081 446.286 374.081 446.025ZM376.43 442.86V447.93H375.649V442.86H376.43ZM380.916 445.95C380.916 446.092 380.906 446.219 380.888 446.334H378.003C378.026 446.635 378.138 446.877 378.339 447.06C378.54 447.243 378.787 447.334 379.079 447.334C379.499 447.334 379.796 447.158 379.97 446.806H380.813C380.699 447.154 380.491 447.439 380.189 447.663C379.892 447.882 379.522 447.992 379.079 447.992C378.718 447.992 378.394 447.912 378.106 447.752C377.823 447.588 377.599 447.359 377.435 447.067C377.275 446.77 377.195 446.427 377.195 446.039C377.195 445.651 377.273 445.31 377.428 445.018C377.588 444.721 377.809 444.493 378.092 444.333C378.38 444.173 378.709 444.093 379.079 444.093C379.436 444.093 379.753 444.171 380.032 444.326C380.31 444.481 380.527 444.701 380.683 444.984C380.838 445.262 380.916 445.584 380.916 445.95ZM380.1 445.703C380.096 445.415 379.993 445.185 379.792 445.011C379.591 444.838 379.342 444.751 379.045 444.751C378.775 444.751 378.545 444.838 378.353 445.011C378.161 445.18 378.047 445.411 378.01 445.703H380.1Z" fill="#121112"/>
<path d="M315.541 443.085C315.89 443.085 316.329 442.849 316.59 442.533C316.826 442.248 316.999 441.849 316.999 441.45C316.999 441.395 316.994 441.341 316.984 441.297C316.595 441.312 316.127 441.558 315.846 441.888C315.624 442.139 315.422 442.533 315.422 442.937C315.422 442.997 315.432 443.056 315.437 443.075C315.462 443.08 315.501 443.085 315.541 443.085ZM314.309 449.046C314.787 449.046 314.999 448.726 315.595 448.726C316.201 448.726 316.334 449.036 316.866 449.036C317.388 449.036 317.738 448.554 318.068 448.081C318.437 447.539 318.59 447.007 318.6 446.982C318.565 446.972 317.565 446.563 317.565 445.415C317.565 444.42 318.354 443.972 318.398 443.938C317.876 443.189 317.083 443.169 316.866 443.169C316.28 443.169 315.802 443.524 315.501 443.524C315.176 443.524 314.747 443.189 314.24 443.189C313.274 443.189 312.294 443.987 312.294 445.494C312.294 446.43 312.659 447.421 313.107 448.061C313.491 448.603 313.826 449.046 314.309 449.046Z" fill="#121112"/>
<rect x="260.862" y="461.731" width="169.346" height="18.1092" rx="9.05462" stroke="#121112" stroke-width="0.489439"/>
<path d="M381.338 354.737V355.172H379.559V356.552H381.004V356.987H379.559V358.831H379.024V354.737H381.338ZM383.388 358.884C383.086 358.884 382.812 358.815 382.565 358.678C382.323 358.541 382.131 358.347 381.99 358.097C381.853 357.842 381.784 357.549 381.784 357.216C381.784 356.887 381.855 356.597 381.996 356.347C382.14 356.092 382.336 355.898 382.583 355.765C382.83 355.628 383.106 355.56 383.411 355.56C383.716 355.56 383.992 355.628 384.239 355.765C384.486 355.898 384.68 356.09 384.821 356.341C384.965 356.591 385.038 356.883 385.038 357.216C385.038 357.549 384.964 357.842 384.815 358.097C384.67 358.347 384.472 358.541 384.222 358.678C383.971 358.815 383.693 358.884 383.388 358.884ZM383.388 358.414C383.579 358.414 383.76 358.369 383.928 358.279C384.096 358.189 384.231 358.054 384.333 357.874C384.439 357.694 384.492 357.474 384.492 357.216C384.492 356.957 384.441 356.738 384.339 356.558C384.237 356.378 384.104 356.245 383.94 356.159C383.775 356.069 383.597 356.024 383.405 356.024C383.209 356.024 383.029 356.069 382.865 356.159C382.704 356.245 382.575 356.378 382.477 356.558C382.379 356.738 382.33 356.957 382.33 357.216C382.33 357.478 382.377 357.699 382.471 357.88C382.569 358.06 382.698 358.195 382.859 358.285C383.019 358.371 383.196 358.414 383.388 358.414ZM386.275 356.135C386.369 355.951 386.502 355.808 386.675 355.706C386.851 355.605 387.064 355.554 387.315 355.554V356.106H387.174C386.575 356.106 386.275 356.431 386.275 357.081V358.831H385.741V355.613H386.275V356.135ZM389.259 355.56C389.537 355.56 389.78 355.62 389.987 355.742C390.199 355.863 390.355 356.016 390.457 356.2V355.613H390.998V358.902C390.998 359.195 390.935 359.456 390.81 359.683C390.684 359.914 390.504 360.094 390.269 360.223C390.038 360.352 389.768 360.417 389.459 360.417C389.036 360.417 388.683 360.317 388.402 360.117C388.12 359.918 387.953 359.645 387.902 359.301H388.431C388.49 359.497 388.611 359.653 388.795 359.771C388.979 359.892 389.2 359.953 389.459 359.953C389.752 359.953 389.991 359.861 390.175 359.677C390.363 359.493 390.457 359.234 390.457 358.902V358.226C390.351 358.414 390.195 358.571 389.987 358.696C389.78 358.821 389.537 358.884 389.259 358.884C388.973 358.884 388.713 358.813 388.478 358.672C388.247 358.532 388.065 358.334 387.932 358.079C387.799 357.825 387.732 357.535 387.732 357.21C387.732 356.881 387.799 356.593 387.932 356.347C388.065 356.096 388.247 355.902 388.478 355.765C388.713 355.628 388.973 355.56 389.259 355.56ZM390.457 357.216C390.457 356.973 390.408 356.762 390.31 356.582C390.212 356.401 390.079 356.264 389.911 356.17C389.747 356.073 389.564 356.024 389.365 356.024C389.165 356.024 388.983 356.071 388.819 356.165C388.654 356.259 388.523 356.396 388.425 356.576C388.327 356.756 388.278 356.967 388.278 357.21C388.278 357.457 388.327 357.672 388.425 357.856C388.523 358.036 388.654 358.175 388.819 358.273C388.983 358.367 389.165 358.414 389.365 358.414C389.564 358.414 389.747 358.367 389.911 358.273C390.079 358.175 390.212 358.036 390.31 357.856C390.408 357.672 390.457 357.459 390.457 357.216ZM393.304 358.884C393.003 358.884 392.729 358.815 392.482 358.678C392.239 358.541 392.048 358.347 391.907 358.097C391.77 357.842 391.701 357.549 391.701 357.216C391.701 356.887 391.771 356.597 391.912 356.347C392.057 356.092 392.253 355.898 392.5 355.765C392.746 355.628 393.023 355.56 393.328 355.56C393.633 355.56 393.909 355.628 394.156 355.765C394.403 355.898 394.597 356.09 394.737 356.341C394.882 356.591 394.955 356.883 394.955 357.216C394.955 357.549 394.88 357.842 394.732 358.097C394.587 358.347 394.389 358.541 394.138 358.678C393.888 358.815 393.61 358.884 393.304 358.884ZM393.304 358.414C393.496 358.414 393.676 358.369 393.845 358.279C394.013 358.189 394.148 358.054 394.25 357.874C394.356 357.694 394.409 357.474 394.409 357.216C394.409 356.957 394.358 356.738 394.256 356.558C394.154 356.378 394.021 356.245 393.857 356.159C393.692 356.069 393.514 356.024 393.322 356.024C393.126 356.024 392.946 356.069 392.782 356.159C392.621 356.245 392.492 356.378 392.394 356.558C392.296 356.738 392.247 356.957 392.247 357.216C392.247 357.478 392.294 357.699 392.388 357.88C392.486 358.06 392.615 358.195 392.776 358.285C392.936 358.371 393.113 358.414 393.304 358.414ZM396.309 356.053V357.95C396.309 358.107 396.343 358.218 396.409 358.285C396.476 358.347 396.591 358.379 396.756 358.379H397.149V358.831H396.668C396.37 358.831 396.147 358.763 395.998 358.625C395.849 358.488 395.775 358.263 395.775 357.95V356.053H395.358V355.613H395.775V354.802H396.309V355.613H397.149V356.053H396.309ZM402.1 355.936C402.1 356.276 401.982 356.56 401.747 356.787C401.516 357.01 401.162 357.122 400.684 357.122H399.897V358.831H399.363V354.737H400.684C401.146 354.737 401.497 354.849 401.736 355.072C401.978 355.295 402.1 355.583 402.1 355.936ZM400.684 356.681C400.982 356.681 401.201 356.617 401.342 356.488C401.483 356.358 401.553 356.174 401.553 355.936C401.553 355.43 401.264 355.178 400.684 355.178H399.897V356.681H400.684ZM402.564 357.21C402.564 356.881 402.631 356.593 402.764 356.347C402.897 356.096 403.079 355.902 403.31 355.765C403.545 355.628 403.805 355.56 404.091 355.56C404.373 355.56 404.618 355.62 404.825 355.742C405.033 355.863 405.188 356.016 405.289 356.2V355.613H405.83V358.831H405.289V358.232C405.184 358.42 405.025 358.577 404.814 358.702C404.606 358.823 404.363 358.884 404.085 358.884C403.8 358.884 403.541 358.813 403.31 358.672C403.079 358.532 402.897 358.334 402.764 358.079C402.631 357.825 402.564 357.535 402.564 357.21ZM405.289 357.216C405.289 356.973 405.241 356.762 405.143 356.582C405.045 356.401 404.912 356.264 404.743 356.17C404.579 356.073 404.397 356.024 404.197 356.024C403.997 356.024 403.815 356.071 403.651 356.165C403.486 356.259 403.355 356.396 403.257 356.576C403.159 356.756 403.11 356.967 403.11 357.21C403.11 357.457 403.159 357.672 403.257 357.856C403.355 358.036 403.486 358.175 403.651 358.273C403.815 358.367 403.997 358.414 404.197 358.414C404.397 358.414 404.579 358.367 404.743 358.273C404.912 358.175 405.045 358.036 405.143 357.856C405.241 357.672 405.289 357.459 405.289 357.216ZM407.872 358.884C407.626 358.884 407.405 358.843 407.209 358.761C407.013 358.674 406.858 358.557 406.745 358.408C406.631 358.255 406.569 358.081 406.557 357.885H407.109C407.125 358.046 407.199 358.177 407.332 358.279C407.469 358.381 407.647 358.432 407.867 358.432C408.07 358.432 408.231 358.387 408.348 358.297C408.466 358.207 408.524 358.093 408.524 357.956C408.524 357.815 408.462 357.711 408.336 357.645C408.211 357.574 408.017 357.506 407.755 357.439C407.516 357.376 407.32 357.314 407.168 357.251C407.019 357.185 406.89 357.089 406.78 356.963C406.674 356.834 406.621 356.666 406.621 356.458C406.621 356.294 406.67 356.143 406.768 356.006C406.866 355.869 407.005 355.761 407.185 355.683C407.365 355.601 407.571 355.56 407.802 355.56C408.158 355.56 408.446 355.65 408.665 355.83C408.885 356.01 409.002 356.257 409.018 356.57H408.483C408.471 356.401 408.403 356.266 408.278 356.165C408.156 356.063 407.992 356.012 407.784 356.012C407.592 356.012 407.44 356.053 407.326 356.135C407.213 356.217 407.156 356.325 407.156 356.458C407.156 356.564 407.189 356.652 407.256 356.723C407.326 356.789 407.412 356.844 407.514 356.887C407.62 356.926 407.765 356.971 407.949 357.022C408.18 357.085 408.368 357.147 408.513 357.21C408.657 357.269 408.781 357.359 408.883 357.48C408.988 357.602 409.043 357.76 409.047 357.956C409.047 358.132 408.998 358.291 408.9 358.432C408.802 358.573 408.663 358.684 408.483 358.766C408.307 358.845 408.103 358.884 407.872 358.884ZM410.941 358.884C410.694 358.884 410.473 358.843 410.277 358.761C410.082 358.674 409.927 358.557 409.813 358.408C409.7 358.255 409.637 358.081 409.625 357.885H410.177C410.193 358.046 410.267 358.177 410.401 358.279C410.538 358.381 410.716 358.432 410.935 358.432C411.139 358.432 411.299 358.387 411.417 358.297C411.534 358.207 411.593 358.093 411.593 357.956C411.593 357.815 411.53 357.711 411.405 357.645C411.28 357.574 411.086 357.506 410.823 357.439C410.585 357.376 410.389 357.314 410.236 357.251C410.087 357.185 409.958 357.089 409.849 356.963C409.743 356.834 409.69 356.666 409.69 356.458C409.69 356.294 409.739 356.143 409.837 356.006C409.935 355.869 410.074 355.761 410.254 355.683C410.434 355.601 410.639 355.56 410.87 355.56C411.227 355.56 411.515 355.65 411.734 355.83C411.953 356.01 412.071 356.257 412.086 356.57H411.552C411.54 356.401 411.472 356.266 411.346 356.165C411.225 356.063 411.06 356.012 410.853 356.012C410.661 356.012 410.508 356.053 410.395 356.135C410.281 356.217 410.224 356.325 410.224 356.458C410.224 356.564 410.258 356.652 410.324 356.723C410.395 356.789 410.481 356.844 410.583 356.887C410.688 356.926 410.833 356.971 411.017 357.022C411.248 357.085 411.436 357.147 411.581 357.21C411.726 357.269 411.849 357.359 411.951 357.48C412.057 357.602 412.112 357.76 412.116 357.956C412.116 358.132 412.067 358.291 411.969 358.432C411.871 358.573 411.732 358.684 411.552 358.766C411.376 358.845 411.172 358.884 410.941 358.884ZM417.158 355.613L416.153 358.831H415.601L414.826 356.276L414.051 358.831H413.499L412.488 355.613H413.035L413.775 358.314L414.573 355.613H415.12L415.901 358.32L416.629 355.613H417.158ZM419.092 358.884C418.79 358.884 418.516 358.815 418.269 358.678C418.027 358.541 417.835 358.347 417.694 358.097C417.557 357.842 417.488 357.549 417.488 357.216C417.488 356.887 417.559 356.597 417.7 356.347C417.845 356.092 418.04 355.898 418.287 355.765C418.534 355.628 418.81 355.56 419.115 355.56C419.421 355.56 419.697 355.628 419.943 355.765C420.19 355.898 420.384 356.09 420.525 356.341C420.67 356.591 420.742 356.883 420.742 357.216C420.742 357.549 420.668 357.842 420.519 358.097C420.374 358.347 420.176 358.541 419.926 358.678C419.675 358.815 419.397 358.884 419.092 358.884ZM419.092 358.414C419.284 358.414 419.464 358.369 419.632 358.279C419.8 358.189 419.936 358.054 420.037 357.874C420.143 357.694 420.196 357.474 420.196 357.216C420.196 356.957 420.145 356.738 420.043 356.558C419.941 356.378 419.808 356.245 419.644 356.159C419.479 356.069 419.301 356.024 419.109 356.024C418.914 356.024 418.733 356.069 418.569 356.159C418.408 356.245 418.279 356.378 418.181 356.558C418.083 356.738 418.035 356.957 418.035 357.216C418.035 357.478 418.082 357.699 418.175 357.88C418.273 358.06 418.403 358.195 418.563 358.285C418.724 358.371 418.9 358.414 419.092 358.414ZM421.979 356.135C422.073 355.951 422.206 355.808 422.379 355.706C422.555 355.605 422.768 355.554 423.019 355.554V356.106H422.878C422.279 356.106 421.979 356.431 421.979 357.081V358.831H421.445V355.613H421.979V356.135ZM423.436 357.21C423.436 356.881 423.503 356.593 423.636 356.347C423.769 356.096 423.951 355.902 424.182 355.765C424.417 355.628 424.679 355.56 424.969 355.56C425.22 355.56 425.453 355.618 425.668 355.736C425.883 355.849 426.048 356 426.161 356.188V354.485H426.702V358.831H426.161V358.226C426.056 358.418 425.899 358.577 425.691 358.702C425.484 358.823 425.241 358.884 424.963 358.884C424.677 358.884 424.417 358.813 424.182 358.672C423.951 358.532 423.769 358.334 423.636 358.079C423.503 357.825 423.436 357.535 423.436 357.21ZM426.161 357.216C426.161 356.973 426.112 356.762 426.015 356.582C425.917 356.401 425.784 356.264 425.615 356.17C425.451 356.073 425.269 356.024 425.069 356.024C424.869 356.024 424.687 356.071 424.523 356.165C424.358 356.259 424.227 356.396 424.129 356.576C424.031 356.756 423.982 356.967 423.982 357.21C423.982 357.457 424.031 357.672 424.129 357.856C424.227 358.036 424.358 358.175 424.523 358.273C424.687 358.367 424.869 358.414 425.069 358.414C425.269 358.414 425.451 358.367 425.615 358.273C425.784 358.175 425.917 358.036 426.015 357.856C426.112 357.672 426.161 357.459 426.161 357.216ZM428.65 354.685C429.038 354.685 429.351 354.794 429.59 355.013C429.829 355.233 429.948 355.526 429.948 355.894C429.948 356.306 429.821 356.611 429.567 356.811C429.312 357.006 428.967 357.104 428.533 357.104L428.515 357.662H428.051L428.028 356.734H428.198C428.586 356.734 428.889 356.676 429.108 356.558C429.328 356.441 429.437 356.219 429.437 355.894C429.437 355.659 429.367 355.474 429.226 355.336C429.085 355.199 428.895 355.131 428.656 355.131C428.413 355.131 428.222 355.197 428.081 355.331C427.944 355.46 427.875 355.638 427.875 355.865H427.37C427.37 355.63 427.423 355.425 427.529 355.248C427.634 355.068 427.783 354.929 427.975 354.831C428.171 354.733 428.396 354.685 428.65 354.685ZM428.28 358.866C428.179 358.866 428.092 358.831 428.022 358.761C427.951 358.69 427.916 358.604 427.916 358.502C427.916 358.4 427.951 358.314 428.022 358.244C428.092 358.173 428.179 358.138 428.28 358.138C428.378 358.138 428.46 358.173 428.527 358.244C428.597 358.314 428.633 358.4 428.633 358.502C428.633 358.604 428.597 358.69 428.527 358.761C428.46 358.831 428.378 358.866 428.28 358.866Z" fill="#93959B"/>
<path d="M344.21 417.616C343.908 417.616 343.634 417.548 343.387 417.411C343.145 417.274 342.953 417.08 342.812 416.829C342.675 416.575 342.606 416.281 342.606 415.948C342.606 415.619 342.677 415.33 342.818 415.079C342.963 414.825 343.158 414.631 343.405 414.498C343.652 414.361 343.928 414.292 344.233 414.292C344.539 414.292 344.815 414.361 345.061 414.498C345.308 414.631 345.502 414.823 345.643 415.073C345.788 415.324 345.86 415.616 345.86 415.948C345.86 416.281 345.786 416.575 345.637 416.829C345.492 417.08 345.294 417.274 345.044 417.411C344.793 417.548 344.515 417.616 344.21 417.616ZM344.21 417.146C344.402 417.146 344.582 417.101 344.75 417.011C344.918 416.921 345.054 416.786 345.155 416.606C345.261 416.426 345.314 416.207 345.314 415.948C345.314 415.69 345.263 415.471 345.161 415.291C345.059 415.11 344.926 414.977 344.762 414.891C344.597 414.801 344.419 414.756 344.227 414.756C344.032 414.756 343.851 414.801 343.687 414.891C343.526 414.977 343.397 415.11 343.299 415.291C343.201 415.471 343.153 415.69 343.153 415.948C343.153 416.211 343.2 416.432 343.293 416.612C343.391 416.792 343.521 416.927 343.681 417.017C343.842 417.103 344.018 417.146 344.21 417.146ZM347.097 414.868C347.191 414.684 347.324 414.541 347.497 414.439C347.673 414.337 347.886 414.286 348.137 414.286V414.838H347.996C347.397 414.838 347.097 415.163 347.097 415.813V417.563H346.563V414.345H347.097V414.868Z" fill="#93959B"/>
<rect x="260.617" y="415.969" width="65.0954" height="0.489439" rx="0.244719" fill="#93959B"/>
<rect x="365.357" y="415.969" width="65.0954" height="0.489439" rx="0.244719" fill="#93959B"/>
<path d="M323.092 472.75H324.702V473.381H322.311V468.619H323.092V472.75ZM326.993 473.443C326.637 473.443 326.315 473.363 326.027 473.203C325.739 473.038 325.513 472.81 325.349 472.517C325.184 472.221 325.102 471.878 325.102 471.49C325.102 471.106 325.186 470.766 325.355 470.469C325.524 470.172 325.755 469.943 326.048 469.783C326.34 469.624 326.666 469.544 327.027 469.544C327.388 469.544 327.715 469.624 328.007 469.783C328.3 469.943 328.53 470.172 328.699 470.469C328.868 470.766 328.953 471.106 328.953 471.49C328.953 471.873 328.866 472.214 328.692 472.511C328.519 472.808 328.281 473.038 327.98 473.203C327.683 473.363 327.354 473.443 326.993 473.443ZM326.993 472.764C327.194 472.764 327.381 472.716 327.555 472.62C327.733 472.524 327.877 472.38 327.987 472.189C328.096 471.997 328.151 471.764 328.151 471.49C328.151 471.216 328.099 470.985 327.994 470.798C327.888 470.606 327.749 470.462 327.576 470.366C327.402 470.27 327.215 470.222 327.014 470.222C326.813 470.222 326.625 470.27 326.452 470.366C326.283 470.462 326.148 470.606 326.048 470.798C325.947 470.985 325.897 471.216 325.897 471.49C325.897 471.896 326 472.211 326.205 472.435C326.415 472.655 326.678 472.764 326.993 472.764ZM331.246 469.544C331.539 469.544 331.797 469.603 332.02 469.722C332.249 469.836 332.427 469.98 332.555 470.154V469.605H333.343V473.443C333.343 473.79 333.27 474.098 333.124 474.368C332.978 474.642 332.765 474.856 332.486 475.012C332.212 475.167 331.883 475.245 331.5 475.245C330.988 475.245 330.563 475.124 330.225 474.881C329.887 474.644 329.695 474.32 329.65 473.908H330.424C330.483 474.105 330.609 474.263 330.801 474.381C330.997 474.505 331.23 474.566 331.5 474.566C331.815 474.566 332.068 474.47 332.26 474.278C332.457 474.087 332.555 473.808 332.555 473.443V472.812C332.422 472.99 332.242 473.141 332.014 473.264C331.79 473.383 331.534 473.443 331.246 473.443C330.917 473.443 330.616 473.36 330.342 473.196C330.072 473.027 329.857 472.794 329.698 472.497C329.542 472.195 329.465 471.855 329.465 471.476C329.465 471.097 329.542 470.761 329.698 470.469C329.857 470.176 330.072 469.95 330.342 469.79C330.616 469.626 330.917 469.544 331.246 469.544ZM332.555 471.49C332.555 471.229 332.5 471.003 332.391 470.811C332.285 470.619 332.146 470.473 331.973 470.373C331.799 470.272 331.612 470.222 331.411 470.222C331.21 470.222 331.022 470.272 330.849 470.373C330.675 470.469 330.534 470.613 330.424 470.804C330.319 470.992 330.266 471.216 330.266 471.476C330.266 471.736 330.319 471.965 330.424 472.161C330.534 472.358 330.675 472.508 330.849 472.613C331.027 472.714 331.214 472.764 331.411 472.764C331.612 472.764 331.799 472.714 331.973 472.613C332.146 472.513 332.285 472.367 332.391 472.175C332.5 471.978 332.555 471.75 332.555 471.49ZM334.766 469.105C334.625 469.105 334.506 469.057 334.41 468.961C334.314 468.865 334.266 468.747 334.266 468.605C334.266 468.463 334.314 468.345 334.41 468.249C334.506 468.153 334.625 468.105 334.766 468.105C334.903 468.105 335.02 468.153 335.116 468.249C335.212 468.345 335.26 468.463 335.26 468.605C335.26 468.747 335.212 468.865 335.116 468.961C335.02 469.057 334.903 469.105 334.766 469.105ZM335.15 469.605V473.381H334.369V469.605H335.15ZM338.081 469.544C338.377 469.544 338.642 469.605 338.875 469.729C339.113 469.852 339.298 470.035 339.43 470.277C339.563 470.519 339.629 470.811 339.629 471.154V473.381H338.855V471.27C338.855 470.932 338.77 470.674 338.601 470.496C338.432 470.313 338.202 470.222 337.909 470.222C337.617 470.222 337.384 470.313 337.21 470.496C337.041 470.674 336.957 470.932 336.957 471.27V473.381H336.176V469.605H336.957V470.037C337.085 469.882 337.247 469.761 337.443 469.674C337.644 469.587 337.857 469.544 338.081 469.544ZM347.476 469.605L346.304 473.381H345.482L344.722 470.592L343.961 473.381H343.139L341.96 469.605H342.755L343.543 472.641L344.345 469.605H345.16L345.927 472.627L346.709 469.605H347.476ZM348.457 469.105C348.316 469.105 348.197 469.057 348.101 468.961C348.005 468.865 347.957 468.747 347.957 468.605C347.957 468.463 348.005 468.345 348.101 468.249C348.197 468.153 348.316 468.105 348.457 468.105C348.594 468.105 348.711 468.153 348.807 468.249C348.903 468.345 348.951 468.463 348.951 468.605C348.951 468.747 348.903 468.865 348.807 468.961C348.711 469.057 348.594 469.105 348.457 469.105ZM348.841 469.605V473.381H348.06V469.605H348.841ZM350.778 470.243V472.332C350.778 472.474 350.81 472.577 350.874 472.641C350.942 472.7 351.057 472.73 351.216 472.73H351.696V473.381H351.079C350.728 473.381 350.458 473.299 350.271 473.134C350.084 472.97 349.99 472.702 349.99 472.332V470.243H349.545V469.605H349.99V468.667H350.778V469.605H351.696V470.243H350.778ZM354.369 469.544C354.657 469.544 354.913 469.605 355.136 469.729C355.365 469.852 355.543 470.035 355.671 470.277C355.803 470.519 355.87 470.811 355.87 471.154V473.381H355.095V471.27C355.095 470.932 355.011 470.674 354.842 470.496C354.673 470.313 354.442 470.222 354.15 470.222C353.857 470.222 353.624 470.313 353.451 470.496C353.282 470.674 353.197 470.932 353.197 471.27V473.381H352.416V468.31H353.197V470.044C353.33 469.884 353.496 469.761 353.697 469.674C353.903 469.587 354.127 469.544 354.369 469.544ZM362.093 469.989C361.969 469.752 361.798 469.573 361.579 469.455C361.359 469.331 361.106 469.27 360.818 469.27C360.503 469.27 360.222 469.34 359.975 469.482C359.729 469.624 359.534 469.825 359.393 470.085C359.256 470.345 359.187 470.647 359.187 470.989C359.187 471.332 359.256 471.636 359.393 471.901C359.534 472.161 359.729 472.362 359.975 472.504C360.222 472.645 360.503 472.716 360.818 472.716C361.243 472.716 361.588 472.597 361.853 472.36C362.118 472.122 362.28 471.8 362.339 471.394H360.551V470.77H363.175V471.38C363.125 471.75 362.992 472.09 362.778 472.401C362.568 472.712 362.291 472.961 361.949 473.148C361.611 473.331 361.234 473.422 360.818 473.422C360.37 473.422 359.961 473.319 359.591 473.114C359.221 472.903 358.927 472.613 358.708 472.243C358.493 471.873 358.385 471.455 358.385 470.989C358.385 470.524 358.493 470.106 358.708 469.736C358.927 469.366 359.221 469.078 359.591 468.872C359.966 468.662 360.375 468.557 360.818 468.557C361.325 468.557 361.775 468.683 362.168 468.934C362.565 469.18 362.853 469.532 363.031 469.989H362.093ZM365.583 473.443C365.227 473.443 364.905 473.363 364.617 473.203C364.329 473.038 364.103 472.81 363.939 472.517C363.774 472.221 363.692 471.878 363.692 471.49C363.692 471.106 363.777 470.766 363.946 470.469C364.115 470.172 364.345 469.943 364.638 469.783C364.93 469.624 365.257 469.544 365.618 469.544C365.978 469.544 366.305 469.624 366.597 469.783C366.89 469.943 367.12 470.172 367.289 470.469C367.458 470.766 367.543 471.106 367.543 471.49C367.543 471.873 367.456 472.214 367.283 472.511C367.109 472.808 366.871 473.038 366.57 473.203C366.273 473.363 365.944 473.443 365.583 473.443ZM365.583 472.764C365.784 472.764 365.972 472.716 366.145 472.62C366.323 472.524 366.467 472.38 366.577 472.189C366.686 471.997 366.741 471.764 366.741 471.49C366.741 471.216 366.689 470.985 366.584 470.798C366.479 470.606 366.339 470.462 366.166 470.366C365.992 470.27 365.805 470.222 365.604 470.222C365.403 470.222 365.216 470.27 365.042 470.366C364.873 470.462 364.738 470.606 364.638 470.798C364.537 470.985 364.487 471.216 364.487 471.49C364.487 471.896 364.59 472.211 364.795 472.435C365.005 472.655 365.268 472.764 365.583 472.764ZM369.953 473.443C369.597 473.443 369.274 473.363 368.987 473.203C368.699 473.038 368.473 472.81 368.308 472.517C368.144 472.221 368.062 471.878 368.062 471.49C368.062 471.106 368.146 470.766 368.315 470.469C368.484 470.172 368.715 469.943 369.007 469.783C369.3 469.624 369.626 469.544 369.987 469.544C370.348 469.544 370.675 469.624 370.967 469.783C371.259 469.943 371.49 470.172 371.659 470.469C371.828 470.766 371.913 471.106 371.913 471.49C371.913 471.873 371.826 472.214 371.652 472.511C371.479 472.808 371.241 473.038 370.94 473.203C370.643 473.363 370.314 473.443 369.953 473.443ZM369.953 472.764C370.154 472.764 370.341 472.716 370.515 472.62C370.693 472.524 370.837 472.38 370.946 472.189C371.056 471.997 371.111 471.764 371.111 471.49C371.111 471.216 371.058 470.985 370.953 470.798C370.848 470.606 370.709 470.462 370.535 470.366C370.362 470.27 370.174 470.222 369.973 470.222C369.772 470.222 369.585 470.27 369.412 470.366C369.242 470.462 369.108 470.606 369.007 470.798C368.907 470.985 368.856 471.216 368.856 471.49C368.856 471.896 368.959 472.211 369.165 472.435C369.375 472.655 369.638 472.764 369.953 472.764ZM374.206 469.544C374.498 469.544 374.756 469.603 374.98 469.722C375.209 469.836 375.387 469.98 375.515 470.154V469.605H376.303V473.443C376.303 473.79 376.23 474.098 376.083 474.368C375.937 474.642 375.725 474.856 375.446 475.012C375.172 475.167 374.843 475.245 374.459 475.245C373.948 475.245 373.523 475.124 373.185 474.881C372.847 474.644 372.655 474.32 372.609 473.908H373.384C373.443 474.105 373.569 474.263 373.761 474.381C373.957 474.505 374.19 474.566 374.459 474.566C374.775 474.566 375.028 474.47 375.22 474.278C375.416 474.087 375.515 473.808 375.515 473.443V472.812C375.382 472.99 375.202 473.141 374.973 473.264C374.75 473.383 374.494 473.443 374.206 473.443C373.877 473.443 373.576 473.36 373.301 473.196C373.032 473.027 372.817 472.794 372.657 472.497C372.502 472.195 372.424 471.855 372.424 471.476C372.424 471.097 372.502 470.761 372.657 470.469C372.817 470.176 373.032 469.95 373.301 469.79C373.576 469.626 373.877 469.544 374.206 469.544ZM375.515 471.49C375.515 471.229 375.46 471.003 375.35 470.811C375.245 470.619 375.106 470.473 374.932 470.373C374.759 470.272 374.571 470.222 374.37 470.222C374.169 470.222 373.982 470.272 373.808 470.373C373.635 470.469 373.493 470.613 373.384 470.804C373.279 470.992 373.226 471.216 373.226 471.476C373.226 471.736 373.279 471.965 373.384 472.161C373.493 472.358 373.635 472.508 373.808 472.613C373.987 472.714 374.174 472.764 374.37 472.764C374.571 472.764 374.759 472.714 374.932 472.613C375.106 472.513 375.245 472.367 375.35 472.175C375.46 471.978 375.515 471.75 375.515 471.49ZM378.11 468.31V473.381H377.329V468.31H378.11ZM382.596 471.401C382.596 471.542 382.587 471.67 382.568 471.784H379.684C379.706 472.086 379.818 472.328 380.019 472.511C380.22 472.693 380.467 472.785 380.759 472.785C381.18 472.785 381.477 472.609 381.65 472.257H382.493C382.379 472.604 382.171 472.89 381.869 473.114C381.572 473.333 381.202 473.443 380.759 473.443C380.398 473.443 380.074 473.363 379.786 473.203C379.503 473.038 379.279 472.81 379.115 472.517C378.955 472.221 378.875 471.878 378.875 471.49C378.875 471.101 378.953 470.761 379.108 470.469C379.268 470.172 379.489 469.943 379.773 469.783C380.06 469.624 380.389 469.544 380.759 469.544C381.116 469.544 381.433 469.621 381.712 469.777C381.99 469.932 382.207 470.151 382.363 470.434C382.518 470.713 382.596 471.035 382.596 471.401ZM381.78 471.154C381.776 470.866 381.673 470.635 381.472 470.462C381.271 470.288 381.022 470.201 380.725 470.201C380.456 470.201 380.225 470.288 380.033 470.462C379.841 470.631 379.727 470.862 379.69 471.154H381.78Z" fill="#121112"/>
<path fill-rule="evenodd" clip-rule="evenodd" d="M316.022 470.869C316.022 470.609 315.998 470.359 315.955 470.119H312.498V471.539H314.473C314.388 471.997 314.13 472.386 313.741 472.646V473.568H314.927C315.621 472.928 316.022 471.987 316.022 470.869Z" fill="#121112"/>
<path fill-rule="evenodd" clip-rule="evenodd" d="M312.498 474.457C313.489 474.457 314.32 474.128 314.928 473.567L313.741 472.646C313.413 472.867 312.992 472.997 312.498 472.997C311.542 472.997 310.733 472.351 310.444 471.483H309.218V472.434C309.822 473.634 311.063 474.457 312.498 474.457Z" fill="#121112"/>
<path fill-rule="evenodd" clip-rule="evenodd" d="M310.444 471.483C310.37 471.263 310.329 471.028 310.329 470.786C310.329 470.544 310.37 470.309 310.444 470.089V469.137H309.217C308.969 469.633 308.827 470.194 308.827 470.786C308.827 471.378 308.969 471.939 309.217 472.434L310.444 471.483Z" fill="#121112"/>
<path fill-rule="evenodd" clip-rule="evenodd" d="M312.498 468.575C313.037 468.575 313.521 468.76 313.901 469.124L314.954 468.071C314.319 467.479 313.488 467.115 312.498 467.115C311.063 467.115 309.822 467.938 309.218 469.138L310.444 470.089C310.733 469.221 311.542 468.575 312.498 468.575Z" fill="#121112"/>
</g>
<defs>
<clipPath id="clip0_291_4727">
<rect x="32.0493" y="141.394" width="626.482" height="407.213" rx="10.9361" fill="white"/>
</clipPath>
</defs>
</svg>
